<svg viewBox="0 0 48 70" xmlns="http://www.w3.org/2000/svg">
	<path id="childrenIcon_outline" d="m16.3 0.525c-1.65-0.159-3.13 0.583-4.11 1.6-0.983 1.01-1.59 2.29-1.77 3.61-0.184 1.32 0.0946 2.87 1.3 3.85 1.1 0.894 1.08 1.39 1.07 2.54-0.0097 1.08-0.194 2.7 0.576 4.41 0.325 1.78 1.42 3.05 2.4 3.98 0.955 0.91 1.68 1.61 1.96 2.06 0.0054 0.384-0.0443 0.81-0.0234 1.02-2.46 0.64-4.27 2.26-5.51 4.11-1.25 1.85-2.01 3.95-2.58 5.86-0.00947 0.0316-0.0179 0.0635-0.0254 0.0957-0.324 1.4-0.981 2.89-1.48 4.58-0.503 1.69-0.83 3.63-0.248 5.73 0.463 1.67 1.69 2.53 2.32 3.15 0.65 0.595 0.484 0.664 0.381 1.29l-0.0488 11.4s-5.73-0.393-8.01 0.586c-1.93 1.03-2.49 3.22-2.21 4.93 0.325 2.01 1.49 3.9 3.36 4.11 4.38 0.123 8.78 0.0638 13.2-0.156h-0.135c1.21 0.0832 2.55-0.472 3.57-0.785 0.471 0.642 1.11 0.899 1.67 0.984 0.589 0.0903 1.16 0.031 1.74-0.193 0.482-0.188 0.929-0.628 1.29-1.16 0.291 0.347 0.596 0.757 1.24 1.07 0.79 0.38 1.89 0.379 2.86-0.0371 0.0859-0.0375 0.168-0.0826 0.246-0.135 1.81-1.2 2.19-3.2 2.37-4.83 0.0515 0.494 0.143 1.16 0.191 1.48 0.323 2.15 2.04 3.51 3.75 3.79 0.854 0.139 1.77 0.0428 2.58-0.447 0.812-0.49 1.43-1.45 1.52-2.5 0.259-2.93-0.438-7.08-1.33-10.5 0.666-0.616 1.49-1.21 1.91-1.83 0.243-0.371 0.254-0.929 0.334-1.44 0.762 0.634 1.65 1.05 2.52 1.1 1.1 0.072 2.15-0.212 3.03-0.764 0.883-0.551 1.67-1.44 1.82-2.65-0.0532-1.49-0.786-2.69-1.7-3.45-2.6-1.74-5.78-3.88-9.36-4.77l1.23-2.28c1.58-3.59 0.808-8.9-1.88-11.2-0.667-0.543-1.49-0.886-2.2-1.28-1.41-0.887-1.07-2.91-3.54-3.45-0.67-0.146-1.29-0.28-1.94-0.371-0.0162-0.394-0.0307-0.788-0.0469-1.18 2.98-1.58 4.75-4.66 5.11-7.83 0.927-6.12-4.19-11.9-10.7-11.7l-2.53 0.0527c-1.32-1.37-2.72-2.26-4.14-2.4z"/>
</svg>
