<svg viewBox="0 0 48 70" xmlns="http://www.w3.org/2000/svg" >
	<path id="colourWhite" style="fill:#fff" d="m3.72 67.9c-2.1-0.65-2.8-4-1.2-5.6 0.84-0.84 1.1-0.88 5.2-0.88h4.3l-0.03-6c-0.017-3.3-0.023-6.3-0.015-6.7 0.026-1 2.8 0.98 3.1 2.2 0.31 1.4 1.6 2.5 3.3 2.7 0.77 0.1 2.5 0.71 3.7 1.3 1.3 0.63 2.4 1.2 2.4 1.2 0.051 0.018-0.17 1.4-0.48 3.1-0.33 1.7-0.52 4.2-0.45 5.8 0.12 2.7 0.12 2.8-0.81 2.9-1.5 0.22-1.8-7e-3 -1.2-1.1 0.71-1.4 1.3-4.8 0.91-5.2-0.18-0.18-0.63-0.27-0.99-0.2-0.51 0.098-0.69 0.49-0.75 1.7-0.048 0.84-0.33 2-0.64 2.6-1 2-1.5 2.1-9.1 2.2-3.8 0.061-7.1 0.05-7.4-0.024zm31-0.27c-0.52-0.27-1-0.78-1.1-1.1-0.2-0.68-1.3-6.9-1.3-7.4-7.9e-4 -0.16-0.36-0.24-0.81-0.18-0.74 0.11-0.84 0.42-1.3 3.9-0.31 2.5-0.67 4-1.1 4.4-0.87 0.96-2.9 0.71-3.7-0.45-0.61-0.86-0.6-1.1 0.15-5.9 0.92-5.9 1.4-6.6 3.2-5.1 1.9 1.6 3.7 1.6 5.6 3e-3 0.93-0.78 1.1-0.83 1.8-0.39 0.58 0.4 0.83 1.4 1.4 5.3 0.37 2.6 0.56 5.2 0.43 5.7-0.32 1.3-1.9 1.8-3.2 1.2zm-11-13c-1.5-1.6-0.59-4.6 1.3-4.6 1.8 0 2.7 3.5 1.1 4.8-1.4 0.849-1.9 0.376-2.4-0.2zm12-0.19c-1.3-1.4-0.33-4.4 1.3-4.4 1.2 0 2 1.1 2 2.6-0.595 2.17-2.45 2.73-3.3 1.8zm-13-4.3c-1.9 1.6-2.8 2-4.2 2-1.9 0-3-1.6-2.1-3.2 0.19-0.36 2.2-1.7 4.4-2.9 3.9-2.2 4.2-2.3 7.6-2.6 2.1-0.2 4.7-0.19 6.5 8e-3 2.7 0.3 3.3 0.54 6.9 2.6 4.3 2.5 5.1 3.4 4.2 5-1.1 1.9-3.5 1.6-6.6-0.95-1.5-1.2-2.3-1.4-3.5-0.76-1.58 1.37-1.8 2.86-1.8 4.7h-6.1c0.0447-4.96-3.05-5.69-5.3-3.9zm-9.8-2.7c-3.4-2.3-4.5-4.6-3.6-7.9 2.6-8.9 3.5-11 5.9-13 2.2-1.6 4.1-2 8.9-1.8 4 0.17 7.9 1 6.6 1.5-5.9 1.9-7.9 4.1-7.9 8.6-8e-3 2.2 0.47 3.5 2.1 5.6 0.65 0.85 0.75 1.2 0.37 1.2-0.29 0-1.3 0.4-2.3 0.88-2 1-1.9 1-5.6-1.6-3.2-2.3-3.2-2.3-3.6-1.5-0.34 0.63-0.051 0.95 2.5 2.8 1.6 1.1 2.9 2.2 2.9 2.3 0 0.13-0.4 0.34-0.89 0.46s-1.5 0.85-2.3 1.6l-1.5 1.4zm11.7-9.9c-1.9-5.1 2.8-10 8.1-8.8 4.2 1.1 6.3 6.3 4.1 10-4.02 4.37-9.68 4.51-12.2-1.2zm-9.2-19.8c-1.1-2-1.5-4.7-1.1-6.3 0.28-0.95 0.16-1.2-1.1-2.4-1.2-1.1-1.4-1.5-1.4-2.9 0-3.1 3.1-5 5.8-3.7 0.68 0.32 1.4 0.97 1.7 1.4 0.42 0.78 0.62 0.83 2.7 0.66 8.2-0.66 13 8 7.9 15-4.48 4.42-11.6 3.57-14.5-1.76z"/>
</svg>
