<svg xmlns="http://www.w3.org/2000/svg" viewBox="0 0 1000 500">
	<g id="colouredWood" transform="matrix(0,-1.0221846,1.0221846,0,-137.77106,2620.1667)">
		<path id="woodFill" style="fill:#5a3838;fill-opacity:1"
		d="m 2550.895,1077.025 c 0,0 -3.295,-112.425 1.605,-159.725 4.9,-47.3 -4.9,-148.3 0,-185.4 4.9,-37.1 -9.8,-168.8 -3.7,-200.8 6.1,-32 4,-314.6 5.1,-329.9 1,-15.3 -7.5,-57.5 -7.5,-57.5 l -29.5,7.5 -14.2,57.9 -28.5,-40.7 -108.9,-17.2 c 0,0 10.8,37 3.3,43.2 -11.2311,3.67675 -14.5632,-15.53371 -27.7732,-27.86325 -11.6206,-10.846 -27.4845,-16.71877 -27.4845,-16.71877 -70.2543,-5.30911 -65.6592,2.81288 -72.3857,5.9217 0,0 -19.7566,73.46032 -25.3566,71.56032 -5.6,-1.9 -17.1,-83.6 -17.1,-83.6 l -107,7.5 0.1,32.1 c 0,0 1.2,159.8 0,228.9 -1.2,69 17.1,106.1 14.7,166.2 -2.4,60.1 9.8,217.4 2.4,286.4 -7.3,69 4.8,230.2 9.8,231.4 4.9,1.3 47.7,-9 56.3,-9 l 0.6,-75.1 44,75.3 c 0,0 134.6,-3.5 149.8,-4.3 15.2,-0.8 80,-84.2 80,-78.6 0,5.6 -2.3,73.9 -2.3,73.9 z" />
		<path id="darkGrain" style="fill:#5f3b3b; fill-opacity:1;"
		d="m 2503.1726,266.87799 c 10.1,34.1 28.3,63 46.9,92.5 0,-8.9 0.1,-17.6 0.1,-26.2 -6.8,-10.7 -13.3,-21.5 -18.8,-32.9 -14.7,-30.4 -22.6,-62.4 -26.4,-95.2 l -5.4,-7.7 -7.3,16.3 c 2.1,18 5.7,35.8 10.9,53.2 z M 2525.6,1017.5 c 3.1,-10.7 5,-21.9 6.6,-33.1 -0.1,-25.5 0.4,-50.5 2.1,-67.1 1.5,-14.6 1.6,-34.2 1.2,-55.5 -5.8,43.6 -11.8,87.1 -18.5,130.6 -1.8,11.8 -4.2,23.7 -9.4,34.6 -4.5,9.6 -10.5,18.6 -13.3,29 -2,7.6 -2.3,15.4 -2.1,23.2 l 13.5,0.1 c 0,-0.9 0,-1.8 0,-2.8 -0.1,-22.5 13.9,-38.4 19.9,-59 z m -78.9,61 h 1.5 c -0.4,-2.1 -0.9,-4.2 -1.3,-6.4 -0.1,4 -0.2,6.4 -0.2,6.4 z m 35.8661,-130.4 c 8.2,-18.3 8.1,-41.5 10,-61.1 4.6,-46.7 7,-93.7 14.1,-140.1 12.5,-81.6 46,-167 4.5,-245.6 -9.7,-18.5 -22,-36.7 -24.5,-58 -1.2,-10 0,-19.9 5,-28.8 4.3,-7.8 10.4,-14.4 13.9,-22.8 7.5,-18.1 -1.4,-35.1 -10.3,-50.9 -10.3,-18.3 -22.7,-35.3 -33.4,-53.4 -22.4,-38 -31.7,-80.9 -32.8,-124.7 l -16,-2.5 c -0.8,30.7 2.5,61.5 12.3,90.8 13.5,40.4 41.3,71.8 59.8,109.4 5,10.2 7.2,18.4 1.4,28.6 -4.5,8 -10.5,14.7 -14,23.3 -7.1,17.3 -5,37.1 1.3,54.3 6.9,19.1 18.6,35.8 27.2,54.1 9.2,19.8 13.1,41.6 13.4,63.4 0.6,43.6 -11.2,86.1 -19.4,128.5 -8.6,44.6 -12.8,90 -16.2,135.2 -1.8,23.1 -3.3,46.2 -5.3,69.2 -1,10.8 -2,21.6 -8,30.9 -5.1,7.7 -11.8,14.2 -16.7,22.1 -10.9,17.5 -14.735,26.06487 -14.435,46.1649 6.3,-7.1 12.335,-2.1649 16.235,-6.3649 0.7,-4.6 1.6,-9.3 3,-13.8 5.2,-19 21,-30.3 28.9,-47.9 z M 2356.4,252.24002 c 9.6,35.9 26.2,69.6 49,98.8 6.4,8.2 16.3,18.1 16.8,29.2 0.5,9.9 -8.3,20 -10,30 -3.1,18.4 2.7,37.1 11.5,53.1 10.6,19 25.9,35 35.7,54.5 10.4,20.8 12.5,44.1 10.6,67.1 -3.9,45.9 -21.5,89.7 -30.1,134.8 -4.2,22.2 -7.2,44.7 -9.1,67.2 -1.9,23.6 -0.4,47.5 -2.8,71 -2.3,23.1 -16.6,39.7 -29.9,57.5 -12.3,16.4 -22.8,34.2 -29.2,53.8 -10.2,31.19998 -5.2,61.09998 3.4,90.69998 2.8,-5.2 13.6,-0.7 16.3,-6.4 -2.5,-9.9 -12.2,-30.1 -12.6,-40.4 -1,-22.79998 5.6,-44.39998 16.6,-64.19998 10.3,-18.6 24.9,-34 36.2,-51.9 11.3,-17.8 14,-36.6 14.2,-57.4 0.3,-23.3 1.3,-46.5 3.9,-69.7 5.4,-48 19.3,-93.2 30.3,-140 9.5,-40.2 14.2,-83.6 -5.7,-121.5 -9.8,-18.8 -24.5,-34.3 -34.7,-52.9 -5.2,-9.4 -9.3,-20 -10.2,-30.9 -1,-12.6 4.3,-20.7 8.4,-32 6.8,-18.5 -4.9,-34.5 -15.9,-48.3 -12.2,-15.3 -22.7,-31.7 -31.2,-49.3 -15.6,-32.2 -24.1,-66.2 -26.4,-100.6 -4.2,-3.2 -9.6,-9 -15.1,-15.6 0.4,25.1 3.8,50 10,73.4 z M 2175,1037.5 v -3.7 c -0.2,1 -0.3,2.1 -0.4,3.1 z m 45.4,-84.2 c 16.1,-32.3 35,-64.2 47.1,-98.3 0.6,-1.7 -1.9,-3.2 -3.1,-1.8 -21.4,27.6 -39.6,60 -55.8,90.9 -10,19.1 -23.4,48.9 -30.1,73.8 l 20.4,34.9 c -1.3,-35.3 5.5,-67.4 21.5,-99.5 z m 37.7,-730 c 19,17.8 33.5,36.3 38.8,62.6 5.6,27.8 -6.7,52.5 -7,79.9 -0.3,29 20.2,44.4 38.5,63.4 20.4,21.2 39.3,44.1 56.2,68.2 17.2,24.5 32.6,48.3 29.3,79.6 -3.6,34 -20.7,66.5 -34.6,97.2 -10.8,24 -22.1,47.8 -33.1,71.7 -0.2,0.1 -0.4,0.3 -0.5,0.5 -19.6,29.2 -28.3,67.7 -30.9,102.4 -1.4,18.9 1.4,37.2 1.1,56 -0.2,18.9 -19.1,22.6 -31.8,32.1 -25.9,19.4 -37,53.2 -41.6,84.1 -3.3,22.1 -3.1,43.9 -0.2,65.5 4.8,-0.1 9.9,-0.3 15.1,-0.4 -1.9,-12.4 -2.8,-25 -2.3,-38.1 1.4,-34.2 9.8,-78.2 39.6,-99.4 10.8,-7.7 24.8,-11.9 32,-23.9 8.5,-14.2 3.3,-32.7 2.5,-48.1 -1.1,-21.8 0.2,-44 3.8,-65.5 3.1,-18.4 8.4,-36 13.2,-53.9 13.6,-21.1 26,-42.9 37.8,-65.2 14,-26.4 28.1,-53.6 38.3,-81.7 9.3,-25.5 13.6,-53.6 3.9,-79.7 -9.4,-25.2 -26.8,-47.9 -43,-69 -17.3,-22.6 -36.6,-43.4 -56.8,-63.4 -9.5,-9.4 -16.2,-18.4 -16.2,-32.4 0,-15 5.3,-29.8 7.3,-44.6 3.4,-24.4 -1.1,-49.2 -12.1,-71.2 -11.3,-22.6 -31,-35.4 -46.7,-54.2 -11.2,-13.5 -10.2,-29.7 -5,-45.7 l -13.6,1 c 0,0 -3.9,16.2 -8.8,33.6 4,15.1 14.8,27.4 26.8,38.6 z m -125.1499,247.04002 c -1.1,36.6 -8.2,71.5 -12.6,107.6 -4.2,35.1 5.2,68.1 16.6,100.9 11.3,32.5 24.7,64.3 40.2,95 7.7,15.3 15.9,30.4 24.7,45.1 6.7,11.2 13.3,24 26.3,28.5 20.5,7.1 43.3,-10.7 52.2,-28.3 7,-13.7 8.6,-29.5 10.8,-44.5 2.5,-16.9 6.6,-32.1 15.4,-46.8 8.2,-13.7 18.3,-26.1 26.1,-40.1 7.3,-13.1 13.1,-27.2 17.2,-41.6 8.4,-29.5 9.7,-61.7 2.6,-91.6 -3.3,-13.9 -9.2,-27.1 -18.6,-37.9 -10.4,-12 -24.5,-20 -35.2,-31.8 -0.7,-0.7 -1.3,-1.5 -1.9,-2.3 6,-66.4 -19.8,-132.7 -47.5,-191.4 -11.9,-25.1 -28.4725,-37.22736 -38.4725,-63.32736 -3,8.8 -3.8275,2.22736 -5.4275,1.72736 -5.3,-1.8 -15.4,-73.1 -16.8,-82.6 l -7.2,0.5 c -0.1,6.9 0,13.9 0.5,20.7 2.5,35.9 18.8,66.6 34.9,98 16.5,32.1 32.7,64.2 47.3,97.2 16.6,37.6 26.9,75.9 30.6,116.8 -17,-21.6 -25,-49.8 -44.4,-69.6 -8.3,-8.4 -20,-10.5 -29.3,-2.6 -10.3,8.6 -13.4,23.7 -16.7,36.1 -9.1,34 -13.4,69.1 -16.8,104.1 -3.3,34 -8.1,69 -3,103.1 3.6,24.2 15.4,58.6 44.1,61.7 10.9,1.2 20.2,-4.6 26.3,-13.4 9.6,-13.7 15.9,-30.5 23.6,-45.4 7.6,-14.7 17,-29.5 22.8,-45 5.6,-14.9 -3.6,-25.4 -13,-36.2 -10.5,-12.1 -21.9,-23 -34.6,-32.7 -2.1,-1.6 -5.9,-0.9 -7.6,1 -25.4,28.2 -35.1,66.7 -25.6,103.7 0.5,2.1 3.5,1.2 3.1,-0.9 -5.7,-32.5 4.7,-66 27.2,-89.7 9.3,8.4 18.5,17.1 26.9,26.4 5.7,6.3 14.1,13.3 11.9,23 -1.8,8.3 -8.2,17.3 -11.9,24.8 -6.3,12.9 -12.6,25.8 -19,38.6 -5.4,10.7 -12.3,32.3 -26.4,33.2 -13.7,0.8 -23.2,-17.2 -26.8,-27.9 -5.2,-15.5 -6.9,-31.7 -7,-47.9 -0.1,-29 3.4,-58.3 6.5,-87.1 3.3,-30.7 7.7,-61.3 15.9,-91.1 1.9,-6.7 3.3,-14.5 6.9,-20.5 0.7,-1.1 3,-5.3 4.6,-5.6 4.7,-1.1 8.9,5.6 11.1,8.5 7.7,10.2 13.7,21.7 20,32.9 5.5,9.7 11.2,19.3 18.1,28 8.5,10.6 19,18.1 29.7,26.2 25.1,19.1 33.1,47.2 34,78 0.8,28.3 -4.9,57 -17.3,82.5 -11.4,23.4 -30.2,43 -38.7,67.9 -8.5,24.8 -3.5,57.8 -21.7,78.4 -7.6,8.6 -19.2,15.6 -31,12.4 -13.1,-3.5 -20,-22.6 -25.9,-33.5 -27.9,-51.3 -52.8,-106.1 -67.8,-162.8 -3.8,-14.5 -6.5,-29.1 -6.1,-44.1 0.4,-15.9 3.7,-31.5 6.4,-47.1 5.1,-29.8 7.4,-59.9 7.8,-90.1 0.9,-69.3 -7.5,-138.2 -7.8,-207.4 -0.1,-33.7 2.3,-67.1 6,-100.4 l -14.4,1 c -5.5,33.5 -9,67.3 -9.1,101.6 0.2,72.7 9.4,145.3 7.3,218.1 z M 2150.7,919.8 c 3.1,49.2 -1.2,98.8 -3.2,148 -0.3,7.1 -0.6,14.2 -0.9,21.3 5.9,-1.1 10.8,-1.8 13.1,-1.8 l 0.8,-4.6 c 3.7,-41.6 7.9,-83.3 9.7,-125 1.8,-41.1 -0.2,-82.3 -12.4,-121.8 -10.9,-35.1 -28.3,-67.7 -48,-98.6 0.5,15.8 0.8,31.4 1,46.3 2.9,5.2 5.6,10.5 8.3,15.8 18.7,38.1 29,78.1 31.6,120.4 z" />
		
		<path id="lightGrain" style="fill:#875454;fill-opacity:1;"
		d="m 2552.6349,335.66989 c 0,-8.9 0.1,-17.6 0.1,-26.2 -24.6016,-44.24658 -39.6862,-103.26088 -42.085,-136.17491 L 2504.9,199.6 c 2.3,18 5.9,35.7 11,53.2 10.1,34.2 18.0349,53.36989 36.7349,82.86989 z M 2553.2,1017.5 c 3.8035,-22.35291 -1.3578,-50.65907 -2.4051,-73.30906 0,0 -5.915,21.82926 -7.2649,52.48911 -1.8,11.79995 -3.13,19.41995 -8.33,30.31995 -4.5,9.6 -10.5,18.6 -13.3,29 -2,7.6 -2.3,15.5 -2.1,23.3 l 13.5,0.1 v -2.9 c -0.1,-22.5 13.9,-38.4 19.9,-59 z m -79.9,-21.4 c 5.6,-19.2 21.4,-30.4 29.3,-48 8.2,-18.3 8.1,-41.5 10,-61.1 4.6,-46.7 7,-93.7 14.1,-140.1 12.5,-81.6 46,-167 4.5,-245.6 -9.7,-18.5 -22,-36.7 -24.5,-58 -1.2,-10 0,-19.9 5,-28.8 4.3,-7.8 10.4,-14.4 13.9,-22.8 7.5,-18.1 -1.4,-35.1 -10.3,-50.9 -10.3,-18.3 -22.7,-35.3 -33.4,-53.4 -22.4,-38 -31.7,-80.9 -32.8,-124.7 l -16,-2.5 c -0.8,30.7 2.5,61.5 12.3,90.8 13.5,40.4 41.3,71.8 59.8,109.4 5,10.2 7.2,18.4 1.4,28.6 -4.5,8 -10.5,14.7 -14,23.3 -7.1,17.3 -5,37.1 1.3,54.3 6.9,19.1 18.6,35.8 27.2,54.1 9.2,19.8 13.1,41.6 13.4,63.4 0.6,43.6 -11.2,86.1 -19.4,128.5 -8.6,44.6 -12.8,90 -16.2,135.2 -1.8,23.1 -3.3,46.2 -5.3,69.2 -1,10.8 -2,21.6 -8,30.9 -5.1,7.7 -11.8,14.2 -16.7,22.1 -20.2,32.4 -14.4,72.4 -7.4,108.4 l 14.7,0.2 c -6.1,-27.4 -10.8,-55.7 -2.9,-82.5 z m -53,-49.2 c 10.3,-18.6 24.9,-34 36.2,-51.9 11.3,-17.8 14,-36.6 14.2,-57.4 0.3,-23.3 1.3,-46.5 3.9,-69.7 5.4,-48 19.3,-93.2 30.3,-140 9.5,-40.2 14.2,-83.6 -5.7,-121.5 -9.8,-18.8 -24.5,-34.3 -34.7,-52.9 -5.2,-9.4 -9.3,-20 -10.2,-30.9 -1,-12.6 4.3,-20.7 8.4,-32 6.8,-18.5 -4.9,-34.5 -15.9,-48.3 -12.2,-15.3 -22.7,-31.7 -31.2,-49.3 -21.5,-44.3 -29.5,-92.2 -26.4,-139.7 l -13.1,-2.1 c 0,0 -0.4,0.7 -1.2,1.9 -2.6,32.8 0.7,66.2 9,97.1 9.6,35.9 26.2,69.6 49,98.8 6.4,8.2 16.3,18.1 16.8,29.2 0.5,9.9 -8.3,20 -10,30 -3.1,18.4 2.7,37.1 11.5,53.1 10.6,19 25.9,35 35.7,54.5 10.4,20.8 12.5,44.1 10.6,67.1 -3.9,45.9 -21.5,89.7 -30.1,134.8 -4.2,22.2 -7.2,44.7 -9.1,67.2 -1.9,23.6 -0.4,47.5 -2.8,71 -2.3,23.1 -16.6,39.7 -29.9,57.5 -12.3,16.4 -22.8,34.2 -29.2,53.8 -10.2,31.2 -5.2,61.1 3.4,90.7 2.8,-5.2 9.855,-7.1201 12.555,-12.8201 -2.5,-9.9 -8.455,-23.6799 -8.855,-33.9799 -0.8,-22.8 5.9,-44.5 16.8,-64.2 z m -172.3,6.4 c 16.1,-32.3 35,-64.2 47.1,-98.3 0.6,-1.7 -1.9,-3.2 -3.1,-1.8 -21.4,27.6 -39.6,60 -55.8,90.9 -12.7,24.3 -31,66.3 -34,92.8 l 26.2,39.6 c -0.6,-5.8 -1.1,-11.5 -1.5,-17.3 -2.5,-37.9 4.1,-71.9 21.1,-105.9 z m 34.7,94.7 c 1.4,-34.2 9.8,-78.2 39.6,-99.4 10.8,-7.7 24.8,-11.9 32,-23.9 8.5,-14.2 3.3,-32.7 2.5,-48.1 -1.1,-21.8 0.2,-44 3.8,-65.5 3.1,-18.4 8.4,-36 13.2,-53.9 13.6,-21.1 26,-42.9 37.8,-65.2 14,-26.4 28.1,-53.6 38.3,-81.7 9.3,-25.5 13.6,-53.6 3.9,-79.7 -9.4,-25.2 -26.8,-47.9 -43,-69 -17.3,-22.6 -36.6,-43.4 -56.8,-63.4 -9.5,-9.4 -16.2,-18.4 -16.2,-32.4 0,-15 5.3,-29.8 7.3,-44.6 3.4,-24.4 -1.1,-49.2 -12.1,-71.2 -11.3,-22.6 -31,-35.4 -46.7,-54.2 -11.5,-13.8 -10.2,-30.5 -4.6,-46.9 l -20.8,1.6 c -1.3,4.8 -2.4,9.6 -3.1,14.3 -3.5,24.8 10.9,42.6 27.9,58.5 19,17.8 33.5,36.3 38.8,62.6 5.6,27.8 -6.7,52.5 -7,79.9 -0.3,29 20.2,44.4 38.5,63.4 20.4,21.2 39.3,44.1 56.2,68.2 17.2,24.5 32.6,48.3 29.3,79.6 -3.6,34 -20.7,66.5 -34.6,97.2 -10.8,24 -22.1,47.8 -33.1,71.7 -0.2,0.1 -0.4,0.3 -0.5,0.5 -19.6,29.2 -28.3,67.7 -30.9,102.4 -1.4,18.9 1.4,37.2 1.1,56 -0.2,18.9 -19.1,22.6 -31.8,32.1 -25.9,19.4 -37,53.2 -41.6,84.1 -3.3,22.1 -3.1,43.9 -0.2,65.5 4.8,-0.1 9.9,-0.3 15.1,-0.4 -1.9,-12.4 -2.9,-25 -2.3,-38.1 z M 2151.5228,471.9608 c -1.1,36.6 -8.2,71.5 -12.6,107.6 -4.2,35.1 5.2,68.1 16.6,100.9 11.3,32.5 24.7,64.3 40.2,95 7.7,15.3 15.9,30.4 24.7,45.1 6.7,11.2 13.3,24 26.3,28.5 20.5,7.1 43.3,-10.7 52.2,-28.3 7,-13.7 8.6,-29.5 10.8,-44.5 2.5,-16.9 6.6,-32.1 15.4,-46.8 8.2,-13.7 18.3,-26.1 26.1,-40.1 7.3,-13.1 13.1,-27.2 17.2,-41.6 8.4,-29.5 9.7,-61.7 2.6,-91.6 -3.3,-13.9 -9.2,-27.1 -18.6,-37.9 -10.4,-12 -24.5,-20 -35.2,-31.8 -0.7,-0.7 -1.3,-1.5 -1.9,-2.3 6,-66.4 -19.8,-132.7 -47.5,-191.4 -11.9,-25.1 -31.4151,-57.29009 -41.4151,-83.39009 -3,8.8 -5.7,14.8 -7.3,14.3 -13.09,5.59009 -21.18,-76.10991 -21.18,-76.10991 l -7,0.5 c -0.2,7.3 0,14.6 0.5,21.8 2.5,35.9 22.01,63.92497 43.9951,98 16.5,32.1 32.7,64.2 47.3,97.2 16.6,37.6 26.9,75.9 30.6,116.8 -17,-21.6 -25,-49.8 -44.4,-69.6 -8.3,-8.4 -20,-10.5 -29.3,-2.6 -10.3,8.6 -13.4,23.7 -16.7,36.1 -9.1,34 -13.4,69.1 -16.8,104.1 -3.3,34 -8.1,69 -3,103.1 3.6,24.2 15.4,58.6 44.1,61.7 10.9,1.2 20.2,-4.6 26.3,-13.4 9.6,-13.7 15.9,-30.5 23.6,-45.4 7.6,-14.7 17,-29.5 22.8,-45 5.6,-14.9 -3.6,-25.4 -13,-36.2 -10.5,-12.1 -21.9,-23 -34.6,-32.7 -2.1,-1.6 -5.9,-0.9 -7.6,1 -25.4,28.2 -35.1,66.7 -25.6,103.7 0.5,2.1 3.5,1.2 3.1,-0.9 -5.7,-32.5 4.7,-66 27.2,-89.7 9.3,8.4 18.5,17.1 26.9,26.4 5.7,6.3 14.1,13.3 11.9,23 -1.8,8.3 -8.2,17.3 -11.9,24.8 -6.3,12.9 -12.6,25.8 -19,38.6 -5.4,10.7 -12.3,32.3 -26.4,33.2 -13.7,0.8 -23.2,-17.2 -26.8,-27.9 -5.2,-15.5 -6.9,-31.7 -7,-47.9 -0.1,-29 3.4,-58.3 6.5,-87.1 3.3,-30.7 7.7,-61.3 15.9,-91.1 1.9,-6.7 3.3,-14.5 6.9,-20.5 0.7,-1.1 3,-5.3 4.6,-5.6 4.7,-1.1 8.9,5.6 11.1,8.5 7.7,10.2 13.7,21.7 20,32.9 5.5,9.7 11.2,19.3 18.1,28 8.5,10.6 19,18.1 29.7,26.2 25.1,19.1 33.1,47.2 34,78 0.8,28.3 -4.9,57 -17.3,82.5 -11.4,23.4 -30.2,43 -38.7,67.9 -8.5,24.8 -3.5,57.8 -21.7,78.4 -7.6,8.6 -19.2,15.6 -31,12.4 -13.1,-3.5 -20,-22.6 -25.9,-33.5 -27.9,-51.3 -52.8,-106.1 -67.8,-162.8 -3.8,-14.5 -6.5,-29.1 -6.1,-44.1 0.4,-15.9 3.7,-31.5 6.4,-47.1 5.1,-29.8 7.4,-59.9 7.8,-90.1 0.9,-69.3 -7.5,-138.2 -7.8,-207.4 -0.1,-34.1 2.3,-67.8 6.1,-101.5 l -14.4,1 c -5.6,33.8 -9.2,68 -9.3,102.6 0.3,72.7 9.5,145.3 7.3,218.1 z M 2185.4,835.9 c -11.5,-37.2 -30.4,-71.5 -51.5,-104 -3.6,-5.5 -7.5,-11.1 -11.5,-16.6 0.5,14.5 0.9,29 1.3,43.3 8.3,13.3 16.1,26.8 23.1,40.9 18.8,38 29,78 31.6,120.3 2.1696,34.43412 0.7145,69.06417 -1.04,103.6159 8.1446,5.2271 7.0917,7.5657 14.6374,15.5729 2.5894,-28.6372 4.7817,-56.53021 5.9026,-81.2888 1.7,-41.1 -0.3,-82.3 -12.5,-121.8 z m -74.5,-580 c -1.3,-14 -3.6,-28.2 -5.8,-42.5 0.3,49.7 0.7,148.4 -0.2,198.8 -0.2,13.8 0.3,26.2 1.3,37.9 9,-64.3 10.6,-129.6 4.7,-194.2 z" />
		
		<path id="blackGrain" style="fill:#402828;fill-opacity:1"
		d="m 2188.7888,144.24594 c -2.704,13.89274 15.9248,111.34069 21.8308,83.81665 -9.3183,-15.51002 -20.4261,-75.91501 -21.8308,-83.81665 z m -41.0271,4.26848 c -25.2046,133.4842 16.0441,272.24177 -11.4724,405.56904 -15.2848,70.19773 19.0517,137.77363 46.2776,200.265 14.9876,28.34543 27.7814,58.98201 49.2514,83.03867 21.222,21.81428 59.4958,-16.64785 57.3984,-26.67827 -19.1036,41.28499 -60.2536,16.30599 -74.1735,-13.40425 -29.4122,-62.7766 -63.6259,-125.67543 -72.6094,-195.09878 1.2107,-49.00333 16.3517,-96.92701 14.1445,-146.36108 0.6094,-101.71804 -16.0457,-206.30218 -2.0904,-307.79322 l -6.7266,0.46289 z m 101.0009,1.13535 c -13.9582,36.85268 24.3806,66.37324 45.7393,89.82659 26.2054,28.54649 27.6352,69.60617 17.3937,105.06342 -11.689,34.57582 13.5163,63.14967 37.5528,84.16782 32.4278,36.55917 68.511,73.85237 83.5335,121.38032 9.1465,57.79399 -28.8272,108.36765 -49.3068,159.61791 -7.8728,16.35283 -16.9336,35.53393 -2.651,9.82826 25.6182,-49.70365 59.9068,-98.7756 63.9188,-156.05123 -0.9825,-49.9674 -39.7035,-87.57412 -68.7976,-124.43053 -25.6999,-29.12637 -70.1453,-58.15394 -49.2431,-103.32116 12.5201,-44.30003 -4.3862,-93.90307 -40.8114,-121.95831 -26.5429,-10.55791 -22.8197,-55.88429 -31.0919,-64.5977 z m 118.8936,2.77496 c -5.8381,74.6348 20.6584,153.36004 69.7896,209.54135 18.5207,36.01373 -30.6978,55.8971 6.8691,97.2238 20.1966,31.76628 48.985,61.96964 47.7851,102.35986 0.4383,71.15783 -34.1628,136.62697 -38.4106,207.39033 -7.35,45.22937 7.8168,97.82408 -26.4333,135.04524 -30.7181,35.67265 -53.7605,83.89877 -39.7859,131.33309 6.493,22.0394 20.6702,35.0968 5.8876,-6.4341 -17.1067,-48.06041 17.193,-93.9686 45.5054,-130.07927 27.8979,-37.87392 13.213,-87.3586 21.4761,-130.57849 5.6688,-73.76554 43.0807,-143.00647 38.0032,-217.71614 -1.1211,-50.45201 -52.8466,-79.61699 -58.3774,-128.2246 13.2984,-34.90643 25.2518,-50.05681 -5.0113,-76.3355 -33.8803,-49.43169 -64.258,-132.93237 -60.768,-192.55292 l -6.5253,-1.03515 z m 58.5489,9.65685 c -2.0113,54.29726 17.1248,112.36069 48.7075,156.01905 22.2659,28.94149 36.6959,50.73702 10.3706,97.3271 -16.0022,47.62061 33.751,89.67615 40.0495,137.35471 12.661,78.24964 -22.1691,153.25036 -27.0328,230.68492 -6.6268,51.36776 -6.3506,103.5601 -14.612,154.64773 -19.912,30.10815 -43.5237,62.07731 -35.6558,100.92001 l 2.5335,-3.4296 c -2.7215,-35.3452 28.3973,-65.51195 43.7783,-106.83774 9.7661,-86.97456 12.126,-175.16421 33.7928,-260.45897 13.4944,-60.08193 9.3143,-148.25265 -26.5627,-201.61579 -27.1455,-34.2201 11.5266,-73.54398 12.9852,-86.91367 -4.4544,-42.16111 -41.0728,-71.73544 -56.6162,-109.87578 -15.1263,-32.43201 -22.0638,-73.55442 -23.2473,-109.18505 -2.3328,0.90139 -10.477,-4.48922 -8.4906,1.36308 z m 72.7207,38.11373 c 5.034,47.50221 23.9124,92.33567 50.5117,131.70508 -7.03,-34.79929 -39.2886,-88.00083 -43.5009,-125.63259 -2.7115,-8.20431 1.3361,-12.72785 -7.0108,-6.07249 z m -278.431,21.25661 c -14.0072,26.66339 31.2472,66.83757 38.9184,98.41054 18.4302,37.30821 35.6762,75.71961 43.7782,116.77426 -7.9942,-76.3815 -49.7916,-148.8137 -82.6966,-215.1848 z m 22.3079,183.47777 c -32.4371,17.43906 -31.3319,63.52596 -36.3242,96.13913 -8.7664,57.26832 -20.8376,118.61377 -0.8665,175.08048 9.9392,42.15728 63.3963,36.0969 69.6875,-4.57323 11.7708,-33.14352 52.6548,-68.79553 15.9532,-103.41707 -19.9444,-18.81401 -32.7511,-32.41561 -53.1845,-1.15033 -13.052,19.97097 -10.3731,77.13358 -5.3704,77.73253 -4.7211,-34.97665 3.0751,-62.14354 8.1889,-70.40038 16.4498,-26.56011 23.3414,-23.73904 44.3726,-4.35939 34.0874,31.4105 0.8077,63.64466 -11.0116,93.42458 -3.6956,38.36998 -53.2591,53.60361 -62.1254,9.443 -16.5236,-55.55159 -6.7047,-114.65625 3.0484,-170.30427 4.7716,-27.2255 2.8435,-84.12205 35.2609,-85.78176 26.3958,30.70043 37.7294,74.29958 75.4571,94.94991 43.4494,35.46229 40.0541,100.8215 23.2785,149.05069 -11.8703,31.57889 -51.093,78.48679 -49.0005,98.65278 8.4572,-38.05911 48.3829,-72.71799 57.1126,-116.64292 13.6615,-49.54674 11.2479,-114.8343 -37.2572,-145.05863 -33.228,-22.47017 -37.4667,-68.6477 -69.5902,-91.52705 z m -130.4741,335.55708 c 5.4149,38.88831 39.6461,72.34732 46.1914,112.79924 20.8563,75.39709 14.8758,101.80486 12.9842,178.70139 7.8819,-12.0023 7.0363,-34.4145 8.4174,-48.35013 7.0719,-71.35889 -0.721,-146.26144 -38.0069,-208.96466 -5.2153,-4.22888 -36.2605,-72.88929 -29.5861,-34.18584 z m 244.5269,22.08745 c -23.3168,44.4177 -24.2124,95.54569 -21.1447,144.3553 -13.7179,32.14599 -61.3427,40.97373 -66.3111,81.94598 -6.2888,27.2095 -21.298,77.7196 -1.0071,93.4214 -4.5223,-48.7396 -0.128,-109.69818 44.2268,-139.63186 37.5352,-9.95077 32.2678,-49.47963 28.6064,-79.07641 -0.6348,-34.63405 6.1217,-68.87753 16.1002,-101.90504 l -0.4707,0.89063 z m -83.7266,106.6875 c -33.6826,51.41854 -68.3919,108.51025 -81.0581,169.37808 11.046,17.8704 17.7374,40.5768 16.4493,4.0701 -2.2608,-64.07485 42.1724,-118.25875 65.5502,-174.75873 z m 275.0209,76.3789 c -5.2497,36.35902 -8.9782,78.02908 -29.2713,109.85798 -9.4415,19.2716 3.3616,34.2347 5.0093,5.6267 16.9561,-33.5527 28.0822,-73.93092 24.9764,-111.8357 0.1173,-8.75233 1.0875,-17.24812 -0.7144,-3.64898 z"/>
		
		<path id="woodOuter" style="fill:#402828; fill-opacity:1"
		d="m 2144.3652,144.41211 c -27.1659,3.00439 -71.2941,-6.87035 -55.9885,36.35965 1.565,89.7338 -1.1915,179.56974 1.2872,269.2385 5.6039,50.99019 17.6685,101.52074 13.1144,153.20014 1.6161,99.40464 9.647,198.97438 0.6421,298.23064 -0.1788,64.84568 1.23,130.19536 11.1815,194.34636 20.2883,2.4662 73.9461,7.9725 64.0257,-32.4594 -3.8914,-15.8603 -5.2006,-56.676 8.9777,-23.7073 16.1067,19.8268 9.6753,54.4836 46.0766,52.3551 42.4166,-2.4802 93.5192,-4.2172 135.9728,-5.9406 30.7784,-13.9123 57.1775,-62.3877 75.9935,-71.6441 6.308,20.5964 -18.5491,70.3714 14.469,67.1798 27.889,-7.0677 83.2597,15.5103 94.9357,-9.7647 -3.5086,-64.7854 -1.2781,-129.57936 1.7639,-194.27273 -0.8475,-57.27569 -5.0357,-114.60045 -0.4048,-171.78172 -0.9062,-67.94868 -10.7806,-135.97457 -2.4488,-203.75748 2.6899,-106.32019 3.1998,-212.84133 1.8414,-319.1154 -2.8233,-21.02564 -1.5208,-57.02709 -32.9689,-36.31334 -24.114,3.65679 -10.2871,81.90577 -34.1617,37.48425 -18.8716,-36.37691 -70.2707,-20.13279 -103.6849,-32.77346 -44.3388,-24.95092 -2.0098,52.1479 -21.1764,39.92273 -23.8335,-20.64428 -19.0591,-45.50219 -73.6631,-46.89361 -27.089,-0.69028 -59.4924,-5.54819 -60.5536,35.05801 -0.4365,16.70291 -9.2297,66.82868 -19.2777,26.11976 -5.0353,-20.40014 5.5636,-68.21026 -23.5623,-64.03841 -14.1301,0.989 -28.2614,1.97885 -42.3908,2.96731 z m 51.5957,4.23828 c 7.7954,24.86454 1.9157,66.49711 22.2481,80.68359 21.5287,-26.43314 4.7218,-79.4478 54.5203,-77.6082 33.838,1.25001 59.2614,-3.17413 74.1044,30.04342 21.8018,35.38706 34.8921,-3.75706 22.5198,-26.80045 36.4749,12.51879 89.0883,-0.78236 113.4007,31.20339 8.5152,16.02315 26.2563,39.88206 27.0023,5.9523 -0.1556,-21.06141 16.5676,-56.62837 35.3582,-38.89651 10.8745,58.48181 3.0846,118.3676 5.2308,177.496 -0.149,76.88937 -0.3578,153.91577 -5.9823,230.54669 1.5109,68.11548 9.4152,136.19316 3.7583,204.27198 1.3496,62.18661 5.0285,124.4207 -0.4542,186.50823 -0.8698,41.53241 0.2006,83.07917 1.7232,124.58397 -30.2812,-5.9799 -84.1681,10.6246 -99.2589,-9.8874 -4.3752,-15.2416 13.5218,-72.35717 -8.8616,-59.6091 -27.7938,23.6886 -45.7939,69.0828 -84.5829,73.6287 -45.2951,1.4532 -90.5999,2.5831 -135.902,3.7916 -15.8198,-18.21 -32.7501,-73.9463 -48.7384,-69.0895 -6.6953,23.6763 15.6072,71.8159 -18.633,72.1926 -23.9776,9.04 -42.0401,7.5473 -37.325,-22.4639 -7.5841,-79.248 -9.2278,-159.05942 -2.5943,-238.40395 1.1482,-93.36006 -6.1442,-186.63347 -5.057,-279.96573 -6.0887,-54.2989 -18.1307,-108.23571 -13.7812,-163.26077 0.6062,-76.5465 -0.2715,-153.09324 -0.3282,-229.63962 33.282,-1.16849 70.9364,-7.26923 101.6329,-5.27734 z"/>
	</g>
</svg>
