<svg viewBox="0 0 406 283" xmlns="http://www.w3.org/2000/svg">
	<g id="ivy5" transform="matrix( -.4 .92 .92 .4  -214  -773)">
		<g id="stemA">
			<g id="stemA_leafB5">
				<path id="stemA_leafB5_mid" style="fill:#57b847" 
				d="m648 528 c -0.86 2.4 -4.1 2.4 -5 0.1 -2.1 -3.3 -5.7 -5.3 -9 -7.3 -1.8 -1.2 -4.9 -3.2 -5.5 0.26 -2 4.1 -3.9 8.7 -3.2 13 0.88 1.9 0.15 5.4 -2.6 4.3 -3.7 -1.3 -7.5 0.58 -10 2.9 -2.5 1.2 1.1 3.3 1.8 4.9 3.3 3.9 7.4 8 13 8.5 4 0 8 -0.79 12 0.17 4.1 0.88 7.8 3.6 10 7.2 2.1 2.3 3.8 -1.6 1.7 -2.9 -2.8 -4.2 -2.1 -9.9 0.75 -14 2.2 -3.3 5.8 -5.7 6.8 -9.8 1.1 -3.9 0.8 -7.9 0.63 -12 -3.8 0.5 -8.1 1.1 -11 4.2z"/>
    
				<path id="stemA_leafB5_dark" style="fill:#0bab4b"
				d="m618 541c0.7 -2.6 2.4 -0.041 4 0.23 2.7 0.67 5.7 0.44 8.3 1.5 5.7 1.9 11 6 14 11 0.65 1.2 2.4 2.6 2.3 3.7 -2.2 -0.27 -4.3 -2.1 -6.7 -2.2 -4.8 -0.9 -9.9 0.91 -14 -1.2 -5.1 -2.2 -9.1 -6.5 -12 -11 1.2 -1.4 3.1 -2.2 5 -2.1zm35 -14c -2 -0.93 -1.9 1.2 -2.7 2.4 -1.6 2.2 -3.8 3.9 -5 6.5 -2.7 5.1 -2.2 11 0.33 17 0.77 1.2 1.2 3.5 2.4 3.9 0.53 -2.3 0.15 -4.9 1.4 -7.1 1.8 -4.3 6 -7.2 7.3 -12 1.4 -4 1.4 -8.4 1.1 -13 -1.8 0.21 -3.5 0.9 -4.8 2.1z"/>
   
				<path id="stemA_leafB5_lightmid" style="fill:#81c241" 
				d="m643 530c -0.44 -1 -1.6 -1.4 -2.5 -1.7 -0.56 -0.94 -0.79 -2.1 -1.7 -2.9 -0.82 -0.86 -2 -1.2 -3.1 -1.5 -0.61 -0.88 -1.1 -2 -2.2 -2.3 -0.76 -0.29 -1.5 -0.65 -2.2 -0.97 0.78 2.4 1.5 4.9 2.4 7.3 1.7 4.9 3.8 9.6 6 14 0.91 1.7 1.8 3.5 2.7 5.2 0.17 0.6 0.57 0.76 0.34 0.033 -1.3 -4 -1.3 -8.4 0.16 -12 0.47 -1.6 1.2 -3.6 0.24 -5.2z" />
    
				<path id="stemA_leafB5_light" style="fill:#98c93c"  
				d="m640 552 c 2.3 1.2 4.1 3.2 6.3 4.6 1.5 -0.019 -0.33 -2 -0.94 -2.4 -3.2 -2.9 -7.1 -5.1 -11 -6.4 -4.2 -1.3 -8.7 -1.2 -13 -3 -1.9 -0.84 -3.5 -2.2 -4.7 -3.9 1.8 3.4 5.4 5.3 9 6.1 4.1 0.89 8.2 1.7 12 3.7 0.79 0.39 1.6 0.82 2.3 1.3 z m 5.9 -3.3c0.1 2.6 0.52 5.2 1.8 7.4 1.5 1.3 1 -1.7 0.42 -2.3 -0.82 -2.7 -1.1 -5.5 -0.61 -8.3 0.4 -3.6 2.6 -6.7 4.8 -9.5 1.7 -2.3 3.4 -5.1 2.4 -8.1 0 0.46 0.11 2.5 -0.44 3.4 -1.5 3.9 -5.4 6 -6.9 9.9 -1 2.3 -1.6 4.9 -1.5 7.4z" />
			</g>
  
			<g id="stemA_leafB3">
				<path id="stemA_leafB3_mid" style="fill:#57b847" 
				d="m657 659c -2.8 3.5 -5.1 -1.2 -4.7 -3.9 -1 -6.1 -4.2 -12 -7.4 -17 -2.5 -1 -3.9 3.6 -5.6 5.1 -2.8 4.1 -5.5 8.6 -6 14 -0.44 3.2 -3.7 2.5 -5 0.25 -3.1 -2.5 -7.4 -1.4 -11 -0.25 1.4 7.2 2.1 15 7 21 3 3.5 8 4.3 11 7.7 4.4 4.2 6.7 10 6.8 16 0.62 4 4.3 0.65 2.9 -1.9 -0.55 -7.1 2.7 -15 9 -18 3.4 -1.8 6.9 -3.8 8.7 -7.4 2.6 -4.9 4.2 -10 5.5 -16 -3.6 -1.3 -8 -2.7 -11 0z" />
				
				<path id="stemA_leafB3_dark" style="fill:#0bab4b"
				d="m624 658c0.85 -1.5 2.2 -0.96 2.4 0.6 1.7 3.2 5.4 4.4 7.5 7.3 4.9 6.1 7.4 14 7.9 22 0.052 2 1.1 4.8 0.45 6.4 -1.3 -1.2 -1.7 -3.1 -2.9 -4.5 -2.4 -3.6 -6.1 -5.8 -9.6 -8 -4.4 -2.9 -6.9 -7.8 -8.6 -13 -1.2 -3.6 -1.9 -7.3 -2.5 -11 1.6 -1.1 3.7 -0.98 5.3 0.1zm38 1.4c -1.7 -2.6 -2.3 1.1 -3.8 2 -2.2 1.7 -4.8 2.7 -6.7 4.9 -4.8 5 -6.7 12 -7.3 19 -0.25 2.8 -0.29 5.7 -0.11 8.5 1.5 -0.78 1.3 -3.2 2.4 -4.5 2.1 -4 6 -6.3 9.6 -8.7 4.9 -3.6 7.2 -9.5 9.2 -15 0.29 -2 2.3 -4.8 1.2 -6.3 -1.4 -0.64 -3.1 -0.55 -4.5 0.2z" />
				
				<path id="stemA_leafB3_lightmid" style="fill:#81c241" 
				d="m651 658c0.035 -1.5 -0.91 -2.6 -1.7 -3.7 0.089 -1.6 0.18 -3.2 -0.35 -4.7 -0.27 -1.5 -1.5 -2.4 -2.2 -3.6 0.073 -1.5 -0.37 -3 -1.3 -4.2 -0.47 -0.63 -0.93 -1.3 -1.4 -1.9 -0.39 4.9 -0.78 9.9 -1.1 15 -0.15 5.8 -0.42 12 -0.43 17 0.077 2.8 0.16 5.6 0.16 8.4 0.62 -1.3 0.47 -2.9 0.9 -4.3 0.7 -3.6 1.9 -7.1 4 -10 1.6 -2.4 3.7 -4.9 3.5 -8z" />
    
				<path id="stemA_leafB3_light" style="fill:#98c93c"
				d="m639 684c1.4 3 2.3 6.1 3.4 9.2 1.4 1.7 0.93 -2 0.49 -2.7 -1.7 -5.6 -3.8 -11 -7.7 -16 -2 -2.3 -4.3 -4.1 -6.4 -6.3 -3 -2.6 -5 -6.3 -5.7 -10 -0.018 1.2 0.6 3.9 1.3 5.5 1.9 5.1 6.5 8.4 9.9 13 1.9 2.3 3.4 4.9 4.6 7.7zm6.7 -0.1c -1.2 3.1 -1.7 6.3 -1.7 9.6 -0.38 1.2 1.2 2.4 1.2 0.58 0.38 -3.3 0.7 -6.6 2.1 -9.6 1.6 -4.4 4.4 -8.4 8.3 -11 3.1 -2.1 6.1 -4.8 7.1 -8.5 0.29 -0.82 0.6 -3 0.12 -1 -0.91 3.6 -3.8 6.3 -7 7.9 -3.2 1.9 -6.3 4.2 -8 7.6 -0.83 1.4 -1.5 2.9 -2.1 4.5z"/>
			</g>
   
			<g id="stemA_leafB1">
				<path id="stemA_leafB1_mid" style="fill:#57b847"  
				d="m570 762c -0.4 1.8 -2.3 3.2 -4 1.8 -1.4 -1.3 -2.9 -2.7 -4.7 -3.4 -3.3 -1.5 -6.9 -2.6 -11 -3.2 -1.8 1.1 -1.5 3.9 -2 5.8 -0.58 3.7 -1 7.8 0.84 11 0.99 1.9 -0.83 3.8 -2.8 3.3 -4.2 -0.053 -7.4 3.2 -10 6.2 4.1 3.4 8.3 7.3 14 8.1 4.6 0.7 8.8 -2.2 13 -2 4.3 -0.27 9 1.3 12 4.9 1.9 2.3 4.2 -1.3 1.8 -2.6 -3.2 -3.6 -3.5 -9.1 -1.5 -13 1.6 -3.9 5 -7.1 5.2 -11 0.34 -4.1 -0.68 -8.1 -1.8 -12 -3.5 1.5 -7.4 3 -9.3 6.6z" />
    
				<path id="stemA_leafB1_dark" style="fill:#0bab4b" 
				d="m542 780c0.14 -2.5 2.1 -0.78 3.6 -0.73 2.7 0.12 5.3 -0.84 8.1 -0.43 5.6 0.56 11 3.1 15 7.4 0.99 1.3 3.3 2.5 3.4 3.8 -2.1 -0.06 -4.3 -1.3 -6.5 -1.1 -5.2 -0.19 -10 2.7 -15 1.2 -4.9 -1.1 -9 -4.1 -13 -7.4 1 -1.5 2.7 -2.6 4.5 -2.9zm32 -21c -2.1 -0.56 -1.7 1.6 -2.2 2.9 -1.2 2.6 -3.1 4.9 -3.7 7.8 -1.5 5.4 0.22 11 3.3 16 0.83 0.99 1.6 3 2.7 3.2 0.26 -2.2 -0.52 -4.8 0.43 -7.1 1.4 -4.8 5.3 -8.7 5.4 -14 0.21 -3.9 -0.25 -7.8 -1.5 -12 -1.8 0.29 -3.4 1.3 -4.4 2.8z" />
    
				<path id="stemA_leafB1_lightmid" style="fill:#81c241" 
				d="m565 765c -0.63 -0.82 -1.7 -1.1 -2.7 -1 -0.83 -0.57 -1.1 -1.8 -2.2 -2.3 -0.97 -0.67 -2.2 -0.88 -3.3 -0.81 -0.85 -0.39 -1.2 -1.6 -2.3 -1.6 -1 -0.2 -2 -0.35 -3 -0.48 2.3 3.8 4.5 7.6 7 11 1.8 2.6 3.5 5.2 5.4 7.8 1.2 1.6 2.4 3.2 3.6 4.8 -0.13 -1.1 -0.91 -2 -1.2 -3 -0.98 -2.6 -1.4 -5.4 -1 -8.2 0.15 -1.3 0.38 -2.5 0.5 -3.8 0.13 -0.93 -0.17 -1.9 -0.78 -2.6z" />
    
				<path id="stemA_leafB1_light" style="fill:#98c93c" 
				d="m565 787c2.3 0.87 4.3 2.3 6.5 3.3 1.7 0.22 0.17 -1.7 -0.67 -1.9 -3.1 -1.8 -6.3 -3.5 -9.9 -4.1 -3.7 -0.78 -7.5 -0.29 -11 -0.17 -2 0.14 -3.9 -0.31 -5.8 -0.95 -0.85 -0.16 -2.9 -1.7 -2.8 -1.7 2.6 2.7 6.4 3.7 10 3.7 3.5 0.096 7.1 -0.16 11 0.74 1.1 0.27 2.2 0.63 3.3 1.1zm5.4 -4.1c0.32 2.4 1.2 4.8 2.6 6.8 1.3 1.6 1.5 -1.1 0.54 -1.8 -2.6 -5.1 -2.6 -11 0.21 -16 1.5 -2.8 3.2 -6 2.4 -9.3 -0.24 -0.88 -0.74 -1.8 -0.27 -0.35 0.54 3.4 -1.6 6.4 -3.3 9.2 -2.2 3.5 -2.8 7.8 -2.2 12z"/>
			</g>
			
			<path id="stemA_stems3" style="fill:#98c93c"
			d="m688 595c4.3 3.7 2.2 21 7.2 18 0.56 -20 -14 -38 -32 -45 -8.7 -1.7 -20 -13 -20 -18 2.8 17 24 19 34 30 4.2 4.1 7.7 9 10 14zm12 9.6c -2 3.6 -12 21 -2.3 11 12 -18 15 -41 8.1 -61 3.4 17 1.1 34 -5.8 50z"/>
   
			<path id="stemA_stems2" style="fill:#98c93c" 
			d="m 648,719 c -2.2,2.2 -4.4,4.8 -4.9,7.9 1.5,1.9 3.3,-1.5 4.5,-2.4 5.8,-6.9 14,-11 22,-15 4.3,-2.3 9.7,-4.1 14,-1.7 3.3,1.4 4.6,6.2 2,8.9 -2.3,2.4 -6.1,0.18 -7.3,-2.4 -1.5,-3.3 0.29,-7.2 2.9,-9.5 3.6,-3.2 9.3,-5.3 14,-2.7 1.8,1.1 3.5,3.7 2.1,5.8 -2.5,1.1 -2.5,-3.3 -2.3,-4.9 0.74,-6.9 5.3,-13 12,-16 -7.7,3 -13,11 -13,19 -0.24,2.8 3.7,5.1 5.3,2.3 2,-3.5 -0.83,-7.7 -4.2,-9.1 -5.3,-2.4 -12,-0.17 -16,3.6 -3.4,3 -5.5,8.3 -3.2,13 1.9,3.8 6.9,6.4 11,4.1 4.9,-2.8 4.9,-11 0.48,-14 -3.3,-3 -8.3,-3.6 -12,-2.6 -9.62343,3.47363 -20,8.47 -27.38,15.7 z m -9,5 c -2.1,3.6 -4.3,21 1.9,11 6,-20 6.4,-42 -1.2,-62 -1.1,6.7 3.1,23 1.4,33 -0.26,6 -0.93,12 -2.1,18 z m 26,-31 c -2.5,3.7 -17,15 -9.1,16 15,-16 30,-31 47,-45 5.2,-5.2 19,-13 19,-17 -21,12 -40,28 -57,45 z" />
   
			<path id="stemA_stems1" style="fill:#98c93c" 
			d="m586 814c0.54 5 6.8 22 5.4 7.3 -3.6 -19 -18 -33 -32 -45 9.9 12 21 23 26 38zm8.4 -14c -0.77 4.2 -5.7 24 2.1 12 8.1 -24 -5.9 -48 -6.1 -72 -4.1 6.4 -0.033 26 2.1 36 1.4 7.8 2.4 16 1.9 24zm -11 48c0.65 3.7 0.99 19 5.5 8.8 2.6 -19 -20 -33 -37 -26 -5.6 1 -13 7.6 -2.9 3.4 13 -4.3 29 -0.13 34 14z" />
  
			<path id="stemA_stemLight" style="fill:#98c93c" 
			d="m583 852c -1.4 28 5.3 60 28 78 13 5 -9.8 -15 -10 -20 -20 -35 -14 -79 2.4 -114 26 -54 73 -98 87 -157 6.9 -28 6.5 -61 -11 -86 16 29 15 64 4.3 95 -21 64 -78 109 -96 175 -2.6 9.7 -4.2 20 -4.8 30z" />
  
			<path id="stemA_stemDark" style="fill:#5fae46" 
			d="m680 554c21 35 14 78 -2 113 -25 55 -73 98 -89 158 -8.8 35 -5.4 78 23 103 10 7.4 -6.8 -11 -8.3 -14 -22 -34 -18 -78 -2.7 -114 25 -57 75 -101 90 -163 6.9 -28 6.5 -61 -11 -86z" />
   
			<g id="stemA_leafA1">
				<path id="stemA_leafA1_dark"  style="fill:#00763d" 
				d="m508 819c3.6 1.7 5.2 7 1.2 9.4 -6.1 3.4 -8.8 10 -11 17 -0.55 3.8 -4.8 10 0.84 12 6.5 3 13 6.4 20 7.3 3.7 -0.94 9.1 0.23 8.7 5.1 -1.2 8.9 3.6 17 7.9 24 6.1 -6.4 13 -14 13 -23 0.6 -8.7 -0.47 -18 3.9 -26 2.5 -4.7 7 -8.4 12 -9 4.3 -2.3 0.04 -7.9 -3.9 -5.6 -9.7 0.27 -17 -7.1 -23 -14 -4 -5.8 -7.6 -13 -14 -15 -7.9 -3.6 -17 -3.3 -25 -2.7 1 7.6 2.5 16 8.7 21z" />
    
				<path id="stemA_leafA1_mid"  style="fill:#5fae46" 
				d="m512 831c -2.9 1.6 -1.9 5.9 -5.8 6.4 -4 2.1 -1.8 7.5 -5.4 9.5 -1.3 2.2 -1.3 4.9 -1.8 7.3 14 -6.8 28 -12 43 -16 -3.5 -0.8 -7.3 -0.34 -11 -1.5 -5 -1.1 -9.3 -3.9 -14 -5.9 -1.8 -0.6 -3.9 -0.71 -5.6 0.2zm20 50c -4.1 -2.3 0.066 -6.3 -0.64 -9.8 -0.33 -7.7 0.39 -16 4.9 -22 3.6 -5.7 9.6 -9.6 16 -11 2 -1.1 7.2 -2.4 4.1 1.3 -6.3 6.8 -6.5 17 -7.1 25 -0.68 10 -6.1 20 -14 27 -1.9 -3.1 -3.3 -6.5 -3.7 -10zm -27 -72c -2.1 4 2.4 3.9 4.7 5.6 4.2 3.3 7.3 7.9 12 11 8 5.9 18 8.8 28 7.3 1.9 -0.52 9.5 0.48 6.1 -2.6 -9.5 -3.8 -15 -13 -21 -21 -7 -8.4 -19 -11 -29 -11 -2.8 -0.24 -6.1 -0.018 -4.3 3.6 0.58 2.4 1.8 4.7 3.4 6.6z" />
    
				<path id="stemA_leafA1_light"  style="fill:#98c93c"
				d="m514 848c1.2 -0.33 6.3 -1.5 2.9 -2.2 -4.9 0.38 -8.5 4.2 -11 8.1 -0.58 1.2 -4.4 4.5 -1.3 2.2 3.2 -2.7 5.3 -6.6 9.4 -8.1zm14 -5.1c2.6 -1 5.5 -0.96 8.1 -2 -0.73 -1.9 -4.6 0.068 -6.5 0.14 -6 1.4 -12 4.5 -15 10 -1.3 2.5 -1.8 5.5 -3.7 7.7 -0.96 1 -3.2 1.9 -0.67 0.8 3.8 -2.6 3.9 -7.9 7.4 -11 2.7 -2.9 6.5 -4.3 9.9 -5.9zm7.1 -0.5c2.1 -1.9 5.6 -2.1 7.3 -3.8 -2.3 -1 -4.9 0.96 -7.1 2 -4.6 2.5 -7.2 7.2 -9 12 -1.7 3.9 -3.6 8.5 -7.9 10 5.4 -1.6 7.4 -7.4 9.7 -12 1.6 -3.3 3.8 -6.4 6.9 -8.5zm14 1.6c2.7 -2.5 6.3 -3.6 9 -6.1 0.77 -3.4 -4.5 -0.39 -5.8 0.54 -5.9 3.4 -11 8.5 -13 15 -2.5 9.3 -0.71 19 -1.8 29 -0.24 1.5 -0.27 4.7 0.56 1.5 2.9 -10 0.13 -22 4.5 -31 1.5 -3.2 3.8 -6.1 6.6 -8.3zm -3 -12c3.4 0.69 7.1 1.8 11 0.92 3 -2.1 -2.8 -2.7 -4.4 -2.6 -9.9 -1.1 -19 -6 -26 -13 -5.1 -4.2 -10 -8.9 -17 -10 -2.3 0.21 3.5 2 4.4 3.1 9 5.8 16 15 26 19 2.3 0.98 4.6 1.9 7 2.4z" />
				
				<path id="stemA_leafA1_midCover" style="fill:#5fae46"
				d="m537 885c2.8 -11 -0.24 -23 4 -33 3.1 -7.2 10 -11 17 -15 -2.2 -1.8 -5.4 1.6 -7.6 2.6 -5.4 3.4 -10 8.5 -11 15 -2.2 8.7 -0.73 18 -1.5 27 -0.073 0.86 -0.42 4.8 -0.27 4.1zm -30 -77c11 3.2 18 14 28 19 6.6 3.7 14 5.7 22 5.5 -0.88 -2.6 -5 -1.2 -7.2 -2.1 -9.5 -1.4 -18 -6.6 -25 -13 -4.9 -4 -10 -8.4 -16 -9.6 0.084 -0.18 -1.6 -0.14 -0.9 0.3z" />
			</g>
			
			<g id="stemA_leafA2">
				<path id="stemA_leafA2_dark" style="fill:#00763d" 
				d="m606 712c -3.1 4.6 -7.6 0.082 -7.4 -4 -2.4 -7.9 -8.1 -14 -13 -20 -3.7 -0.78 -5.3 5.4 -7.7 7.8 -3.1 5.2 -6.5 11 -6.3 17 -0.25 5.8 -5.6 3.6 -8.4 1.2 -4.9 -2 -10 -0.071 -15 1.8 2.9 9 5.4 19 13 25 5 3.9 12 4.2 17 8.1 6.4 4.1 11 11 12 19 1.5 4.6 6 -0.085 3.9 -3.2 -1.1 -8.4 2.9 -17 9.8 -22 4.6 -3.4 10 -5.7 13 -11 3.4 -6.5 4.9 -14 6.2 -21 -5.4 -1.3 -12 -2.5 -16 1.4z" />
				
				<path id="stemA_leafA2_mid" style="fill:#5fae46" 
				d="m598 712c -0.49 -3.1 -4.1 -4.1 -3.3 -7.7 -0.061 -4.1 -5 -5.1 -5 -9 -1 -2 -2.9 -3.6 -4.6 -5 0.37 9.7 0.59 19 1.6 29 0.43 7.4 1.3 15 2.1 22 0.72 -3.7 0.69 -7.6 1.9 -11 1.1 -4.4 3.6 -8.1 5.9 -12 0.96 -1.9 1.6 -4.1 1.3 -6.3zm -39 3.5c2.8 -4.2 4 3.3 7.4 3.6 5.1 2.2 9.7 5.5 13 9.9 5 6 7.9 13 9.4 21 0.076 2.3 2.7 6.8 0.94 7.8 -2.6 -3.2 -5.2 -6.5 -8.7 -8.7 -5.7 -4 -13 -4.9 -18 -10 -6.1 -6.4 -9.2 -15 -12 -23 2.3 -1.3 5.1 -1.4 7.5 -0.3zm56 -3.7c -3.4 -3.4 -4 4 -7.4 4.6 -6.8 3.8 -12 11 -13 18 -2.1 7.6 -1.8 16 -0.66 23 2.6 -2.3 2.7 -7.3 5.6 -9.9 4.8 -6 13 -8.6 17 -16 3.7 -6.4 5.8 -14 7 -21 -2.5 -1 -5.4 -0.78 -7.7 0.5z"/>
				
				<path id="stemA_leafA2_light" style="fill:#98c93c" 
				d="m585 708c0.53 1.2 -0.85 5.1 0.79 4.8 1 -5.5 -0.64 -11 -3 -16 -0.7 -1.3 -1.6 -5.9 -0.94 -1.9 0.78 4.4 3.2 8.5 3.2 13zm1.4 16c0.16 3.1 0.023 6.2 0.55 9.2 1.5 -0.89 0.17 -5 0.54 -7 -0.078 -8 -1.6 -16 -6.7 -23 -1.4 -1.9 -2.5 -4.2 -2.4 -6.7 -0.77 4.4 2.8 7.7 4.5 11 2.5 4.9 3.3 10 3.5 16zm -0.6 7.8c1.1 2.8 1.3 5.8 2 8.6 1.6 -0.89 -0.1 -5 -0.33 -6.9 -1.5 -6 -4.9 -11 -8.8 -16 -2.3 -3.2 -4.5 -6.8 -4.4 -11 -0.27 6.5 4.1 12 7.6 17 1.7 2.6 3.2 5.4 4 8.4zm -2 15c1.6 3.5 2.6 7.2 4.3 11 2.7 2.4 0.87 -3.9 0.21 -5 -2.7 -7.2 -5.5 -15 -12 -20 -6.4 -5 -15 -6.9 -21 -12 -2.7 -1.4 2 3.4 3.2 4.1 6.4 5.3 15 7.3 20 14 2 2.4 3.4 5.1 4.6 8zm8.6 -1.4c -0.73 3.6 -1.4 7.5 -0.69 11 1.6 3.3 2.1 -2.6 1.8 -3.9 0.35 -9.3 4.3 -18 11 -25 3.8 -4.2 8.4 -8.1 10 -14 -1.4 0.48 -3.2 4.3 -5.1 5.7 -5 5 -11 9.4 -14 16 -1.4 3 -2.6 6.2 -3.3 9.4z" />
    
				<path id="stemA_leafA2_midCover" style="fill:#5fae46" 
				d="m555 720c5.3 6.2 14 8.4 20 13 5.8 4 8.8 11 11 17 1.1 2.6 1.8 5.3 2.9 7.8 1.1 -2 -0.73 -4.7 -1.3 -6.8 -2.3 -6.1 -4.7 -12 -9.5 -17 -6.2 -6.1 -15 -7.8 -22 -13 -0.22 -0.096 -2.7 -2.1 -1.4 -0.67zm60 -5.9c -2.7 5.3 -7.2 9.3 -11 14 -6.8 6.9 -11 16 -11 26 0.022 1.3 -0.43 3.4 0.34 4.2 1.4 -2.1 0.51 -5 1 -7.4 0.95 -8.2 4.6 -16 10 -22 3.9 -4.3 8.6 -8.3 10 -14 0.058 -0.021 -0.024 -0.69 -0.21 -0.3z" />
			</g>
  
			<g id="stemA_leafA3">
				<path id="stemA_leafA3_dark" style="fill:#00763d" 
				d="m746 650c -2.9 0.22 -5.5 -2.4 -3.7 -5.2 1.5 -2.1 3.2 -4 4 -6.6 2.3 -6.1 3.1 -13 2.9 -19 -2.2 -1.8 -5.6 -0.31 -8.4 -0.4 -6.1 0.64 -12 1.5 -17 5.3 -2.3 1.7 -5.8 0.19 -5.5 -2.9 -0.56 -6.1 -6.1 -9.9 -11 -13 -1.8 0.55 -2.8 4.3 -4.1 6.1 -3.2 6 -6.3 13 -4.3 20 1.7 5.5 3.9 11 3.2 17 -0.54 5.7 -3.8 11 -8.3 14 -2.9 3.4 2.6 5.3 4.4 2.1 6.8 -4.9 16 -4.9 24 -1.6 4.5 2 9 4.8 14 4.4 8 -0.33 15 -4.4 22 -8.1 -2.5 -5.1 -5.8 -11 -12 -12z" />
    
				<path id="stemA_leafA3_mid" style="fill:#5fae46" 
				d="m741 643c2.1 -2.2 0.55 -5.5 3.5 -7.2 2.8 -2.7 0.14 -6.8 2.8 -9.3 0.83 -2 0.21 -4.3 0.29 -6.4 -7 6.9 -14 14 -21 20 -4.1 3.8 -8.3 7.4 -13 11 3.2 -1.2 6.3 -3.2 9.7 -4.1 4 -1.4 8.2 -1.6 12 -2 2 -0.25 4 -1 5.3 -2.5zm -28 -28c3.5 -0.3 1.7 2.9 1.9 5 0.5 4.1 2.3 7.9 2.2 12 0.13 9.6 -5.2 18 -12 25 -1.4 0.82 -3.5 4.5 -4.7 3.1 0.92 -3 2.3 -6 2.2 -9.3 0.39 -7.4 -4.1 -14 -2.8 -22 1.1 -7 4.2 -13 7.9 -19 2.4 1.1 4.4 3.2 5.3 5.7zm38 41c0.73 -3.8 -3.2 -1.6 -5.4 -2.1 -3.9 -0.72 -7.6 -2.8 -12 -2.9 -8.8 -0.68 -18 2.2 -25 7.4 -2 1.7 -5.7 3 -6.4 5 2.8 0.53 5.9 -0.86 8.9 -0.17 7.1 0.52 13 5.2 20 5.8 8.7 0.37 17 -3.2 24 -7.4 -0.76 -2.6 -2.8 -4.7 -5.3 -5.6z" />
				
				<path id="stemA_leafA3_light" style="fill:#98c93c" 
				d="m736 631c -0.46 1.1 -4.3 2.3 -2.8 3.3 4 -1.9 6.6 -5.9 8.1 -9.9 0.68 -1.7 1.4 -3.4 2.5 -4.9 -3.1 3.5 -4.2 8.4 -7.8 12zm -10 9.9c -1.9 1.8 -4.2 3.2 -6.2 4.9 -0.85 2 2.6 -0.69 3.2 -1.2 4.9 -3.8 9.8 -8.2 12 -14 1.8 -3.7 0.7 -8.6 4.1 -11 -1.4 0.75 -2.7 3.4 -3 5.4 -0.63 3.2 -1.7 6.4 -3.8 9 -1.9 2.7 -4.3 5.1 -6.7 7.3zm -6 3.7c -1.5 2.3 -3.6 3.9 -5.5 5.9 1.1 1.1 3.4 -2.1 4.5 -3 2.6 -2.8 4.6 -6.2 5.3 -10 1.1 -4.9 1.3 -10 4.6 -14 0.73 -1.1 1.4 -1.5 0.11 -0.41 -3.7 3.6 -4.4 9 -5.6 14 -0.67 3 -1.8 5.8 -3.6 8.2zm -12 5.8c -1.6 3.1 -4.2 5.4 -6 8.4 -0.84 3 2.9 -0.071 3.5 -1.2 4.8 -5.7 9 -13 8.7 -20 -0.14 -7.6 -4.2 -14 -4.4 -22 -0.74 -2.6 -0.87 3 -0.76 4.1 0.47 7.3 3.9 14 2.7 22 -0.52 3.3 -2 6.4 -3.7 9.2zm5.7 6.4c -3 1.2 -6.3 2.2 -8.9 4.2 -2.5 1.7 0.43 2.4 1.8 1.1 7.8 -4.3 17 -6.4 26 -4.9 5.8 0.77 12 2 18 0.25 2 -0.96 -2.2 -0.25 -2.9 -0.38 -8.5 0.057 -17 -3.7 -25 -2.4 -2.8 0.47 -5.7 1.1 -8.4 2.1z"/>
   
				<path id="stemA_leafA3_midCover" style="fill:#5fae46"
				d="m708 614c -0.39 6.9 2.5 13 3.4 20 0.78 5.7 -0.94 12 -4 16 -1.9 3.3 -4.5 6.2 -6.9 9.1 2 0.46 3.4 -2.7 4.8 -3.9 4.5 -5.6 8.1 -13 7.3 -20 -0.5 -7.1 -4.1 -14 -4.3 -21 -0.071 -0.12 -0.2 -1.3 -0.29 -0.98zm42 43c -7.8 1.6 -16 -1.2 -23 -1.6 -7.2 -0.32 -14 1.9 -21 5.1 -0.75 0.46 -4.5 2.3 -1.7 1.9 2.7 -1.1 5.2 -2.6 8 -3.5 6.5 -2.5 14 -3 21 -1.8 5.5 0.76 11 1.8 17 0.1 0.14 0.056 1.2 -0.69 0.7 -0.2z" />
			</g>
			
			<g id="stemA_leafB2">
				<path id="stemA_leafB2_mid" style="fill:#57b847"  
				d="m621 792c -2 0.21 -4 -1.5 -3 -3.6 1.8 -3.7 1.4 -8 1.4 -12 0.16 -2.1 -0.074 -5.1 -3 -4.2 -4.4 0.21 -9.1 0.96 -13 3.7 -1.1 1.5 -3.8 3.5 -5.1 1.2 -0.71 -2.2 -1.7 -4.3 -3.7 -5.6 -1.8 -1.1 -4.4 -2.8 -6.2 -2.5 -2.2 5.6 -4.3 12 -2.6 18 1.2 3.8 4.7 6.1 6.6 9.5 2.2 3.5 3.5 7.8 2.7 12 -0.57 1.5 -1.5 4.9 1.3 4.2 1.5 -1 1.2 -3.3 2.4 -4.6 2.2 -3.3 6.3 -4.9 10 -4.8 4.2 -0.018 8.4 1.5 13 -0.023 3.1 -1.1 5.9 -3 8.6 -4.7 -2.8 -2.5 -5.5 -5.6 -9.4 -6.2z" />
   
				<path id="stemA_leafB2_dark" style="fill:#0bab4b"
				d="m594 773c2.5 -0.81 1.5 1.8 1.9 3.3 0.82 2.8 2.8 5.2 3.4 8.1 1.4 5.2 1.2 11 -0.46 16 -0.69 1.7 -0.91 3.6 -1.7 5.3 -1.5 -1.5 -0.96 -4.5 -2.4 -6.3 -1.8 -3.9 -5.4 -6.7 -7 -11 -1.8 -5.3 -0.77 -11 1 -16 0.35 -1.4 0.94 -2.8 2.5 -1.6 1.1 0.54 2.1 1.4 2.7 2.5zm31 22c -0.37 -2.4 -2.7 -0.72 -4.3 -1.3 -3.1 -0.63 -6.4 -1.2 -9.5 -0.24 -4.2 1.1 -7.9 4.1 -10 8 -0.69 1.5 -2.2 3.4 -2 4.8 2.1 -0.79 4 -2.7 6.5 -2.8 5 -0.87 10 0.91 15 -0.93 3.1 -1 5.9 -2.6 8.6 -4.4 -1.1 -1.4 -2.6 -2.6 -4.4 -3.1z"/>
    
				<path id="stemA_leafB2_lightmid" style="fill:#81c241"
				d="m616 789c0.54 -0.89 0.25 -1.9 0 -2.8 0.46 -0.93 1.3 -1.7 1.4 -2.8 0.26 -1.1 0.031 -2.2 -0.36 -3.2 0.27 -0.93 1.1 -1.7 0.78 -2.9 -0.02 -0.9 -0.15 -1.8 -0.23 -2.7 -1.3 1.5 -2.8 2.9 -4 4.5 -1.4 1.8 -2.9 3.5 -4.1 5.4 -1.1 1.5 -2.1 3 -3.1 4.6 -1.2 1.8 -2.4 3.7 -3.3 5.6 -0.62 1.1 -1.2 2.3 -1.7 3.5 0.94 -0.48 1.4 -1.6 2.2 -2.3 2.3 -2.3 5.4 -3.9 8.7 -4.5 1.2 -0.15 2.2 -0.87 3.1 -1.7 0.22 -0.22 0.42 -0.47 0.57 -0.74z" />
		
				<path id="stemA_leafB2_light" style="fill:#98c93c" 
				d="m596 798c0.29 2.5 -0.036 4.9 0.15 7.4 0.68 1.7 1.6 -0.84 1.4 -1.7 0.3 -4.7 -0.28 -9.4 -1.8 -14 -1.4 -3.5 -3.4 -6.8 -4.2 -10 -0.47 -2.2 -0.25 -4.5 0.62 -6.6 -2 3.6 -1.6 8.1 -0.076 12 1.4 3.8 3.2 7.4 3.7 11 0.098 0.64 0.17 1.3 0.23 1.9zm6.1 2.9c -1.9 1.3 -3.5 3.1 -4.7 5 -1 1.4 0.95 1.8 1.4 0.44 2.1 -3.4 5.6 -5.8 9.4 -6.8 3.3 -0.86 6.6 -0.24 9.9 -0.11 2 -0.04 4.4 -0.37 5.8 -2 -2.4 1.9 -5.6 1.4 -8.4 0.94 -4.6 -0.95 -9.6 -0.51 -13 2.5z" />
			</g>
			
			<g id="stemA_leafB4">
				<path id="stemA_leafB4_mid" style="fill:#57b847"
				d="m718 550c -2 2.4 -5 0.55 -5.2 -2.1 -2.2 -3.6 -5.9 -6.1 -9.5 -8.3 -2.5 -0.3 -3.8 3.1 -5.5 4.6 -1.7 2.2 -3.5 4.8 -3.5 7.7 -0.78 3.3 -4.2 1.1 -6.4 0.84 -3.2 -0.35 -6.3 0.65 -9.3 1.7 2.3 4.6 5.1 9.8 10 11 4.3 1.1 9 1.6 13 4.4 2.3 1.7 3.8 4.3 3.8 7.2 1 2.5 4.1 0.17 2.8 -1.9 -0.081 -4.9 3.9 -8.5 7.9 -11 3.2 -1.7 7 -2.7 9.1 -5.9 2.2 -3 3.2 -6.7 3.9 -10 -3.7 -0.59 -7.9 -0.92 -11 1.3z" />
    
				<path id="stemA_leafB4_dark" style="fill:#0bab4b"
				d="m685 554c1.3 -1.7 2.3 0.14 3.5 0.72 2.4 1 5.2 1.2 7.5 2.6 4.5 2.3 7.9 6.7 8.8 12 0.08 0.96 1.6 4.2 -0.31 3.1 -3 -3.8 -8 -4.7 -12 -5.8 -5.8 -1.5 -9.8 -6.6 -12 -12 1.6 -0.72 3.5 -0.89 5.2 -0.5zm38 -4.4c -1.6 -1.3 -2.1 0.69 -3.2 1.5 -2.3 1.6 -5 2.6 -7 4.6 -3.7 3.3 -5.7 8.2 -5.4 13 0.14 0.96 -0.59 4.5 1.1 3 2 -4.3 6.5 -6.3 10 -8.3 5.1 -2.6 8 -8 9.3 -13 0.57 -2.2 -3.5 -1.2 -4.9 -0.62z" />
				
				<path id="stemA_leafB4_lightmid" style="fill:#81c241" 
				d="m712 550c -0.23 -0.92 -1.1 -1.5 -1.9 -1.8 -0.39 -0.83 -0.28 -1.9 -1 -2.7 -0.61 -0.83 -1.5 -1.4 -2.5 -1.7 -0.43 -0.61 -0.46 -1.5 -1.3 -1.9 -0.79 -0.57 -1.7 -0.99 -2.5 -1.5 0.93 7.9 1.9 16 2.8 24 0.4 -0.83 0.31 -1.8 0.63 -2.7 0.68 -2.7 2.1 -5.2 4 -7.3 1 -1.2 2.2 -2.6 1.8 -4.3z" />
				
				<path id="stemA_leafB4_light" style="fill:#98c93c" 
				d="m702 567c1.4 1.5 2.4 3.2 3.5 5 1.4 1.5 1.4 -1.3 0.51 -1.9 -2.3 -4.4 -6.5 -7.7 -11 -9.3 -3.3 -1.4 -7.1 -2.1 -9.5 -5 -0.58 -0.64 -1.2 -2.3 -0.48 -0.59 1.9 3.4 5.8 4.9 9.2 6.4 2.9 1.3 5.8 3 8 5.5zm6.7 -0.7c -0.91 1.8 -1.6 3.9 -1.5 6 0.47 1.8 1.8 -0.47 1.5 -1.4 0.38 -2 1.2 -4 2.4 -5.7 1.8 -2.9 4.6 -5.1 7.6 -6.7 2.5 -1.4 5.2 -3.3 5.9 -6.4 0.12 -1.6 -0.36 1.5 -0.95 1.7 -2.4 3.2 -6.5 4 -9.6 6.3 -2.2 1.6 -4 3.7 -5.2 6.2z" />
			</g>
		</g>
		
		<g id="stemB">
			<path id="stemB_stem1" style="fill:#98c93c"  
			d="m618 842 -6.3 0.3c -0.5 0 -1 0 -1.5 0.1s -1 0.1 -1.5 0.2c -1 0.1 -2 0.3 -3 0.4 -2.1 0.3 -3.6 1.1 -3.5 1.7l0.1 0.7c0.1 0.7 1.8 1 3.8 0.7 1 -0.1 1.9 -0.3 2.9 -0.4 0.5 -0.1 1 -0.1 1.5 -0.2s1 -0.1 1.5 -0.1c2 -0.1 4 -0.2 6.1 -0.3 14 -0.3 26 2.2 35 4.8 2.2 0.7 4.1 1.3 5.9 1.9 1.7 0.6 3.1 1.3 4.3 1.8 2.4 1 3.7 1.5 3.7 1.5s -1.2 -0.7 -3.5 -2c -1.1 -0.6 -2.5 -1.4 -4.1 -2.2 -1.7 -0.7 -3.6 -1.6 -5.7 -2.5 -8.6 -3.3 -21 -6.7 -36 -6.4z" />
   
			<path id="stemB_stems2" style="fill:#98c93c" 
			d="m680 806c -7.7 0.31 -16 0.77 -23 4 -4.3 1 -2.6 5.4 1.3 3.6 9 -2.2 18 -3.5 28 -2.9 22 0.96 45 7.6 68 1.2 7.3 -2.3 15 -5.5 20 -12 -6.3 3.9 -13 7.4 -20 9 -24 5.6 -49 -3.3 -73 -3.2zm -30 7.8c -6.7 1.9 -14 4.2 -19 8.2 -4 1.5 -2.4 6.2 1.5 3.6 9.1 -4.6 19 -8.5 29 -9.6 20 -3.2 42 3.1 58 16 4.3 2.6 8.9 9.2 12 10 -11 -17 -31 -28 -52 -31 -4.8 0.13 -9.7 -0.26 -15 0.11 -5.1 0.38 -10 1.2 -15 2.5zm -20 1.7c -1.4 3.2 -8.9 9.8 -3.7 12 5.3 -3.9 7.6 -11 12 -16 7.5 -9.6 17 -18 26 -26 0.66 -2.6 -6.1 2.3 -7.7 3.2 -10 6.9 -19 16 -27 26z" />
   
			<path id="stemB_stem4" style="fill:#98c93c"  
			d="m764 740c -0.7 1.7 -1.3 3.3 -2 4.9 -0.6 1.6 -1.4 3.1 -2.1 4.7s -0.9 3.1 -0.3 3.4l0.6 0.3c0.6 0.3 1.7 -0.7 2.5 -2.4 0.7 -1.6 1.6 -3.1 2.2 -4.8 0.7 -1.6 1.4 -3.3 2.1 -5 4.4 -12 6.4 -22 7.2 -30 0.2 -2 0.3 -3.8 0.4 -5.4s0.1 -3 0.1 -4.1v -3.5s -0.2 1.2 -0.5 3.4c -0.2 1.1 -0.4 2.4 -0.6 4 -0.3 1.5 -0.6 3.3 -1 5.3 -1.6 7.9 -4.3 18 -8.6 30z" />
			
			<g id="stemB_leafB2">
				<path id="stemB_leafB2_mid" style="fill:#57b847"
				d="m794 710c -1.7 -0.25 -3.7 -1.6 -2.9 -3.6 1.5 -2.6 0.99 -5.6 1.2 -8.4 -0.45 -1.9 1.1 -5.5 -1.5 -6 -4.2 -0.89 -8.9 -1.1 -13 0.92 -1.2 1.2 -3.7 2.5 -4.8 0.53 -0.74 -1.9 -1.3 -4 -2.9 -5.4 -1.8 -1.8 -4 -2.9 -6.3 -3.9 -2.2 4.3 -4.1 9.1 -3.8 14 0.097 3 1.6 5.6 3.6 7.7 2.4 2.6 4.6 5.6 5.9 8.9 0.89 2.6 1.1 5.6 0.089 8.2 -0.084 2.7 3.8 1.6 3.3 -0.73 1.4 -3.7 5.8 -5.2 9.5 -4.8 4.7 0.19 9.3 2.7 14 1.6 2 -0.29 3.9 -1 5.8 -1.6 -2.4 -2.9 -4.8 -6.1 -8.5 -7.4z"/>
    
				<path id="stemB_leafB2_dark" style="fill:#0bab4b" 
				d="m769 688c2.4 -0.46 1.4 1.8 1.7 3.3 0.72 2.7 2.5 5.1 3.1 7.8 1.3 4.7 1.2 9.7 -0.15 14 -0.67 1.3 -0.58 3.6 -1.6 4.2 -1 -1.9 -1.3 -4.3 -2.7 -6.1 -2.2 -3.9 -6.4 -6.8 -7.2 -11 -1 -5 0.42 -10 2.6 -15 0.96 -1.7 3.7 1.5 4.2 2.7zm29 25c -0.52 -2.1 -2.9 -1.1 -4.4 -2 -3.1 -1.4 -6.6 -2.3 -10 -1.6 -3 0.73 -5.8 2.6 -7.4 5.3 -0.69 1.2 -2.1 2.9 -1.8 4.1 2 -0.5 3.8 -2 6 -1.9 4.5 -0.32 8.9 1.7 13 1.3 2.8 -0.16 5.6 -0.78 8.2 -1.7 -1.1 -1.4 -2.4 -2.7 -4 -3.5z"/>
   
				<path id="stemB_leafB2_lightmid" style="fill:#81c241"
				d="m790 706c0.56 -0.75 0.19 -1.7 -0.065 -2.4 0.33 -0.73 1.2 -1.3 1.2 -2.2 0.23 -1 0  -2 -0.34 -3 0.011 -0.71 0.86 -1.2 0.72 -2 0.02 -0.97 -0.19 -1.9 -0.26 -2.9 -1.3 1.1 -2.7 2.2 -3.8 3.4 -1.3 1.3 -2.7 2.6 -3.8 4.1 -1.1 1.2 -2.1 2.5 -3 3.8 -0.56 0.87 -1.2 1.7 -1.8 2.5 -0.85 1.5 -1.8 2.9 -2.6 4.4 0.79 -0.35 1.2 -1.3 2 -1.7 2 -1.6 4.5 -2.5 7.1 -2.6 1.2 -0.076 2.4 -0.042 3.5 -0.61 0.43 -0.2 0.84 -0.47 1.1 -0.84z" />
   
				<path id="stemB_leafB2_light" style="fill:#98c93c" 
				d="m772 711c0.31 2.1 0.18 4.3 0.42 6.4 0.87 1.5 1.5 -1.4 1.1 -2.2 0.059 -2.7 -0.3 -5.4 -1 -8 -0.64 -2.6 -1.8 -5.1 -3 -7.6 -0.89 -2.2 -2 -4.3 -2.2 -6.6 -0.35 -1.9 0.024 -3.9 0.82 -5.7 -2.1 3.1 -1.8 7.2 -0.52 11 0.88 2.5 2 5 3 7.5 0.64 1.8 1.1 3.7 1.3 5.6zm6.1 3c -1.7 1 -3.4 2.3 -4.3 4.2 -0.44 1.9 1.9 0.26 2.2 -0.64 2.6 -3.1 6.8 -4.4 11 -4 3.5 0.28 6.9 2.1 10 1.4 0.88 -0.27 1.3 -0.89 0.17 -0.28 -3.4 0.59 -6.5 -1.3 -9.7 -1.9 -3.1 -0.66 -6.6 -0.36 -9.4 1.3z"/>
			</g>
   
			<g id="stemB_leafB1">
				<path id="stemB_leafB1_mid" style="fill:#57b847"
				d="m724 853c -0.32 -1.8 1.1 -3.9 3.1 -3.1 2 1.1 4.3 1.7 6.5 1.7 3.4 0.026 6.8 -0.28 10 -1.1 0.98 -1.7 -0.2 -3.9 -0.34 -5.8 -0.81 -3.6 -1.8 -7.5 -4.7 -10 -1.3 -1.4 -0.49 -3.7 1.4 -4 4 -1.4 5.9 -5.6 7.4 -9.3 -4.9 -1.7 -10 -3.6 -16 -2.1 -3.8 1.2 -6.5 4.3 -10 5.5 -4.3 1.7 -9.4 1.1 -13 -2 -2.6 -1.3 -3 2.7 -0.62 3.2 4.2 3.1 5.3 8.9 4.3 14 -0.71 3.7 -2.5 7.3 -1.5 11 1 4.5 3.8 8.2 6.5 12 2.8 -2.7 6.1 -5.5 6.6 -9.6z"  />
   
				<path id="stemB_leafB1_dark" style="fill:#0bab4b" 
				d="937 -4.93,0.32 -8.62,4.04 -13.19,5.46 -2.25,1.04 -4.86,0.42 -7.1,0.93 0.22,1.12 2.46,1.7 3.51,2.52 4.5,2.9 10.11,4.12 15.37,2.97 3,-0.52 5.47,-2.4 8.3,-3.43 1.37,-0.46 3.64,0.21 3.1,-2.05 1.50,-1 2.7,-2.5 3.30078,-4.2 -3.68,-1.38 -11.53,-6.24 -11.53,-2.29 z m -23.34,8.44 c 0.22,2.3 1.61,4.58 1.31,7.04 0.03,4.91 -2.52,9.7 -1.14,14.61 1.02,4.25 3.30,8.10 6.01,11.50 1.44,-1.04 2.49,-2.6 3,-4.3 2.32,-0.16 0.97,-2.05 0.98,-3.51 0.1,-2.83 1.18,-5.58 0.83,-8.44 -0.34,-5.66 -3.36,-10.93 -7.7,-14.51 -1.05,-0.69 -2.21,-2.58 -3.29,-2.4 z" />
				
				<path id="stemB_leafB1_lightmid" style="fill:#81c241"
				d="m728 848c0.89 0.62 2 0.39 3 0.1 0.96 0.49 1.8 1.3 3 1.3 1.1 0.2 2.2 -0.01 3.2 -0.55 0.96 0.26 1.9 0.94 3 0.53 0.87 -0.18 1.7 -0.4 2.6 -0.63 -7.6 -5.5 -15 -11 -23 -17 0.33 0.97 1.3 1.6 1.9 2.5 1.9 2.6 3.2 5.6 3.7 8.8 0.29 1.6 0.74 3.3 2.1 4.3l0.16 0.11z" />
    
				<path id="stemB_leafB1_light" style="fill:#98c93c" 
				d="m721 827c -2.4 -0.079 -4.6 -0.9 -7 -1.4 -1.8 0.18 0.31 1.8 1.2 1.8 5.3 1.7 11 1.6 16 -0.69 2.6 -0.95 5.1 -2.4 8 -2.7 1.7 -0.35 3.5 -0.13 5.2 0.32 -3.3 -1.6 -7.2 -0.99 -11 0.27 -4.2 1.5 -8.6 3 -13 2.4zm -4.1 5.4c -0.89 -2 -2.2 -3.7 -3.6 -5.4 -0.43 -0.99 -2.4 -0.95 -1.4 0.32 1.3 1.6 2.5 3.2 3.4 5 2.1 3.9 2.5 8.4 1.6 13 -0.54 3.1 -0.88 6.7 1.3 9.4 0.44 0.44 1.3 1.3 0.38 0.24 -1.7 -2.6 -1.5 -6 -0.64 -8.8 1.1 -4.1 0.97 -8.5 -0.7 -12 -0.12 -0.3 -0.26 -0.6 -0.4 -0.9z" />
			</g>
   
			<g id="stemB_leafA4">
				<path id="stemB_leafA4_dark" style="fill:#00763d" 
				d="m783 821c -2.2 -1.5 -3.4 -5 -0.8 -6.8 4.2 -2.2 5.9 -6.9 7.7 -11 0.82 -2.8 4 -7.2 -0.093 -8.9 -4.5 -2.9 -9.2 -6.3 -15 -6.8 -2.9 1.1 -5.9 -1.6 -5.1 -4.6 1 -6.1 -2.1 -12 -4.9 -17 -5.4 4.4 -11 9.8 -12 17 -0.26 6.7 0.92 14 -2.2 20 -1.5 3.2 -4.3 5.5 -7.5 6.6 -2.1 2.8 1.8 5.1 4.2 3.3 6.4 -0.67 12 4.1 15 8.8 3.3 4.3 5.9 9.6 11 12 4.4 2.1 9.3 2.6 14 2.8 -0.84 -5.5 -1.6 -11 -5.5 -16z" />
    
				<path id="stemB_leafA4_mid" style="fill:#5fae46"
				d="m781 812c2 -1 1.1 -4 3.8 -4.2 2.8 -1.3 1.4 -5.1 4 -6.2 0.52 -1.1 2.1 -4.6 1.2 -4.9 -9.9 3.3 -20 6.5 -30 9.8 2.4 0.34 5.1 0.047 7.5 0.89 3.4 0.81 6.3 2.9 9.3 4.6 1.2 0.36 2.6 0.63 3.8 0.1zm -13 -37c2.9 1.5 -0.12 3.9 0 6.2 -0.28 4.3 -0.13 8.8 -1.8 13 -2 5.7 -6.4 11 -12 13 -1.4 0.82 -5.5 2.9 -3.6 -0.26 4 -5.8 3.2 -13 3.5 -20 0.37 -7.9 5.4 -15 11 -19 1.5 2.2 2.4 4.8 2.4 7.4zm17 53c1.4 -2.9 -2.1 -3.1 -3.4 -4.8 -2.7 -3 -4.9 -6.5 -8.3 -8.8 -5.2 -4 -12 -5.7 -18 -4 -1.6 0.17 -6.1 0.85 -2.7 2.3 6.7 2.3 10 8.7 15 14 5 6.1 13 8.6 21 8.8 -0.1 -2.6 -0.99 -5.2 -2.5 -7.3z" />
   
				<path id="stemB_leafA4_light" style="fill:#98c93c"
				d="m780 800c -0.81 0.26 -4.3 0.77 -2.1 1.4 3.4 -0.16 6.1 -2.5 8 -5.1 0.49 -0.81 3.3 -2.7 1 -1.5 -2.5 1.5 -4 4.3 -6.9 5.2zm -9.4 3.2c -1.6 0.79 -5 0.33 -5.5 1.9 2.1 0.041 4.1 -0.63 6.1 -1.1 4.2 -1.2 8.2 -4 9.8 -8.2 0.83 -1.6 1.6 -3.6 3.6 -4 -2.5 0.24 -3.3 2.9 -4.5 4.7 -2 3.5 -5.7 5.7 -9.5 6.7zm -4.8 0.3c -1.1 1.5 -4.6 1.5 -4.8 3 2.6 -0.029 4.9 -1.9 6.8 -3.5 2.6 -2.7 3.7 -6.2 5.5 -9.5 0.62 -1.8 3.8 -4.1 4.1 -4.2 -3.6 0.93 -5.1 4.7 -6.7 7.7 -1.2 2.5 -2.7 4.8 -4.9 6.5zm -9.8 -0.8c -1.7 1.8 -3.9 3 -5.6 4.7 -1.3 2.5 2.6 0.67 3.3 -0.29 4.2 -2.9 7.7 -7.1 8.8 -12 1.6 -7.4 0.22 -15 2 -23 -1.3 0.87 -1.7 4.2 -2 6.1 -1 6.7 -0.07 14 -3.4 20 -0.75 1.6 -1.8 3 -3.2 4.2zm2.9 8.2c -2.4 -0.35 -4.9 -0.91 -7.2 -0.1 -1.8 1.7 2.1 1.8 3.2 1.6 6.5 0.22 13 3.3 17 7.8 3.7 3.1 7 7 12 8.7 1.4 0.046 -1.9 -1.6 -2.4 -2.2 -5.8 -4.5 -10 -11 -17 -14 -1.8 -0.6 -3.6 -1.3 -5.5 -1.7z" />
    
				<path id="stemB_leafA4_midCover" style="fill:#5fae46" 
				d="m764 773c -2.7 8 -0.48 17 -3.5 25 -2 5 -6.4 8.3 -11 11 1.6 1.1 3.6 -1.6 5 -2.4 4.3 -3.2 7.3 -8.1 7.8 -13 0.91 -6.7 0  -14 1.6 -20 0  -0.36 -0.16 -0.12 -0.28 0zm20 56c -7.4 -3.6 -12 -11 -19 -15 -4.2 -2.1 -9.1 -3.1 -14 -2.2 0.87 1.8 3.5 0.51 5.1 1 6 0.56 12 3.5 16 7.7 3.7 3.1 7 7 12 8.7 0.63 0.14 0.68 0.14 0.2 -0.1z" />
			</g>
			
			<g id="stemB_leafA3">
				<path id="stemB_leafA3_dark" style="fill:#00763d" 
				d="m692 770c -3.8 2.7 -6.8 -1.4 -5.1 -5.1 2.8 -8.1 0.51 -17 -2.7 -25 -0.83 -2.9 -3.2 -7 -5.9 -3 -5.6 4.9 -12 9.3 -16 16 -1.1 3.8 -6.5 5.3 -7.7 0.66 -3.3 -5 -9.8 -5.9 -15 -7 -0.83 8.7 -3.1 18 1.4 26 3.1 5.3 6.2 11 5.6 17 -0.39 5.9 -3.6 11 -8.2 15 -3.2 3.1 2.1 5.5 4 2.3 7.9 -6.8 19 -9.8 29 -8.1 4.8 0.91 9.9 1.3 14 -1.1 8.9 -4.2 15 -12 21 -20 3.4 -3.1 -2.7 -5.5 -5 -7.3 -2.7 -1.5 -6.1 -1.9 -9.1 -0.84z"/>
    
				<path id="stemB_leafA3_mid" style="fill:#5fae46"
				d="m684 766c1.2 -3.2 -1.4 -6.1 0.61 -9.2 1 -3.3 -0.43 -6.4 -1.7 -9.2 1 -3.3 -1.1 -6.2 -2.6 -8.9 -3.9 18 -12 34 -23 49 3.2 -2.3 6 -5.5 9.3 -7.9 4 -3.4 8.9 -5.4 13 -8.4 1.7 -1.3 3 -3.1 3.8 -5.1zm -36 -15c4.2 -1.6 2.6 4.9 5.5 6.6 4.8 5.6 6.5 13 5.1 21 -1.5 8.2 -6.6 15 -12 21 -2.1 -0.19 0.94 -4.5 0.61 -6.3 1.2 -6.6 -2.1 -13 -4.8 -18 -2.8 -6.8 -2.5 -14 -1.9 -21 0.37 -2.5 -0.25 -7 3.6 -4.7 1.6 0.53 3 1.4 4.1 2.6zm51 22c -0.04 -2.6 -2.3 -2.7 -3.5 -0.73 -4.2 3.3 -10 2.3 -15 4.4 -11 3.9 -20 11 -28 19 -1.4 1.9 -4.9 3.4 -5.1 5.4 3 -0.018 6 -2.1 9.1 -2.3 6.2 -1.3 12 0.21 19 0.04 8.3 -0.6 15 -6 21 -12 3.4 -3.5 6.5 -7.4 9.2 -11 -1.4 -2.4 -4.3 -3.7 -7.1 -3.1z" />
    
				<path id="stemB_leafA3_light" style="fill:#98c93c" 
				d="m675 757c -0.1 1.4 -3.2 4.4 -1.4 4.9 3.5 -4.7 4.2 -11 3.5 -17 -0.2 -0.94 0.2 -5.8 -0.14 -2.9 -0.62 4.9 0.076 9.9 -1.9 15zm -7.1 15c -1.4 2.7 -3.4 5 -5.1 7.6 -0.074 2.3 2.9 -2.6 3.6 -3.4 3.6 -5.2 6.4 -11 7 -17 0.71 -4.1 -1 -7.9 -1.4 -12 -0.21 -1.1 0.96 -5 0.16 -2.2 -1.2 4.7 1.5 9.4 0.49 14 -0.63 4.6 -2.5 9.1 -4.8 13zm -5.1 6.3c -0.96 3 -2.9 5.4 -4.5 8 1.7 0.68 3.3 -3.7 4.4 -5.2 1.9 -3.9 3 -8.1 2.7 -12 -0.41 -5.8 -2.1 -12 0 -18 -3 6.4 -0.82 13 -1 20 -0.18 2.4 -0.81 4.8 -1.6 7.1zm -12 9.8c -1.4 3.8 -4.1 6.9 -5.7 11 0.39 2.4 3.1 -1.5 3.8 -2.5 4 -6.1 7.4 -13 6.4 -21 -1.1 -8.3 -7.4 -14 -11 -21 -0.68 -1.6 -1.7 -2.5 -0.9 -0.16 2.5 8 9.3 14 9.9 23 0.24 3.9 -0.69 7.7 -2.3 11zm6.8 5.3c -3.5 2.3 -7.3 4.5 -10 7.7 -0.7 3 3.8 -0.72 4.8 -1.4 8.2 -6 17 -11 27 -13 6.5 -1.8 13 -4.1 18 -9.4 -2.2 0.87 -4.7 2.9 -7.2 3.7 -7.8 3.1 -16 3.9 -24 7.7 -3 1.5 -5.9 3 -8.8 4.7z" />
    
				<path id="stemB_leafA3_midCover" style="fill:#5fae46"
				d="m643 753c2.7 8.2 9.8 14 11 23 0.93 7.1 -2.3 14 -6 20 -0.42 1.3 -3 3.2 -2.3 4.1 2.7 -1.7 3.9 -4.8 5.6 -7.3 3.3 -6 5.5 -13 3.2 -20 -2.2 -7.2 -7.8 -13 -11 -19 0.21 -0.066 -0.78 -0.95 -0.4 -0.4zm54 24c -6.2 5.8 -15 7.2 -23 9.5 -10 3.1 -19 9.1 -27 15 2.2 0.65 4.3 -2.3 6.2 -3.3 7.8 -5.4 16 -9.8 26 -12 6.7 -1.8 14 -4.1 18 -9.5 -0.1 -0.15 0.35 -0.43 -0.1 -0.21z"/>
			</g>
			
			<g id="stemB_leafA2">
				<path id="stemB_leafA2_dark" style="fill:#00763d" 
				d="m667 877c -0.037 -2.5 1.5 -5.7 4.5 -5.1 4.2 1.5 8.6 -0.35 13 -1.3 2.7 -1.2 8.1 -1 7.1 -5.3 -0.13 -5.5 -0.71 -11 -4.1 -16 -2.7 -1.4 -3.3 -5.8 -0.16 -7 5.6 -2.9 8 -9.2 9.8 -15 -6.9 -1.6 -15 -2.8 -21 0.66 -5.3 3.1 -8.3 8.9 -13 12 -4 3.2 -9.4 5.3 -14 3.5 -3.5 0.33 -2 5.2 1 5.1 5.1 3 6 9.5 5.7 15 -0.36 6.2 -2.8 13 -0.49 19 1 3.3 2.8 6.2 4.6 9.1 3.3 -4.5 7.2 -9 8.3 -15z" />
    
				<path id="stemB_leafA2_mid" style="fill:#5fae46"
				d="m672 870c2 0.65 3.6 -1.9 5.4 0.038 2.7 1.2 4.7 -2.4 7.1 -1 1.8 -0.13 3.3 -1.2 5 -1.7 -8.4 -6.2 -17 -12 -27 -16 1.4 1.9 3.6 3.4 4.7 5.7 2.2 3.4 2.1 7.5 3.3 11 0.3 0.67 0.82 1.3 1.5 1.6zm19 -34c0.91 3 -2.1 2.6 -4 3.5 -3.6 2.1 -6.5 5.4 -10 7.1 -5.7 2.9 -12 3.9 -19 2.1 -1.3 -0.69 -6.1 -0.35 -4.4 -2.3 7 -1.8 12 -7.8 17 -13 5.5 -5.5 14 -6.4 21 -5.2 1.7 0.35 4.8 0.25 3.1 2.7 -0.69 1.9 -1.9 3.5 -3.5 4.7zm -28 48c2.9 -1.1 0.82 -4.3 1.7 -6.6 1.1 -4.6 2 -9.4 0.74 -14 -1.2 -5.2 -5 -9.6 -9.8 -12 -1.3 -0.94 -4.8 -2.7 -3.2 0.32 3.6 5.7 2.1 13 1.6 19 -0.81 6.8 1.1 14 4.9 19 1.2 0.42 2.5 -3.1 3.4 -4.4 0.27 -0.58 0.5 -1.2 0.71 -1.8z" />
   
				<path id="stemB_leafA2_light" style="fill:#98c93c"
				d="m680 861c -0.71 -0.48 -3.3 -2.8 -2.3 -0.6 2.1 2.2 5.2 3 8.2 2.9 1.1 -0.2 5.3 1.1 2.3 -0.066 -2.7 -0.84 -5.7 -0.6 -8.2 -2.3zm -8.5 -4.8c -1.7 -0.89 -3.1 -2.3 -4.8 -2.9 -0.54 1.4 2.2 2.1 3.1 3 3.9 2.6 8.8 4.4 14 3.1 2 -0.39 4.4 -1.4 6.2 0.15 -2 -1.9 -5 -0.74 -7.4 -0.54 -3.7 0.35 -7.6 -0.65 -11 -2.9zm -3.7 -3.2c -1.9 0.17 -3.9 -1.7 -5.5 -1.1 1.1 1.5 3.3 1.7 5 2.1 3.4 0.5 6.9 -0.22 10 -1.5 3 -1 6.7 -1.8 9.6 -0.092 -3 -2.3 -7.1 -1.6 -11 -0.55 -2.8 0.82 -5.7 1.4 -8.7 1.1zm -6.7 -7.2c -2.3 0.12 -4.7 -0.11 -7 -0.054 -2.9 0.81 0.84 2.5 2.2 2 4.9 0.28 10 -0.055 14 -2.5 6.7 -3.6 11 -9.9 18 -14 0.96 -0.39 2.5 -1.4 0.45 -0.89 -8.3 2.4 -13 10 -21 14 -2.2 0.8 -4.5 1.3 -6.8 1.3zm -3.2 8.1c -1.4 -1.9 -3.1 -3.8 -5.4 -4.6 -2.3 0.21 0.53 2.7 1.5 3.2 4.7 4.1 6.7 11 6.5 17 0.15 4.6 -0.61 9.3 0.51 14 0.85 1.9 0.2 -2 0.29 -2.7 0.023 -7.1 1.9 -14 -0.76 -21 -0.51 -1.8 -1.4 -3.6 -2.6 -5z" />
				
				<path id="stemB_leafA2_midCover" style="fill:#5fae46" 
				d="m690 831c -7.8 2.6 -13 9.6 -20 14 -4.7 2.5 -10 2.7 -15 2.4 -1.3 -0.46 -3.1 0.22 -1 0.97 2.9 0.48 5.9 0.38 8.8 0.2 5.3 -0.46 10 -3.2 14 -6.6 3.9 -3.2 7.5 -6.9 12 -9.3 0.15 -0.31 2.3 -0.83 1.3 -1.2zm -29 52c -1.2 -7.3 1.1 -15 -0.87 -22 -1.2 -4.2 -3.7 -8.1 -7.2 -11 -0.95 -0.84 -2.6 -1.2 -1.3 0.4 2 1.6 4 3.3 5.2 5.6 3 4.6 3.4 10 3.2 16 0.063 3.8 -0.59 7.8 0.86 11l0.088 -0.2z"/>
			</g>
  
			<path id="stemB_stem3" style="fill:#98c93c" 
			d="m 709,794 c -1.3,0.76 -3,1.4 -3.6,2.8 0.12,1.4 1.7,1.4 2.7,1 3.1,-0.75 5.9,-2.4 8.7,-3.9 5,-2.8 9.4,-7.1 11,-13 1.9,-4.8 1.4,-11 -2.3,-15 -2.6,-2.9 -7.7,-3.4 -11,-0.53 -2.1,2.1 -2,5.8 -0.29,8.1 2.1,3.1 6.8,3.5 9.8,1.5 4,-2.4 5.1,-7.7 3.6,-12 -1.6,-4.8 -6.5,-8.5 -12,-8.4 -1,-0.012 -3,0.37 -0.92,0.2 6,0.027 12,5.5 11,12 -0.067,3.3 -2.3,6.9 -5.8,7.2 -2.2,0.3 -4.7,-1.1 -4.9,-3.4 -0.44,-1.8 0.97,-3.6 2.8,-3.6 3,-0.35 5.1,2.5 5.8,5.1 1.86,11.06 -5.82,18 -14.59,21.93 z" />
			
			<path id="stemB_stemLight" style="fill:#98c93c" 
			d="m603 853c -13 28 -9 65 13 87 11 7.8 -2.9 -10 -4.3 -14 -15 -25 -14 -59 3 -83 13 -20 34 -31 57 -35 26 -5.7 55 -10 75 -30 16 -15 25 -43 11 -62 -8.6 -14 -28 -21 -42 -12 -13 6.7 -21 25 -10 37 7.7 9.6 25 13 34 2.4 -13 12 -39 -0.48 -35 -19 2.9 -17 24 -27 39 -17 17 9.2 22 32 14 48 -9.9 24 -36 36 -60 41 -25 6 -53 9 -73 27 -8.9 7.5 -16 17 -21 28z" />
			
			<path id="stemB_stemDark" style="fill:#5fae46" 
			d="m737 746c -13 12 -38 -2 -35 -20 2.7 -18 24 -29 40 -19 18 9.1 24 33 16 51 -9.5 24 -34 36 -57 42 -26 6.5 -54 8.8 -75 27 -25 21 -35 57 -24 87 3.7 11 10 21 18 30 -1.3 -7.6 -9.1 -15 -12 -23 -13 -27 -8.6 -61 11 -83 15 -18 38 -26 60 -30 26 -5.1 55 -12 72 -34 14 -16 18 -42 3.6 -59 -9.3 -13 -28 -18 -42 -8.7 -12 7 -19 25 -9.1 37 7.7 9.6 25 13 34 2.4l -0.55 0.088z" />
			
			
			<g id="stemB_leafA1">
				<path id="stemB_leafA1_dark" style="fill:#00763d" 
				d="m645 856c -5.1 3.2 -10 -1.9 -8.2 -7.3 -0.65 -9.5 -5.9 -18 -11 -26 -3.6 -4.3 -8.8 2.9 -13 4.3 -5.9 4.1 -12 8.9 -14 16 -3.4 5.4 -8.3 0.3 -11 -2.6 -5.9 -4 -13 -4 -20 -4 0.67 11 1.3 24 9.5 32 6.3 5.6 14 9.4 19 17 4.3 6 5.9 14 3.9 21 0.18 5.9 7.7 2.8 6.8 -2 3.7 -10 15 -16 25 -17 6.9 -0.81 14 -1.3 20 -6 6.8 -5.2 11 -13 16 -20 -6.8 -3.6 -15 -7.5 -22 -5.2z" />
				
				<path id="stemB_leafA1_mid" style="fill:#5fae46" 
				d="m633 852c0.43 -3.6 -3.6 -5.8 -1.6 -9.6 1 -4.8 -4.9 -7.1 -3.9 -12 -0.52 -1.8 -3.6 -7.1 -4.5 -6.3 -4.4 18 -8.9 36 -13 54 2.5 -3.4 4.2 -7.6 7.2 -11 3.6 -4.7 9 -7.3 13 -11 1.4 -1.3 2.4 -3 2.7 -4.9zm -53 -12c4.9 -3 4.5 5 8.5 6.5 5.7 4.2 11 9.3 14 16 4 8.3 4.5 18 2.9 27 -0.18 2.3 -1.1 10 -3.1 4.6 -2.6 -9.3 -11 -15 -18 -21 -9.9 -7.6 -13 -21 -14 -33 -1.6 -5.4 6.4 -2.6 9 -1.1l0.59 0.37zm74 18c -2.7 -4.9 -5.8 1.7 -9.6 1.6 -5.8 1.2 -12 2.2 -17 5.5 -9.3 5.3 -16 15 -19 25 -0.93 2.2 -3.7 9.4 0.67 5.5 6.6 -7 17 -8.7 26 -10 12 -2.2 21 -12 28 -22 4 -4.1 -4.5 -5.1 -7.5 -5.1l -0.68 0.045z"/>
				
				<path id="stemB_leafA1_light" style="fill:#98c93c"
				d="m618 844c -0.64 1.4 -2.6 7.7 0.12 4 2.7 -5.6 1.6 -12 0.26 -18 -0.27 -1.8 -0.085 -5.3 -0.43 -1.4 -0.25 5 1.6 10 0.05 15zm -4 17c -0.75 3.3 -2.4 6.3 -2.8 9.7 2.2 0 2.5 -4.9 3.5 -6.9 2.6 -8.3 3.8 -18 -0.61 -26 -1.2 -2.6 -2.4 -5.6 -1.4 -8.5 -2.1 4.9 1.8 9.6 2.6 14 1.3 5.8 0.23 12 -1.3 17zm -3.7 7.8c0.29 3.3 -0.71 6.4 -1.1 9.7 2.2 -0.013 2 -5.1 2.4 -7.3 0.73 -6.8 -2.1 -13 -5.2 -19 -2.2 -4.3 -3.8 -9.3 -2.6 -14 -2.3 7 1.4 14 4.2 20 1.3 3.4 2.2 7 2.3 11zm -8.8 14c0.78 4.3 0 8.8 1 13 2.8 2.3 2.4 -4.9 2.4 -6.6 -0.028 -8.6 -1.6 -18 -7.4 -24 -6.5 -7.8 -16 -12 -22 -20 -2.8 -2.4 1.9 4.7 3.1 5.7 6.8 7.8 17 13 21 23 1.1 3.1 1.8 6.3 2.2 9.6zm12 2.6c -2.5 3.5 -5.4 7.2 -6 12 1.6 3.2 3.8 -3.1 4.8 -4.5 5.1 -9.2 14 -16 24 -20 6.7 -2.8 14 -5.1 19 -11 -2.2 0.49 -5.9 3.3 -8.9 4.2 -8.3 3.4 -17 5.4 -24 11 -3.1 2.2 -5.9 4.8 -8.2 7.8z"  />
				
				<path id="stemB_leafA1_midCover" style="fill:#5fae46" 
				d="m574 844c5.9 10 17 15 24 24 5.6 8.1 5.5 18 5.4 28 0.57 2.7 2.2 -2.9 1.7 -4.1 0.14 -9.1 -0.94 -19 -7 -26 -6.1 -7.8 -15 -12 -22 -20 -0.44 -0.14 -2.1 -2.9 -2.2 -1.8zm80 18c -9.3 8.1 -23 8.6 -32 16 -6.6 5 -12 12 -15 20 3.1 -0.55 3.5 -5.2 5.5 -7.4 5.2 -8.3 13 -14 23 -18 6.7 -2.8 14 -5.1 19 -11 0.34 -0.26 -0.068 -0.44 -0.22 -0.3z" />
			</g>
		</g>
	</g>
</svg>
