<svg viewBox="0 0 70.5 81.3" xmlns="http://www.w3.org/2000/svg" >
	<path id="path840" d="m52.4 1.42e-4c-5.94-0.0348-10.7 6.32-8.64 11.9 0.189 2.56 4.26 5.09-0.0198 5.64-2.69 0.391-3.73 4.37-5.81 5.05-0.987 0.118-2.69 0.615-3.7-0.143-1.28-1.04-0.217-4.48-0.574-6.35-0.104-3.65-2.57-8.45-6.85-7.61-1.94-0.516-3.59-5.21-7.02-5.22-3.84-0.965-8.26 1.07-9.81 4.68-2.88-0.699-5.44 2.36-6.84 4.53-2.23 3.27 1.36 8.98-1.96 10.9-0.911 1.75-2.67 5.43 1.16 5.21 3.75-0.732-0.796 4.81-0.386 6.9-0.748 3.71-1.51 7.65-0.645 11.4 0.76 3.29 5.94 0.878 5.71 0.873-0.808 3.38-2.29 6.69-2.56 10.1 0.852 1.98 4.83 0.991 4.07 3.89 0.121 5.46-0.479 11.1 1.23 16.4 1.08 3.25 5.4 3.36 7.52 1.15 1.05-1.64 0.296-2.86 1.46-0.325 1.28 2.79 6.53 2.45 7.62-0.738 1.42-3.58 1.19-7.52 1.41-11.3 1.1 4.33-1.58 16 4.75 14.2 2.28-0.658 2.26-3.39 4.22-1.01 4.74 3.05 6.05-2.45 6.07-5.45 0.0662-0.734-0.0448 6.24 4.67 6.08 2.96-0.102 4.5-2.38 4.67-7.49-0.463 6.64 5.29 9.52 8.32 5.94 2.01-3.69 1.38-8.14 1.76-12.2 0.246-6.79 0.297-13.6 0.585-20.4 1.43 3.92 7.31 2.74 7.55-1.29 0.744-6.46-1.33-12.9-3.44-18.9-1.53-3.83-3.35-8.32-7.77-9.45-1.13-0.927 1.82-3.17 1.99-7.2 0.235-5.62-3.1-9.72-8.72-9.76z" />
</svg>
