<svg viewBox="0 0 70.5 81.3" xmlns="http://www.w3.org/2000/svg" > 
	<path id="outline" d="m52.4 1.42e-4c-5.94-0.0348-10.7 6.32-8.64 11.9 0.189 2.56 4.26 5.09-0.0198 5.64-2.69 0.391-3.73 4.37-5.81 5.05-0.987 0.118-2.69 0.615-3.7-0.143-1.28-1.04-0.217-4.48-0.574-6.35-0.104-3.65-2.57-8.45-6.85-7.61-1.94-0.516-3.59-5.21-7.02-5.22-3.84-0.965-8.26 1.07-9.81 4.68-2.88-0.699-5.44 2.36-6.84 4.53-2.23 3.27 1.36 8.98-1.96 10.9-0.911 1.75-2.67 5.43 1.16 5.21 3.75-0.732-0.796 4.81-0.386 6.9-0.748 3.71-1.51 7.65-0.645 11.4 0.76 3.29 5.94 0.878 5.71 0.873-0.808 3.38-2.29 6.69-2.56 10.1 0.852 1.98 4.83 0.991 4.07 3.89 0.121 5.46-0.479 11.1 1.23 16.4 1.08 3.25 5.4 3.36 7.52 1.15 1.05-1.64 0.296-2.86 1.46-0.325 1.28 2.79 6.53 2.45 7.62-0.738 1.42-3.58 1.19-7.52 1.41-11.3 1.1 4.33-1.58 16 4.75 14.2 2.28-0.658 2.26-3.39 4.22-1.01 4.74 3.05 6.05-2.45 6.07-5.45 0.0662-0.734-0.0448 6.24 4.67 6.08 2.96-0.102 4.5-2.38 4.67-7.49-0.463 6.64 5.29 9.52 8.32 5.94 2.01-3.69 1.38-8.14 1.76-12.2 0.246-6.79 0.297-13.6 0.585-20.4 1.43 3.92 7.31 2.74 7.55-1.29 0.744-6.46-1.33-12.9-3.44-18.9-1.53-3.83-3.35-8.32-7.77-9.45-1.13-0.927 1.82-3.17 1.99-7.2 0.235-5.62-3.1-9.72-8.72-9.76z" />
	
	<path id="siblingsIcon_path" d="m52.4 1.45c-3.86-0.0523-7.64 3.03-7.64 7.84 0 2.22 0.78 4.36 2.05 5.63 2.85 2.85 7.69 2.64 10.8-0.465 3.07-3.07 3.21-6.57 0.391-10.1-1.53-1.95-3.57-2.83-5.59-2.86zm-34.6 3.03c-1.75 0.00631-3.55 0.623-5.07 1.99-2.46 2.2-2.32 7.93 0.256 10.5 1.14 1.14 3.41 2.05 5.12 2.05 3.94 0 7.17-3.23 7.17-7.17 0-4.44-3.62-7.38-7.47-7.37zm-8.55 4.68c-0.645-0.014-1.72 0.537-2.99 1.73-2.3 2.16-2.58 3.15-2.3 8.11 0.244 4.27-0.0081 5.58-1.03 5.36-0.746-0.155-1.09 0.151-0.761 0.68 0.327 0.529 0.0155 1.19-0.692 1.48-0.707 0.285-0.295 0.555 0.916 0.599 3.05 0.112 6.88-6.44 6.09-10.4-0.32-1.6-0.0309-3.79 0.642-4.87 1.08-1.72 0.954-2.68 0.125-2.69zm18.4 0.641c-1.63 0-1.83 1.65-0.322 2.58 0.595 0.368 0.784 2.1 0.434 3.96-0.449 2.4-0.0045 4.36 1.61 7.09 0.393 0.666 0.753 1.22 1.1 1.68 0.592-0.491 1.25-0.903 1.95-1.22-0.297-0.686-0.335-2.15-0.176-4.71 0.348-5.63-1.49-9.38-4.59-9.38zm25.2 9.11c-3.86 0.0164-7.9 0.243-9.28 0.668-0.757 0.233-2.43 2.37-4.03 5.06 1.39 0.868 2.58 2.03 3.21 3.56 0.447 1.43 0.507 2.97 0.361 4.46-0.024 0.362-0.0881 0.714-0.183 1.06 0.353 0.163 0.531 1.71 0.626 5.63 1.42 1.04 2.62 2.41 3.52 3.92 1.65 2.8 2.55 5.97 3.3 9.11 0.209 1.12 0.492 2.27 0.573 3.43 0.354-14.5 1.87-12.9 2.2 5.78 0.246 14 0.513 16.2 2.07 17.2 1.31 0.822 2.28 0.822 3.58 0 1.59-1 1.85-3.67 2.3-24.1 0.462-20.7 1.15-23.9 2.3-10.6 0.335 3.89 4.29 4.98 5.4 1.48 1.71-5.38-3.68-23.6-7.72-26.1-0.673-0.416-4.36-0.61-8.22-0.593zm-33.2 2c-0.565-6.76e-4 -1.16 0.0065-1.79 0.022-6.62 0.164-7.62 0.462-9.6 2.87-2.84 3.45-5.59 12.2-5.81 18.5-0.146 4.25 0.0974 4.88 1.87 4.88 1.67 0 2.17-0.953 2.8-5.35 0.424-2.94 1.43-6.86 2.23-8.7l1.46-3.35 0.0837 4.75c0.0459 2.61-1.07 8.72-2.48 13.6-1.41 4.86-2.56 9.02-2.56 9.26 0 0.236 1.27 0.649 2.81 0.919h4.5e-4c1.83 0.318 6.9 0.339 11.7 0.184-0.478-1.65-0.322-3.44-0.0691-5.12 0.769-4.05 2.24-8.01 4.58-11.4 0.388-0.609 0.837-1.18 1.34-1.7-0.221-1.37-0.386-2.66-0.467-3.73l-0.505-6.72 2.29 4.09c0.608 1.09 1.29 2.56 1.9 4.08 0.342-0.151 0.693-0.285 1.05-0.395-1.86-1.34-3-3.6-3.03-5.88-0.0678-2.12 0.802-4.16 2.21-5.71-0.994-1.79-1.93-3.17-2.66-3.77-1.04-0.858-3.39-1.27-7.34-1.27zm21.7 15.6c-0.411 0.423-0.868 0.801-1.35 1.13 0.299 0.0776 0.59 0.173 0.878 0.277 0.153-0.492 0.311-0.964 0.474-1.4zm9.63 20.8c-0.0439 0.343-0.115 0.685-0.225 1.02-0.443 1.53-2.09 2.47-3.64 2.24-0.268 0.077-0.921-0.418-0.833-0.0034 0.0884 1.55 0.426 3.34-0.619 4.65-0.434 0.646-1.16 0.891-1.82 1.24 0.172 7.6 0.533 11.1 1.15 11.7 1.39 1.39 2.03 1.48 4.32 0.607 1.38-0.529 1.62-2.95 1.62-16.3 0-1.89 0.0156-3.61 0.0432-5.18zm-41 2.67v7.74c0 4.26 0.477 8.64 1.06 9.73 1.13 2.11 1.91 2.35 4.49 1.36 1.31-0.502 1.62-2.37 1.62-9.73v-9.1h-3.58zm9.21 0v9.13c0 6.34 0.39 9.29 1.28 9.64 4.35 1.75 5.44-0.28 5.8-10.8l0.059-1.74c-0.412-0.247-0.778-0.563-1.04-0.978-0.814-1.27-0.652-2.87-0.601-4.3 0.136-0.512-0.0594-0.514-0.464-0.295-1.01 0.353-2.12 0.056-2.9-0.619zm10.9 19.6c-0.24-0.24-0.436-3.48-0.436-7.21 0-6.72-0.0136-6.78-1.73-7.43-1.88-0.715-1.88-0.645-0.588-13.4l0.331-3.27-0.919 2.62c-0.505 1.44-0.941 3.37-0.969 4.29-0.0717 2.39-1.56 4.2-2.99 3.65-1.83-0.703-0.884-7.49 1.79-12.8 2.77-5.54 5.17-7.19 10.5-7.19 7.08 0 10.7 3.21 13 11.6 1.51 5.44 1.55 7.76 0.157 8.3-1.41 0.542-2.86-0.733-2.86-2.52 0-1.76-1.94-8.45-2.34-8.06-0.157 0.157-0.0195 1.73 0.306 3.5 0.325 1.77 0.792 5.29 1.04 7.83 0.436 4.51 0.409 4.63-1.24 5.38-1.64 0.748-1.69 0.94-1.69 6.94 0 7.19-0.285 8.24-2.23 8.24-2.53 0-3-1.21-3-7.71 0-4.34-0.22-6.06-0.754-5.89-0.503 0.168-0.707 2.02-0.613 5.58 0.0775 2.93-0.182 5.93-0.577 6.67-0.687 1.28-3.23 1.84-4.16 0.905zm2.11-43.1c-5.44-2.96-2.78-11.6 3.59-11.4 3.8 0.0873 5.63 3.41 5.64 6.21 0 2.35-0.337 3.11-2.01 4.52-2.23 1.88-4.64 2.12-7.22 0.712z"/>
</svg>
