<svg xmlns:svg="http://www.w3.org/2000/svg" xmlns="http://www.w3.org/2000/svg" version="1.1">
	<g inkscape:label="treeGRP" id="treeGRP">
		<path id="treePath" style="fill:#ffffff; fill-opacity:1" inkscape:label="treePath"
		d="m -50.899327,-42.37813 c 0,0 -32.728599,9.344641 -32.192064,38.6304766 0.536534,29.3305474 39.614123,47.1703174 66.70911,39.7482574 l -8.003305,44.75591 45.381868,-0.0894 -7.019658,-44.08524 c 24.50174,-0.35769 69.21294,-6.93024 69.21294,-41.9391104 0,-34.9641586 -35.05358,-37.0208736 -35.05358,-37.0208736 0,0 -1.65432,-40.105947 -48.60107819,-39.524701 C -47.456565,-81.366297 -50.899327,-42.37813 -50.899327,-42.37813 Z m 50.61307781,27.363254 3.04036199,14.84411861 6.70668,-4.47112001 -7.019659,7.913882 4.336987,21.2825294 15.1123852,-9.881173 h 0.849513 L 6.9569648,34.256864 13.574223,74.452234 H -16.874104 L -7.1270632,20.798794 -21.747625,-0.52844739 -5.6515932,11.364732 Z" />
	</g>
</svg>
