<svg xmlns="http://www.w3.org/2000/svg" viewBox="0 0 980 478.7">  
  <g id="colouredWood3" transform="matrix(0,-0.99232884,-0.99232884,0,1111.0588,1361.8647)">
    <path id="woodFill" style="fill:#5a3838;fill-opacity:1;"
	d="m 897.2,1059.6 c 0,0 1.2,-159.8 0,-228.9 -1.2,-69 17.1,-106.1 14.7,-166.2 -2.4,-60.1 9.8,-217.4 2.4,-286.4 -7.3,-69 4.8,-230.2 9.8,-231.4 0,0 142.5,-5.8 145.8,-5.8 3.3,0 44.7,137.8 48.5,135.3 3.8,-2.5 15.2,-93.5 15.2,-93.5 l 89.9,7.6 36.5,46.8 98.3,7.6 c 0,0 -4.9,33.9 0,81.2 4.9,47.3 -4.9,148.3 0,185.4 4.9,37.1 -9.8,168.8 -3.7,200.8 6.1,32 4,314.6 5.1,329.9 1,15.3 -7.5,57.5 -7.5,57.5 l -29.5,-7.5 -42.7,-17.2 -108.9,17.2 -42.5,6.3 -82.6,-6.3 c 0,0 -21.5,1 -27.2,2.9 -5.7,1.9 -14.5,4.6 -14.5,4.6 l -107,-7.5 z"/>
    
	<path id="darkGrain" style="fill:#5f3b3b;fill-opacity:1;"
    d="m 1029.5176,144.37695 c -33.36361,-1.45808 2.0855,50.54275 -2.5216,73.65995 15.4373,117.98193 16.1232,243.3663 -31.54184,354.52024 -23.42301,50.80477 -58.35425,95.06219 -84.30768,144.48192 -6.07001,39.9939 -13.8283,80.10614 -11.83204,120.77344 15.72267,-34.02177 12.20228,-72.75716 27.40897,-106.32234 38.75885,-78.02609 100.33379,-145.888 117.15599,-233.67265 25.5087,-116.31087 19.0223,-238.14416 -7.4009,-353.71985 z m -69.74612,32.21094 c -25.61576,7.37865 -54.82233,47.43763 -40.10239,61.44194 10.44724,-21.35843 39.07435,-41.88903 47.27275,-58.88534 l -3.63926,-2.10265 z m 191.80082,16.75781 c -7.7961,60.8097 -13.2738,122.88394 1.1402,183.24856 15.298,67.85787 18.3942,141.50531 -12.6942,205.60851 -38.0205,75.40103 -93.3157,141.00356 -127.9705,218.38761 -42.53163,90.96622 -65.32226,192.67692 -56.09498,293.22412 32.68185,4.7817 5.46262,-51.1455 15.15775,-74.2215 6.9101,-122.09464 57.91003,-238.18596 130.28493,-335.44805 40.6861,-60.34514 84.5408,-124.59769 86.2764,-200.23314 2.7402,-78.70071 -30.8544,-154.92276 -18.5256,-233.96437 -3.0283,-23.41917 23.4045,-70.39285 -16.9493,-62.77361 l -0.625,6.17187 z m -167.86332,16.97852 c -29.77649,21.6172 4.77888,68.35443 -10.89915,101.95911 -10.32237,67.94433 -29.6575,134.47826 -55.40749,198.1444 1.91036,16.99003 -9.73234,89.40025 7.21954,44.71498 8.09701,-30.77652 23.44224,-59.9583 33.4326,-90.75791 21.70382,-69.15768 45.31752,-140.95974 39.91573,-214.35856 -2.08896,-13.29941 -5.5037,-30.47466 -14.26123,-39.70202 z m 280.85352,33.95898 c 0.7832,101.89538 -6.5855,207.65935 -51.4676,300.80559 -21.0874,76.99901 -80.8959,133.47459 -119.8468,200.75831 -48.2618,106.99554 -62.0523,228.40353 -44.0118,344.067 42.5934,13.6956 10.9053,-41.9964 16.6952,-66.1487 -7.3681,-133.52308 30.704,-268.29137 106.1224,-378.69991 54.2982,-72.45429 88.3465,-159.06534 98.5048,-248.98921 6.6495,-51.30711 7.7531,-103.13708 7.5311,-154.81261 -3.0407,2.58432 -17.1744,-6.75077 -13.5273,3.01953 z m 69.1445,5.64453 c -21.7033,101.88746 -27.493,207.82003 -6.7505,310.36699 4.2775,18.22389 13.259,90.15765 13.1585,37.70174 5.862,-51.10424 -10.0104,-101.53847 -5.6142,-152.85685 1.2565,-50.07479 11.6491,-99.82198 5.1141,-149.8557 -3.8277,-6.98211 8.4442,-64.99427 -5.9079,-45.35618 z m -83.6933,399.49024 c -34.233,18.64047 -50.2151,60.37533 -67.4126,93.7495 -39.4704,90.18347 -82.0606,185.89404 -69.4154,286.86683 1.6849,18.7981 5.9512,85.7128 25.8984,56.0022 -15.9431,-70.8451 -11.5239,-145.69689 15.1911,-213.38829 25.2289,-66.70242 48.075,-135.88524 88.1558,-195.46193 2.5172,-9.92067 34.2296,-26.14432 7.5827,-27.76831 z m 23.9082,43.85156 c -28.9377,33.54634 26.3463,74.01638 29.9213,112.6315 32.9453,80.67905 32.2805,170.77719 11.1113,254.28277 -19.1698,23.8612 23.4202,47.2845 20.8876,12.2558 12.4334,-45.0929 4.4535,-92.34636 6.5464,-138.54902 -1.6354,-40.94649 5.7807,-83.567 -12.8634,-121.83532 -15.0335,-40.94654 -34.8572,-81.29507 -55.6032,-118.78573 z m -37.1172,127.33985 c -23.9176,17.66197 -37.4477,48.16825 -49.2744,75.32057 -23.2572,60.13682 -22.3113,128.89475 1.4482,188.72825 19.8337,-7.4954 -10.7171,-48.1233 -4.224,-70.6455 -4.3228,-67.001 21.4761,-132.82549 63.4896,-184.26661 -1.0774,-5.1357 -5.9297,-9.82456 -11.4394,-9.13671 z m 22.0391,39.93554 c -24.8089,31.27395 4.242,73.5295 -4.2827,110.73867 0.8297,35.23671 -4.5218,69.31441 -9.0259,104.40391 43.8994,2.0556 17.2152,-63.299 28.2337,-90.82145 1.7641,-42.24305 -0.9293,-85.25979 -13.9392,-125.7391 l -0.9863,1.41797 z m -42.4688,145.41798 c -0.7235,17.0116 3.1478,45.7752 5.3916,12.7559 1.9954,-4.4264 1.3635,-13.1304 -5.3916,-12.7559 z m -12.1914,60.7187 c -7.7345,36.0018 15.6092,6.8843 0,0 z"/>
   
   <path id="lightGrain" style="fill:#875454;fill-opacity:1;"
	d="m 1065.082,145.6543 c -42.6528,-6.20253 -3.0181,51.4215 -7.829,77.25279 14.5989,114.87353 14.5049,236.2522 -29.9351,344.94702 -28.26609,65.15774 -77.75068,119.32131 -102.97526,185.69405 -6.85176,36.54048 -26.69282,97.23954 -25.81836,134.24873 14.89537,-83.92993 81.57511,-179.55794 125.13982,-250.98953 69.8858,-115.49978 76.9391,-256.53131 64.0836,-387.59555 -4.895,-34.77534 -7.5903,-70.59239 -20.0133,-103.67079 z m -119.10634,4.64258 c -22.10779,1.90442 -11.2559,23.11296 4.67546,3.22719 l 5.97583,-3.50454 z m 41.5634,28.50781 c -23.72413,15.90878 -71.54003,37.73918 -65.39573,71.55123 19.44388,-18.62778 69.34235,-74.10186 77.53228,-21.59833 16.03599,66.16879 -6.41521,133.68363 -22.91007,197.58061 -11.2791,38.1431 -25.13595,75.52465 -41.46476,111.79461 1.04491,16.08462 -36.69065,98.89574 -21.56937,59.60868 50.91874,-64.04161 106.51339,-220.05118 112.21269,-323.21565 -0.4237,-33.67095 -7.4469,-77.29743 -38.40504,-95.72115 z m 193.63864,15.21093 c -7.8237,59.46203 -13.1721,120.18297 0.5798,179.27604 13.9334,64.89621 19.9326,134.60776 -6.9561,197.20822 -32.0472,73.95574 -86.7132,135.25796 -121.757,207.75887 -49.6913,96.29763 -77.11653,205.96438 -67.53854,314.57135 25.51114,0.4721 2.6721,-48.3551 10.91246,-69.2782 6.45158,-133.63784 65.59208,-259.86621 148.45218,-363.1333 46.2083,-59.92196 78.4752,-133.70518 72.9036,-210.69206 -4.4437,-63.52605 -23.7387,-126.4808 -12.6387,-190.5623 -1.6427,-29.72169 27.2749,-85.03082 -23.9577,-65.14862 z m 113,51.29493 c 0.963,119.23424 -9.4608,246.47872 -79.9555,347.18982 -58.4792,83.6631 -111.9737,174.04212 -130.5715,275.85487 -14.5574,72.53704 -16.458,147.64966 -4.9515,220.75996 46.7033,15.7175 15.3401,-45.0682 22.508,-71.7122 -1.1436,-97.56112 19.5654,-194.69713 53.3869,-285.86527 31.1386,-81.90578 94.877,-147.25965 118.9858,-232.34674 26.7047,-82.0707 30.4404,-169.31355 30.0989,-254.96443 -1.4778,2.17237 -11.219,-4.51454 -9.5011,1.08399 z M 920.5706,296.0649 c -4.3578,13.62133 -2.17528,60.39155 -0.18716,62.80806 16.94169,-20.88572 16.7583,-32.28045 0.18716,-62.80806 z m 431.7888,17.51908 c -12.5885,78.50142 -11.8353,158.93247 2.6035,237.13282 -0.6285,-45.63117 -3.6841,-91.26427 -0.4028,-136.95124 1.2594,-34.69508 2.1679,-69.51321 -1.6148,-104.08978 l -0.3097,2.06564 z m -74.5489,337.94532 c -27.6931,15.7341 -42.7587,47.97094 -57.6434,75.41557 -42.7272,95.65086 -90.8951,196.86109 -77.2134,304.65143 2.5494,15.9633 4.3286,78.0746 20.8467,50.3678 -15.875,-72.2734 -9.4271,-148.38754 18.69,-216.87118 26.0479,-60.16796 47.4838,-124.10713 87.8331,-176.63935 20.1711,-2.43861 29.3486,52.56734 43.8255,70.51898 18.5166,33.93955 36.3647,99.39416 40.8772,118.94081 -3.1865,-36.63997 7.3151,-76.20968 -11.0431,-109.80675 -17.928,-39.1004 -36.4253,-78.57 -59.3649,-114.82654 l -5.0809,-1.72149 -1.7268,-0.0293 z m -13.2597,171.09179 c -26.2039,22.69549 -42.0011,57.26511 -53.0456,90.15749 -16.8058,54.40402 -14.5813,114.33662 5.612,167.52612 5.8639,-22.7837 -14.8304,-69.3041 -6.1309,-102.30743 4.2599,-48.61244 22.6432,-95.89901 52.7188,-134.36446 30.5619,71.9669 20.6981,152.00823 12.0039,227.35349 32.6114,4.1711 15.0304,-48.679 22.9749,-70.8562 3.7965,-59.13334 0.3021,-121.16946 -27.3697,-174.7883 l -3.0317,-2.18915 -3.732,-0.53156 z m 90.7129,183.24021 c 3.3262,26.4731 -29.0327,72.8773 -5.6153,85.3555 6.6245,-27.6886 6.4508,-59.1696 5.6153,-85.3555 z m -111.3242,2.0645 c -2.7371,19.6307 -16.5091,59.4565 -5.8575,69.0508 -0.9707,-20.732 16.543,-52.7788 5.8575,-69.0508 z"/>
   
   <path id="blackGrain" style="fill:#402828;fill-opacity:1;"
   d="m 1050.7207,145.58789 c -45.4887,-7.71186 -4.1286,51.58237 -9.1467,77.8955 14.4562,116.04711 25.7252,243.13402 -21.3088,352.33522 -28.69198,63.72508 -88.89407,113.3601 -112.94617,179.00299 -6.37522,30.28035 -8.24696,94.65534 -4.41916,103.24913 16.28448,-84.36731 65.67873,-155.7212 108.91783,-228.05079 67.2518,-114.86606 73.6069,-253.77767 60.4735,-383.15052 -5.9719,-32.55798 -6.2193,-76.3723 -21.5705,-101.28153 z m -79.47851,33.11719 c -23.83433,15.9187 -59.2531,35.92426 -53.15821,69.83594 18.33648,-14.9884 56.27724,-75.79259 64.95659,-21.22782 17.04763,67.16752 -6.309,135.86012 -23.29823,200.71117 -11.28007,37.53358 -25.09588,74.30085 -41.24234,110.01079 0.86218,17.24029 -7.72095,72.37887 7.97551,31.53348 43.62271,-92.55328 77.41849,-192.08734 83.48919,-294.8205 0.2504,-34.3061 -8.0773,-73.08698 -35.74728,-95.65022 z m 197.05901,9.6627 c -7.9928,61.01384 -6.0518,117.89099 8.6486,178.42818 14.3843,65.3649 9.5139,146.70861 -19.0337,209.09622 -33.6906,72.33668 -87.0594,133.41502 -122.0677,205.17558 -49.10946,95.4473 -76.30651,204.15705 -66.64693,311.75844 25.7845,0.4077 2.78168,-48.9125 11.12932,-70.1918 6.73957,-133.94624 66.97951,-260.11807 150.45001,-363.20661 46.5305,-59.70341 78.5776,-133.72091 72.7943,-210.65035 -4.995,-63.06815 -23.4267,-125.81344 -12.7826,-189.43798 -3.7914,-27.03846 32.9289,-91.94367 -22.4913,-70.97168 z m 112.4078,62.33925 c 0.2759,117.25725 -10.6946,242.30292 -80.3334,341.02292 -55.8435,80.0329 -97.5623,165.27845 -118.137,261.93455 -17.5198,77.02005 -31.4578,157.4231 -18.9788,235.4585 49.3289,15.3861 13.5673,-52.7597 22.7651,-81.1737 0.4532,-95.65531 21.0913,-190.94271 55.4332,-279.98876 32.0432,-80.97773 95.4633,-145.85865 119.1693,-230.66017 26.4147,-81.82665 30.2137,-168.73623 29.7613,-254.07381 -4.7705,0.82003 -16.1526,-5.52622 -9.6797,7.48047 z m -16.7637,400.72266 c -28.7532,16.15307 -44.1561,49.69942 -59.4746,78.09562 -42.71,95.01441 -90.4219,196.00702 -76.3463,303.15949 2.136,17.2532 5.7935,78.1243 21.4198,51.406 -16.5956,-73.3607 -10.0931,-150.81822 18.9144,-220.26813 26.8294,-60.94348 48.4227,-126.16475 90.7621,-178.60001 26.5678,31.03116 44.3637,82.1379 62.0788,122.9002 33.233,81.7292 30.906,172.79762 9.2186,257.06344 -19.887,25.9859 27.6801,42.0869 22.0688,8.4552 6.2881,-52.5192 0.9195,-105.77245 2.476,-158.59973 -2.1828,-31.85968 4.1896,-65.12674 -4.4355,-95.98171 -20.02,-57.87346 -48.1377,-112.96426 -79.1734,-165.47399 l -3.5645,-1.72573 z m -13.2129,171.28906 c -33.0919,28.91434 -51.0482,74.38762 -60.3472,117.02364 -9.2133,47.56544 -4.5015,97.68111 13.1753,142.77521 3.5226,-27.9443 -16.9439,-80.8685 -5.2104,-119.29331 6.9265,-42.13483 22.5166,-85.21977 51.071,-117.22531 31.788,69.38609 20.7537,149.1814 12.6283,223.04722 26.2511,14.8616 18.5377,-43.5107 22.8293,-64.2664 4.3132,-60.48583 1.2137,-124.1396 -27.079,-179.05072 l -3.1277,-2.41082 z m -8.2975,185.30275 c -6.3955,24.5077 -17.7928,56.689 -6.653,66.382 0.304,-22.4283 9.0605,-51.3507 6.653,-66.382 z m 107.7409,-757.60548 c -21.4406,101.02886 -27.9674,206.04906 -7.0335,307.78793 3.9192,19.99917 10.7983,71.01229 10.4941,23.78308 2.5637,-44.54162 -10.4448,-88.6741 -6.6448,-133.50802 -0.405,-46.50358 13.6486,-92.30226 5.8457,-138.73606 -4.7068,-14.03062 5.1991,-59.70548 -2.6615,-59.32693 z"/>
   
   <path id="woodOuter" style="fill:#402828;fill-opacity:1;"
   d="m 1069.418,136.04102 c -49.4207,2.76772 -99.73629,2.1585 -148.63533,7.12883 -10.89607,38.905 -9.19659,80.96724 -12.27865,121.31721 -5.46867,76.98446 7.42292,153.63451 2.56354,230.62969 -2.86379,68.38189 -3.93744,136.84426 -4.82231,205.21508 -7.28288,53.74158 -17.43667,107.453 -13.46371,161.9951 0.54974,76.6677 -0.25422,153.33567 -0.40975,230.00277 35.00534,10.3005 79.33437,9.3005 117.31761,10.1055 49.8067,-15.7493 102.2724,9.1814 152.6109,-4.6293 39.0169,-5.9534 77.9791,-12.2605 116.973,-18.3625 24.1989,4.5949 79.1519,47.63 81.0504,3.2175 8.944,-54.2854 1.6176,-109.70023 3.8522,-164.4559 -0.4783,-77.33128 0.4781,-154.88737 -6.0967,-231.93607 0.6994,-68.01241 9.9935,-135.98061 3.7635,-203.94075 1.0784,-64.97363 5.1039,-129.996 -0.7469,-194.84715 8.1884,-35.39828 -0.8952,-58.45472 -41.2772,-50.77582 -34.6111,-0.47894 -69.0401,-1.30102 -83.8792,-38.61073 -21.396,-27.32596 -65.7539,-10.95745 -96.6741,-19.93415 -24.5968,10.10077 -10.539,59.39273 -22.0017,83.70881 -16.2717,-41.11624 -25.7338,-85.2997 -44.5403,-125.08168 l -2.488,-0.73804 -0.8174,-0.008 z m -1.7715,11.16601 c 17.2855,43.84805 26.9566,91.10299 47.9765,133.14453 20.846,-17.17978 13.9359,-59.95947 21.5686,-87.78588 21.7065,-3.95055 72.9733,-7.16648 92.6935,13.65639 15.8452,42.37781 57.0185,38.67802 94.4273,40.56337 50.9466,-8.09279 17.2811,58.84689 30.0252,90.66445 2.227,66.44704 -5.7703,132.97439 0.146,199.31801 -0.8007,68.58675 -11.0806,137.25517 -2.4321,205.66989 2.6612,105.56845 3.0617,211.33783 1.7499,316.85361 3.6533,32.7649 -14.377,39.2953 -40.6042,23.4404 -36.9385,-23.9792 -79.136,-2.3448 -119.035,0.4637 -35.4905,5.825 -70.9939,13.2077 -106.953,6.8895 -34.7796,-7.7494 -68.7736,2.6678 -102.77513,2.9475 -31.82824,-8.7383 -97.47427,14.0587 -82.53631,-38.3895 1.39949,-86.51248 -0.88703,-173.10392 1.09758,-259.56321 5.7395,-51.93102 17.65788,-103.44745 13.18018,-156.05743 1.78435,-100.12578 9.69461,-200.44306 0.60892,-300.42331 -0.25947,-62.45418 2.08513,-125.13943 10.27409,-187.08928 46.68758,-1.96138 93.37917,-3.8253 140.07227,-5.65039 l 0.5156,1.34765 z"/>
  </g>
</svg>
