<svg xmlns="http://www.w3.org/2000/svg" viewBox="0 0 1000 500">
  <g id="colouredWood2" transform=
    "matrix(0,-1.0221846,1.0221846,0,-140.08931,2006.8951)">
	<path id="woodFill" style="fill:#5a3838;fill-opacity:1"
    d="m 1545.3,183.3 h -53.8 c 0,0 1.2,159.8 0,228.9 -1.2,69.1 17.1,106.1 14.7,166.2 -2.4,60.1 9.8,217.4 2.4,286.4 -7.3,69 4.8,230.2 9.8,231.4 5,1.2 47.7,-9 56.3,-9 8.6,0 14.7,1.3 31.8,-2.6 17.1,-3.8 25.7,-7.7 42.8,-7.7 0,0 11,-62.7 19.6,-55 8.6,7.7 13.5,55 17.1,56.3 3.7,1.3 25.7,6.4 31.8,5.1 6.1,-1.3 8.6,-19.2 8.6,-19.2 0,0 3.7,21.7 20.8,21.7 17.1,0 69.7,-1.3 75.8,-3.8 6.1,-2.6 12.2,-135.5 12.2,-135.5 0,0 19.6,130.4 25.7,131.7 6.1,1.3 80.7,6.4 91.7,1.3 0,0 -4.9,-115.1 0,-162.4 4.9,-47.3 -4.9,-148.3 0,-185.4 4.9,-37.1 -9.8,-168.8 -3.7,-200.8 6.1,-32 4,-314.6 5.1,-329.9 1,-15.3 -7.5,-57.5 -7.5,-57.5 0,0 -78.3,3.8 -108.8,10.2 0,0 -14.7,3.8 -12.2,58.8 0,0 -13.5,19.2 -24.5,-58.8 0,0 -40.4,6.4 -52.6,17.9 -12.2,11.5 -25.7,44.8 -25.7,44.8 0,0 0,0 -11,-7.7 -11,-7.7 -26.9,-26.9 -26.9,-26.9 l -58.7,3.8 c 0,0 1.2,16.6 -4.9,20.5 -6.1,3.8 -59.9,11.5 -59.9,11.5 z"/>
    
	<path id="darkGrain" style="fill:#5f3b3b; fill-opacity:1;"
    d="m 1666.9243,185.41602 c -3.851,20.50065 20.9219,69.37777 38.7637,35.7246 -5.7462,-22.51493 -18.8347,11.91331 -23.6926,-14.76447 -2.4749,-7.90569 -2.41,-24.34643 -15.0711,-20.96013 z m -32.7386,3.63237 c -13.8137,41.01596 -0.6227,88.02304 3.2852,132.17384 15.8451,118.51257 69.65,236.2975 40.7815,357.22094 -20.7974,78.76122 -79.8687,141.27591 -96.7079,221.66146 -17.7462,61.132 -27.3687,124.45047 -28.4896,188.13517 25.1526,-10.3035 6.367,-61.7505 16.0755,-88.41452 6.1014,-35.2423 1.9726,-72.48317 19.3055,-104.86145 35.51,-87.91423 107.2291,-163.1562 111.4903,-261.95674 8.108,-120.09731 -43.4933,-233.18231 -53.231,-351.65842 -6.5124,-28.18987 -0.9501,-72.05936 -12.5095,-92.30028 z m 303.4021,207.64302 c -9.4224,17.04087 -24.4209,30.99697 -34.3634,49.43255 -14.5357,26.95219 -21.707,59.17593 -13.2585,89.09927 8.3232,43.86961 23.2938,86.19497 40.5732,127.267 0.098,-37.12567 -21.5623,-69.92914 -27.6174,-106.32046 -12.039,-35.65944 -14.0898,-72.98796 7.7402,-105.33962 7.1264,-15.94336 34.9429,-44.10295 26.9259,-54.13874 z m -7.2232,88.77327 c -7.0196,12.68243 0.5012,49.89404 0.5229,24.81578 0,0 3.1999,-28.81063 -0.5229,-24.81578 z m 8.4165,-223.26741 c -18.7906,61.86228 -66.2102,107.54377 -97.2164,162.61333 -27.815,55.46712 -8.4008,119.26969 6.4424,175.56746 14.6483,57.39436 52.4696,104.44146 72.9148,159.27084 17.6876,44.34231 -11.0027,92.28543 9.0891,136.35353 13.4402,47.35057 9.8799,-23.10133 7.8351,-40.68021 -1.0839,-40.12698 6.728,-83.20512 -11.0739,-120.59204 -31.1035,-60.19781 -64.7829,-120.45501 -77.3207,-187.91628 -12.3677,-48.33176 -10.9875,-103.39034 22.5753,-143.39938 24.2085,-34.61534 55.6488,-67.6679 67.3119,-108.73679 -0.1235,-9.69424 0.5068,-28.74911 -0.5576,-32.48046 z M 1908.258,147.05513 c -4.8602,1.70579 -7.6803,-3.30126 -10.0591,1.06048 -9.7674,17.90961 -3.6103,62.25629 -17.0747,81.59454 -21.762,68.82897 -96.6127,101.99439 -119.0728,170.62756 -33.8952,93.35399 3.1618,193.70703 50.593,275.10058 28.015,45.96966 51.4972,97.22943 47.6797,152.46977 -2.3842,41.96259 10.6973,82.10297 29.0788,119.23424 16.9391,41.21576 22.3196,86.6322 18.5719,130.8738 24.414,-8.1698 7.9748,-59.1467 7.6139,-84.23012 -7.3536,-54.4942 -45.1238,-101.8077 -40.0065,-158.40583 5.5387,-61.68626 -19.3071,-120.17574 -50.2736,-172.01353 -42.0804,-75.99197 -79.5757,-167.50307 -47.9384,-254.32017 23.3068,-70.26748 100.7626,-105.32224 120.3385,-177.74574 7.6313,-26.40542 14.9438,-60.35088 10.5493,-84.24558 z m -95.7082,51.35862 c -3.7043,4.17993 -14.4345,25.69326 -19.5283,35.63629 -36.6009,71.44472 -84.0147,143.5933 -81.5221,227.12933 0.9992,100.45344 18.0899,202.3793 63.9853,292.62086 34.4654,58.92472 16.7908,129.43374 35.0035,192.67765 3.1531,10.46862 17.6151,75.06962 16.7695,41.05967 3.8958,-27.22288 2.1253,-1.06828 5.3933,14.66605 6.9573,26.7774 1.586,-40.86423 -6.3856,-53.61716 -17.58,-50.30974 -6.8643,-104.48959 -20.1987,-155.31807 -18.5892,-54.10501 -49.2168,-103.82142 -59.7962,-160.78657 -15.6359,-75.67031 -29.182,-155.38738 -12.9697,-232.09222 16.5846,-67.69689 58.3384,-125.0522 85.7267,-188.31762 -1.5923,1.7075 -3.7213,-11.56135 -6.4777,-13.65821 z m -137.2256,767.10383 c -34.9227,6.75626 -29.9715,52.43052 -42.2146,78.13212 -8.7225,14.1214 -7.5599,49.0969 0.2035,18.0768 11.7675,-16.8912 12.0967,-46.3383 27.7472,-41.3214 6.217,-12.8671 18.7205,-32.76168 23.5008,-34.88868 15.9884,-7.11401 20.7096,47.21278 15.7901,65.21818 0.063,32.8569 8.7152,21.404 8.2658,5.4244 -0.4037,-31.4371 15.5258,-88.18164 -33.2928,-90.64142 z m 16.2639,-143.1579 c -37.1037,7.45736 -58.3693,44.85788 -74.7358,75.95962 -26.29,58.48711 -40.187,122.3034 -44.6685,186.1224 31.011,-1.3371 14.2072,-52.9869 27.0223,-76.5761 13.8349,-60.12642 30.9181,-125.54529 79.1768,-167.66815 39.5174,-21.80632 60.4023,37.19024 56.3601,68.46042 -2.706,41.29507 -12.5922,88.31718 16.1928,123.42623 14.1928,10.786 23.3648,57.4187 32.4414,44.9047 -9.7303,-40.2633 -52.9281,-66.7695 -47.8467,-111.47808 1.1118,-44.27044 14.8775,-98.50485 -21.148,-133.26824 -6.2254,-5.66035 -14.1284,-10.17181 -22.7944,-9.8828 z M 1562.7448,216.27193 c -10.189,33.98585 -4.5472,83.00663 -2.9805,122.82201 10.3949,109.70704 75.6511,212.67131 54.8892,325.09347 -15.7299,74.54566 -69.267,134.89929 -82.941,210.36627 -15.2065,70.67374 -18.7761,144.47982 -8.5283,216.09332 25.3426,-12.0055 1.2369,-62.5616 9.3215,-90.0482 -0.3263,-84.39176 21.31,-168.19087 63.5769,-241.31953 33.3702,-58.90098 50.0655,-128.53472 35.5118,-195.65001 -17.4589,-93.36283 -60.221,-181.8839 -59.0759,-278.4916 -4.4224,-14.67106 4.3373,-51.56347 -0.34,-66.52744 -1.4548,-4.65429 -4.7221,-1.71985 -9.4337,-2.33829 z m -68.151,-26.34615 c -1.4807,63.90817 -4.6021,128.89803 12.6553,191.21995 22.0673,100.17094 58.2905,203.51949 27.4287,306.47218 -4.1768,21.4085 -31.3123,74.0595 -21.7909,75.36473 30.8623,-59.15449 51.7831,-139.06153 41.5543,-205.64426 -10.0818,-92.69986 -54.776,-171.79296 -47.5396,-266.44307 -3.9464,-32.76298 14.6776,-83.51825 1.8833,-105.6375 -4.4256,1.60418 -16.7041,-4.06353 -14.1911,4.66797 z" />
    
	<path id="lightGrain" style="fill:#875454;fill-opacity:1;"
    d="m 1954.0074,843.40485 c -4.321,-41.233 -2.5597,-71.38997 -2.5907,-96.45151 -20.7681,-57.53264 -55.2409,-98.09404 -70.8143,-157.87893 -16.2448,-56.18873 -32.817,-123.11071 4.4348,-174.94509 25.0927,-39.308 55.2004,-59.57308 68.0904,-105.10845 -0.8654,-12.84088 1.918,-50.01399 0.1593,-32.36665 -20.6401,61.07756 -72.9916,103.62061 -97.588,162.33731 -18.3164,53.54239 -0.7333,110.96816 13.2851,163.40025 14.7946,56.90243 52.6817,103.45007 72.5481,158.08951 16.7432,42.36985 -9.784,87.82627 7.1154,130.22573 4.6144,16.21375 6.6985,-0.14439 5.0882,-28.98933 0.2018,-6.10209 0.2515,-12.20788 0.2717,-18.31284 z m -2.8587,-434.1995 c -23.4659,42.83522 -51.1328,75.95145 -36.709,127.53201 8.3207,43.87016 18.8316,68.09545 36.109,109.16807 0.1,-37.12601 -14.0713,-53.34449 -20.1262,-89.73605 -12.0405,-35.65901 -13.335,-76.01359 8.4956,-108.36503 7.2236,-17.76839 15.8708,-18.24892 12.2306,-38.599 z m -9.5308,637.33945 c 1.6603,-54.28986 -19.1164,-105.13583 -38.3907,-154.73834 -12.9982,-47.45239 1.5971,-98.68646 -17.5212,-145.17849 -29.673,-78.16848 -84.9486,-147.13026 -96.1018,-232.04972 -12.2323,-68.71603 14.0142,-140.66919 66.0469,-186.8164 40.6823,-38.12176 70.3381,-88.95332 74.0067,-145.46853 7.4445,-15.3344 -0.4826,-54.78043 -12.0953,-24.9137 -3.3979,58.10189 -25.6748,116.27234 -70.5629,154.96021 -45.657,41.49774 -78.3079,99.59977 -76.7733,162.67781 -1.5326,88.5902 44.0721,167.88936 85.9705,242.75327 25.5705,43.05328 25.578,93.54563 26.6777,141.91456 3.139,54.77521 41.73,99.87282 45.1369,154.85123 9.1466,19.769 -10.1854,62.678 11.5601,65.5376 1.3655,-11.121 2.0347,-22.326 2.0464,-33.5295 z m -75.518,26.3452 c -0.3394,-75.26674 -34.5387,-151.08666 -30.4439,-226.87244 1.9565,-70.94724 -47.7071,-127.95668 -62.0882,-195.17687 -19.5562,-78.73897 -32.7845,-161.78949 -20.0149,-242.65808 19.107,-91.38227 86.1101,-163.77227 107.0804,-254.56878 -37.2106,-4.41097 -9.9531,66.65059 -35.8645,59.9054 -37.1109,77.51677 -92.5055,152.24211 -90.9473,242.22019 0.3484,102.24126 17.4642,206.16537 64.3542,297.9626 34.2802,59.17301 16.1985,129.7279 34.8772,193.06902 2.8571,14.07103 8.6866,42.27067 14.7417,75.38946 3.7071,18.7905 7.7734,68.2803 18.3053,50.7295 z m -60.3162,9.9607 c -7.577,-42.8974 -54.2371,-69.7901 -49.072,-116.24547 1.091,-44.31967 14.8968,-98.4091 -21.124,-133.27086 -30.7998,-27.28224 -63.6914,11.79841 -80.6187,36.30971 -39.8661,64.06372 -55.1655,140.57492 -61.5483,214.86512 29.1195,4.4338 14.2534,-45.0892 24.8919,-65.594 13.9364,-63.40472 30.5096,-133.00219 81.2501,-177.64788 39.5645,-21.8063 60.4242,37.26886 56.3565,68.56235 -2.5685,41.33029 -12.7281,88.26842 16.2347,123.37763 15.4924,11.8205 17.7318,47.7129 33.6298,49.6434 z m -66.8528,-72.3577 c 9.729,-39.6915 -53.3796,-64.91036 -62.8957,-20.09332 -16.1316,21.33062 -15.1059,33.00502 -12.4753,34.72912 6.2334,-9.9208 1.4887,0.6105 9.6133,-2.9743 -2.3735,-36.11855 56.1709,-49.13575 52.8078,-12.6288 -1.8131,16.753 -6.0791,67.1224 6.3447,63.7005 6.6757,-15.4185 2.9218,-39.3169 6.6052,-62.7332 z m -12.8553,-786.87345 c -0.623,-2.43064 13.4837,-25.68122 15.9809,-33.19252 2.1744,-6.54025 -3.1812,-3.26875 -3.9445,-3.67319 -6.4658,-3.42552 -7.5828,42.48979 -26.9434,22.73582 -15.693,-19.1039 -29.73,-22.68829 -17.0232,2.55601 3.3384,16.79712 19.5275,27.85476 31.9302,11.57388 z m -3.6936,381.7649 c -0.85,-113.04433 -46.2912,-219.57911 -54.9784,-331.8083 -6.7084,-23.85574 1.1162,-67.2675 -8.7336,-86.17773 -1.5712,-1.33482 -10.9999,0.12124 -11.0764,0.48326 -2.91,20.58049 7.6094,78.41753 8.5105,110.81269 12.4567,121.60051 69.1609,239.81518 47.0046,363.75451 -15.8734,84.26282 -80.593,148.73528 -98.8378,232.33445 -18.4653,62.30776 -28.3531,126.95697 -29.5697,191.94417 25.6149,-11.3635 5.8095,-64.9908 16.2833,-92.7031 4.7238,-41.46908 5.2366,-83.72426 27.8533,-120.50445 36.566,-79.3852 98.9412,-150.93802 102.5426,-242.12567 0.6589,-8.65353 0.9785,-17.33171 1.0016,-26.00983 z m -62.6282,13.51655 c -2.2116,-110.75705 -63.5675,-210.7787 -63.7612,-321.99291 -3.0252,-25.56506 2.3014,-59.35638 -3.2674,-80.07565 -4.7867,3.05354 -11.7136,-4.22238 -13.7702,1.26295 -8.3029,22.14505 5.4788,72.214 2.2922,97.08621 2.1478,118.0128 76.7109,226.36085 57.5156,345.93606 -14.1379,76.45321 -69.5643,137.77741 -83.6617,214.51077 -16.6509,71.03278 -16.0697,144.69587 -11.1991,217.06827 29.7653,-8.2011 2.6843,-61.147 11.6188,-87.8011 -0.6272,-83.92894 20.109,-167.51308 61.8184,-240.4532 23.8228,-45.01108 43.4085,-93.72038 42.4146,-145.5414 z m -80.8299,-10.6237 c 0.2824,-110.02119 -56.8699,-212.22617 -47.4741,-322.96568 1.2543,-33.80219 4.4381,-67.49505 7.9696,-101.1241 -23.8824,-7.0648 -22.6638,12.45347 -21.7218,31.49333 -8.8283,91.32853 14.1462,180.25301 36.3847,267.71464 20.8544,80.8439 30.7469,167.11728 -10.0889,243.69247 -8.3822,19.51818 -28.8788,61.16827 -20.5198,69.41177 26.0157,-60.37358 58.4454,-120.27438 55.4503,-188.22243 z" />
	
    <path id="blackGrain" style="fill:#402828;fill-opacity:1"
    d="m 1681.779,183.65106 c 2.5562,12.48038 6.8179,25.96704 23.5986,37.85627 2.6763,1.18742 7.7109,-0.13017 11.6102,-5.44928 -1.8986,-3.23791 -8.1695,-0.0993 -13.0618,-1.22481 -9.4981,-7.85639 -11.9286,-14.5166 -13.7416,-24.28352 -3.0345,-2.92927 -6.6034,-9.16893 -8.4054,-6.89866 z m -43.1881,1.54514 c 2.0216,97.09526 23.3123,197.96876 46.7861,291.84537 19.7014,85.1075 28.3613,179.77786 -14.7418,259.48204 -22.615,45.93002 -53.1226,88.37928 -67.5883,138.00764 36.8252,-80.5986 101.0833,-152.7644 104.3379,-245.31036 7.3231,-117.55279 -42.9941,-227.94313 -53.1737,-343.76794 -6.367,-25.09673 -2.9248,-77.59666 -10.3991,-100.11302 -1.1287,-3.40007 -2.9062,0.74357 -5.2211,-0.14373 z m -60.7082,779.3394 c -4.0966,26.28505 -13.9063,96.4136 -11.4579,120.4225 0.4457,4.3707 3.3668,-0.029 4.5658,1.329 1.222,-37.5347 3.3158,-84.4209 8.2906,-121.65429 z m 371.0075,-562.89408 c -23.6145,40.19788 -55.8786,88.46554 -40.732,136.69129 7.7528,38.5436 27.9799,80.10025 42.8252,116.43191 0,0 0.075,-9.088 -0.5947,-11.11371 -8.9813,-27.18284 -26.5917,-62.84493 -32.5566,-96.50193 -13.7994,-37.67323 -2.0686,-75.11442 19.6106,-107.7973 2.3259,-5.38351 21.1515,-43.38155 11.4475,-37.71026 z m 3.7312,-125.20793 c -22.1794,61.71134 -84.079,110.87856 -105.1809,172.78001 -12.9586,53.73289 4.1833,109.51078 19.3838,160.97791 16.6132,60.03988 63.8683,106.51168 76.7374,167.66431 5.5959,37.85821 -9.3184,74.64493 6.9388,111.5608 7.2212,12.42449 0.1362,-36.26314 1.5066,-48.92865 -0.4308,-40.74925 0.063,-77.64705 -21.5371,-114.39543 -41.767,-74.6232 -79.9654,-155.5622 -80.7295,-242.76712 0.9102,-71.48258 73.5451,-121.31727 99.5799,-182.88434 5.1483,-1.83426 5.9101,-32.27309 3.301,-24.00749 z m -40.0869,-129.26833 c -2.6833,14.99609 -3.3795,62.78209 -16.0717,88.67702 -22.9975,68.00041 -97.9547,100.5712 -119.5924,169.54034 -32.5319,92.48217 5.3491,191.18595 52.5437,271.26978 27.0308,44.83618 50.8505,94.38234 47.6657,148.22626 -2.3012,40.66293 7.9312,80.39958 26.5442,116.3169 18.8511,42.13353 24.2094,93.68254 20.8817,139.53944 1.1401,-3.697 3.1851,3.7346 3.8886,-0.3585 5.5973,-32.5696 -3.0301,-87.60287 -11.9457,-119.71569 -15.0045,-41.95053 -36.8842,-83.36895 -31.8434,-129.51785 6.4067,-69.11889 -31.1949,-129.6965 -62.6965,-187.846 -39.3353,-72.94768 -64.1961,-159.00816 -29.338,-239.15325 26.5215,-65.15208 96.1241,-103.87537 114.8178,-173.54169 5.3646,-20.65805 16.387,-61.70347 14.4336,-82.15674 -0.3197,-3.34762 -6.5186,-0.85569 -9.2876,-1.28002 z m -67.2415,11.34255 c -15.6001,3.18785 -18.7558,68.43994 -7.6843,27.69177 2.714,-8.55505 7.8332,-20.8032 7.6843,-27.69177 z m -29.3478,59.67503 c -37.7739,74.9515 -90.9089,153.54047 -88.5127,241.20597 0.8484,100.25074 15.9908,208.37733 62.0792,298.26361 25.0192,39.28275 21.0714,108.58106 27.4615,161.48225 0.9991,11.55161 11.498,44.075 15.3164,45.42917 2.3502,0.83348 4.5286,-1.79088 3.9381,-18.39492 -14.1269,-55.76902 -4.7535,-134.56936 -33.7983,-186.83525 -51.0723,-99.14594 -71.3306,-212.53974 -66.8511,-323.39489 6.6078,-79.42216 55.5127,-149.59605 88.3883,-219.68172 -2.8689,2.43396 -7.9129,-4.68209 -8.0214,1.92578 z m -123.1854,749.29568 c -38.2049,11.84307 -32.6716,68.95248 -47.8314,99.78318 -1.2623,7.693 2.7091,8.9245 3.8316,5.7665 2.9428,-8.2793 9.6375,-46.7956 14.2257,-51.4504 13.8779,-5.3952 19.9125,-68.08044 49.3307,-32.87508 14.1595,26.62898 -3.6186,59.89108 9.3863,87.19758 0.418,-4.0869 2.4255,-5.6262 2.6722,-9.9698 1.4347,-25.2605 7.9522,-61.4718 -5.765,-86.05776 -6.0029,-7.90169 -15.883,-12.84518 -25.8501,-12.39422 z m 8.7871,-142.05664 c -37.3086,9.07867 -58.4505,47.04656 -74.6712,79.01909 -24.585,56.55458 -39.3926,120.13513 -43.9027,181.55633 2.1465,-0.5943 5.1091,0.1552 6.7156,-1.0212 14.8913,-10.904 7.0922,-59.5405 18.6488,-81.6705 14.2486,-59.34467 32.017,-124.25149 81.0182,-164.679 43.2561,-20.31859 61.7849,42.2167 56.668,75.89896 -3.122,39.47215 -9.9451,84.37461 17.901,117.64774 7.0485,7.1774 21.5409,41.0296 27.643,50.7417 1.3676,2.1767 4.8495,1.5521 4.8495,1.5521 -2.198,-3.4357 -8.0863,-17.9319 -10.0362,-23.7632 -14.7495,-29.3696 -39.4706,-55.9968 -36.8353,-91.94367 -0.1532,-45.37867 11.7929,-98.93438 -25.866,-134.45446 -6.0532,-5.34596 -13.8137,-9.49696 -22.1327,-8.88389 z m -125.829,-608.90431 c -7.8674,23.27222 -0.7464,63.26672 -2.0214,90.90791 -0.1499,121.87086 78.8594,233.03693 57.9609,356.17336 -14.9812,76.80226 -71.1625,138.10052 -84.6984,215.63091 -15.7067,68.38656 -14.6353,145.32835 -10.1449,214.97755 1.3268,-1.7376 2.6594,-0.7414 3.505,-2.8642 7.9789,-20.0316 -4.6538,-64.8853 -0.2176,-89.4741 0.1151,-82.83629 20.202,-165.56743 61.9097,-237.45033 32.6802,-57.1215 55.3838,-125.6171 42.6552,-191.48851 -15.6141,-95.24525 -64.3637,-182.86379 -63.8033,-280.98938 -2.009,-16.2833 0.5242,-55.8149 -0.6823,-74.14918 -0.1556,-2.36465 -4.0728,-0.21858 -4.4629,-1.27403 z m -65.7218,-21.24999 c -6.5882,72.12184 0.1629,144.90938 19.9409,214.58363 23.3484,94.78681 57.8399,191.76402 21.2587,287.82808 -9.5482,31.45881 -33.2085,63.96219 -38.4542,95.97508 1.2095,14.96769 15.9713,-34.53648 23.5276,-45.31722 32.6155,-61.83004 44.9593,-134.63022 31.9824,-203.08877 -13.8445,-86.43595 -52.9469,-169.33634 -45.3746,-258.36784 1.1504,-33.97402 4.5103,-67.82031 7.957,-101.62273 -9.8279,1.90035 -24.2253,-6.18807 -20.8378,10.00977 z" />
	
    <path id="woodOuter" style="fill:#402828; fill-opacity:1"
    d="m 1676.9077,1058.0063 c 3.917,15.445 3.7487,21.7167 7.5881,22.8185 7.9006,2.2223 16.6249,4.0847 24.022,5.0106 4.0928,0.3899 9.4718,0.9963 12.3595,-1.0994 2.1803,-1.7863 3.5658,-4.3053 5.4048,-6.4072 1.9614,-1.5886 8.8606,7.3226 12.7234,8.9256 3.1683,1.1319 5.8642,1.4852 8.9271,1.4915 8.7429,-0.1525 17.4881,-0.2368 26.2298,-0.4746 9.8344,-0.2582 19.7816,-0.6331 29.5898,-1.2188 6.3231,-0.4748 13.2179,-0.9274 18.7565,-2.0138 4.747,-1.3676 4.9733,-7.2806 5.7217,-11.1678 1.1694,-7.0652 1.8679,-14.2115 2.6212,-21.2975 0.6793,-16.2642 1.7586,-30.0697 7.3596,-42.4506 2.1404,4.999 4.4406,9.9289 6.5293,14.9493 2.1782,12.3562 4.5314,24.6248 7.249,36.8764 1.9643,5.9868 2.1032,13.5581 6.0635,18.1997 6.1241,1.5503 17.7981,2.4725 25.121,2.9375 16.1068,0.9371 33.1667,1.6524 47.9516,1.5062 7.0826,-0.2484 24.5346,-0.5229 24.0879,-5.8851 -1.3678,-38.1359 -2.4164,-76.2953 -2.0208,-114.45964 0.193,-16.17951 0.5993,-32.37839 2.2099,-48.48767 0.4499,-4.8075 0.786,-9.54754 0.9453,-14.39194 0.6518,-16.55316 0.3376,-33.23243 -0.062,-49.78966 -0.7823,-30.10182 -2.3605,-60.18705 -2.3887,-90.30468 0.012,-10.59301 0.2952,-21.20991 1.66,-31.72566 1.1275,-12.79274 0.8131,-26.73684 0.4362,-38.90866 -1.1229,-33.42247 -3.475,-66.78608 -4.9507,-100.2047 -0.5975,-14.97792 -1.208,-29.97403 -0.7379,-44.96431 1.0576,-12.7916 2.6218,-25.74221 3.2907,-37.63003 0.6096,-12.50364 0.9424,-25.16101 1.2204,-37.69751 0.9348,-43.68241 1.1317,-87.37602 1.3329,-131.06666 0.161,-43.0193 0.151,-86.03927 0.3933,-129.05822 0.5903,-10.53701 -0.065,-21.35709 -1.2885,-30.99905 -2.1008,-6.7375 -3.1161,-36.05465 -7.7404,-38.24857 -26.3495,0.55946 -53.8962,2.94579 -76.4716,5.20588 -10.8471,3.40983 -29.8542,-0.0639 -37.5698,6.56498 -12.3242,14.58708 -11.4799,37.84082 -15.4542,53.87532 -7.7309,-10.24153 -10.4439,-56.18757 -18.3611,-55.50452 -18.7455,5.26427 -42.9096,5.96597 -55.9707,21.10907 -4.9588,5.80803 -8.8824,12.4107 -12.5387,19.09057 -3.9426,7.40603 -6.9262,13.92214 -10.0826,20.77363 -5.4683,-3.91923 -11.1484,-7.62195 -15.954,-12.37036 -6.6112,-6.18167 -12.6613,-12.93241 -18.548,-19.79842 -20.2568,-1.40704 -43.7082,1.89384 -61.5701,3.1326 -4.398,5.23358 -2.4239,14.7643 -4.5881,20.6436 -7.3816,2.60004 -15.1343,3.84612 -22.7924,5.32685 -11.5255,2.13323 -23.1101,3.91961 -34.7037,5.63994 -5.0723,-11.01055 -10.0816,-22.0532 -15.2363,-33.02343 -15.5758,-3.61689 -42.0388,-1.1869 -56.7569,-1.11654 -1.6356,0.28262 -2.7215,2.03558 -2.4411,3.63682 0.4053,66.69378 0.7556,133.39017 0.3264,200.08473 -0.3837,24.53762 -0.753,48.91397 1.4796,71.62864 1.4396,14.44386 3.6958,28.91109 6.0327,43.28348 3.2848,20.32729 6.4916,40.75064 6.9867,61.37513 -0.57,28.16143 -0.2396,59.84722 0.5095,85.94293 1.3364,44.39369 3.2726,88.77187 3.9797,133.18221 0.2629,19.03057 0.329,38.07144 -0.3259,57.09482 -0.994,21.51095 -3.3034,42.47 -3.8912,62.4659 -0.4204,16.57356 -0.3114,33.23784 0.042,49.84405 0.6131,27.27668 1.8952,54.60518 3.8444,81.81868 0.935,13.0982 1.9783,26.2221 3.3396,39.2482 1.0629,8.1013 1.6601,16.5097 3.3369,23.8105 0.4413,1.8352 0.9334,3.9764 2.6327,5.0613 2.1986,0.9497 4.6642,0.4193 6.9591,0.1965 7.705,-0.9805 15.289,-2.7074 22.9023,-4.2143 7.1732,-1.451 14.3579,-2.8609 21.5825,-4.0336 6.7294,-1.2818 13.7494,-0.2956 19.9898,-0.6194 5.2982,-0.2657 10.6893,-1.0961 15.7952,-2.1554 8.0291,-1.6775 15.8098,-3.9704 23.8086,-5.8301 5.5853,-1.3051 11.2843,-2.1393 17.0211,-2.3161 1.6157,-0.1013 3.2487,-0.029 4.8547,-0.1963 1.4008,-0.3576 2.2534,-1.7814 2.2844,-3.1688 2.5226,-14.3386 5.7256,-28.6275 10.1249,-42.4848 0.5853,-1.9075 1.8187,-6.0215 2.9981,-8.84 0.5664,-1.3533 1.9948,-3.128 2.9539,-2.6442 2.8786,2.9599 6.3005,22.2618 8.8661,35.5164 z m -14.7225,-36.422 c -2.277,2.9797 -3.5999,6.544 -4.9393,10.0109 -1.8286,5.0067 -3.2213,10.156 -4.584,15.3047 -0.2383,0.9347 -0.5405,2.1358 -0.7984,3.175 -1.9617,8.0415 -3.5524,16.0956 -5.2094,24.2058 -6.6006,0.2677 -13.193,1.0218 -19.6238,2.5625 -11.0581,2.4979 -21.9476,5.9114 -33.2371,7.2564 -8.0529,1.4162 -15.8358,-0.3985 -23.2348,0.6987 -9.7486,1.409 -19.3861,3.4677 -29.0706,5.2454 -7.2052,1.3643 -14.4242,2.6583 -21.6677,3.8035 -2.5167,-14.8479 -3.8038,-29.8639 -5.077,-44.8585 -2.9873,-36.9284 -4.8159,-73.95267 -5.4455,-110.99719 -0.272,-18.79499 -0.1663,-37.60689 0.8675,-56.37883 1.8562,-20.94818 3.2522,-42.95337 3.5744,-62.32506 0.2934,-21.28705 -0.063,-42.61901 -0.5463,-63.87409 -1.1168,-46.24779 -3.3238,-92.46398 -4.2888,-138.71522 -0.2576,-29.485 1.4594,-56.8436 -1.8286,-85.00452 -3.0284,-25.15853 -8.3004,-50.00263 -10.7719,-75.23355 -1.6062,-15.59753 -2.1862,-31.29515 -1.8308,-46.97059 0.6673,-45.44109 0.5381,-90.88869 0.4317,-136.33309 -0.084,-28.80974 -0.2435,-57.61919 -0.407,-86.42857 h 48.7657 c 5.1147,11.10287 10.1477,22.24626 15.3548,33.30431 18.1727,2.04154 48.7265,-4.69655 63.633,-10.55016 3.0869,-1.76034 4.6081,-5.23772 5.5181,-8.51737 1.0259,-3.87942 1.146,-7.91257 1.4706,-11.89108 17.9856,-1.17494 35.9714,-2.34763 53.9571,-3.52149 7.3451,8.37407 14.8112,16.72563 23.4215,23.83414 4.5288,3.5868 9.3652,6.62993 14.0374,10.04672 15.8811,-10.59636 16.4977,-34.74758 31.3787,-46.53472 13.8537,-8.85114 31.5625,-12.1767 46.0784,-15.22309 2.8886,14.69074 8.5056,62.67868 24.5125,60.40999 13.6538,-13.99144 1.3447,-42.29692 13.4899,-59.03667 9.5426,-6.16378 38.5589,-6.83476 49.2945,-7.82139 19.445,-1.73059 38.9278,-2.9906 58.4181,-4.08513 2.8702,15.49936 5.6862,31.05253 6.8425,46.79087 0.077,17.98837 -0.1961,37.64213 -0.2495,53.7556 -0.1284,58.81309 -0.1191,117.62779 -0.7841,176.43806 -0.3119,26.48769 -0.7259,52.97674 -1.746,79.44783 -0.3414,7.77455 -0.7273,15.55498 -1.5406,23.29624 -4.1024,26.22062 -1.6096,56.47019 -0.4172,80.83894 1.3023,25.17558 2.8445,50.42312 3.8606,75.6453 0.4687,13.5699 0.9681,27.16282 0.3128,40.7348 -2.1056,17.06645 -2.1861,36.53018 -1.971,52.38106 0.5037,27.25258 1.7641,54.57901 2.3797,81.86664 0.2958,15.71463 0.5645,31.44785 -0.2178,47.15255 -1.2108,14.77672 -2.2118,28.78996 -2.6301,42.98529 -0.7688,29.22611 -0.3198,58.62397 0.3762,87.86647 0.3323,13.9425 0.8103,27.8811 1.3238,41.818 -11.8602,1.2729 -23.8112,1.256 -35.7204,0.9049 -17.2654,-0.4597 -34.5156,-1.4807 -51.7132,-3.0768 -3.46,-10.7449 -5.5365,-21.8603 -7.7394,-32.9117 -7.0702,-34.926 -10.9207,-65.9948 -16.3709,-97.15694 -2.5447,-3.00496 -5.9192,-1.65223 -5.7836,1.91368 -1.6734,34.19857 -3.5497,68.40036 -6.6822,102.50126 -0.9234,9.9906 -1.9655,19.9937 -4.0117,29.8275 -13.4528,1.6041 -27.0068,2.014 -40.5349,2.5182 -11.6768,0.3857 -23.3605,0.7238 -35.0438,0.6401 -5.178,-0.3892 -9.7117,-3.8361 -12.343,-8.1857 -2.3139,-3.5628 -3.5735,-7.6738 -4.5483,-11.7707 -0.7341,-1.7818 -3.3556,-2.4631 -4.7285,-1.0109 -1.1865,1.0639 -0.9998,2.7606 -1.3432,4.1756 -0.7905,4.2949 -1.8684,8.6139 -3.9576,12.4761 -9.6399,4.3455 -21.9996,-0.7371 -31.6336,-3.0341 -3.4333,-13.9483 -5.6331,-28.0736 -9.6621,-41.8633 -2.1254,-5.1133 -2.7381,-14.1795 -9.7595,-15.2998 -2.9565,-0.089 -4.5106,1.2847 -5.6063,2.7772 z" />
  </g>
</svg>
