<svg viewBox="0 0 406 283" xmlns="http://www.w3.org/2000/svg">
	<g id="ivy1" transform="rotate(-63.54, 161.07, 215.97)">
		<g id="stemB">
			<path id="stemB_stems3" style="fill:#98c93c; "
			d="m238 355c2.2 0.5 4.3 0.9 6.5 1.1s4.4 0.2 6.6 -0.1c1.1 -0.2 2.1 -0.5 2.8 -1 0.6 -0.4 1 -0.8 0.9 -1.1l -0.2 -0.7c -0.1 -0.3 -0.6 -0.5 -1.3 -0.5s -1.6 0 -2.5 0.2c -1.9 0.2 -3.8 0.3 -5.8 0 -2 -0.2 -4 -0.6 -6.1 -1.1 -6.9 -1.6 -14 -4 -20 -3.9 -6.5 -0.1 -12 1.6 -17 3.8 -2.2 1 -4 2.3 -5.6 3.3 -1.5 1.2 -2.8 2.2 -3.8 3.1 -1.8 2 -2.8 3 -2.8 3s1.1 -0.9 3.1 -2.7c1.1 -0.8 2.4 -1.7 4 -2.7 1.7 -0.8 3.5 -1.9 5.7 -2.7 4.3 -1.7 9.8 -2.9 16 -2.5 5.9 0.4 12 2.8 20 4.5z" />
			
			<path id="stemB_stems2" style="fill:#98c93c; "
			d="m314 279c -0.22 -5.8 -0.75 -12 -2.7 -17 -4.2 -3.4 -1.5 6.6 -1.3 8.6 1.8 11 0.9 23 -7.8 31 -8.9 7.3 -21 4.1 -31 8.4 11 -3.1 23 0.84 33 -6 7.5 -5.5 10 -16 10 -25zm -0.7 40c2.6 -5.7 5.6 -11 6.3 -18 -0.94 -5.8 -5.5 2 -5.5 4.6 -4.5 13 -11 24 -19 35 -7.3 11 -14 23 -12 37 0.16 1.8 2.7 8.6 3.4 6.7 -3.9 -12 0.51 -24 7.1 -34 6.1 -9.1 13 -18 18 -28 0.22 -1.3 0.8 -2.4 1.4 -3.5zm4.1 -46c -1.2 -5.2 -2.3 -11 -5.9 -15 -4.9 -2.7 -2.1 5.5 -0.83 7.6 6.3 18 2.6 38 11 56 2.4 4.7 5.4 9.7 10 12 -2.7 -4.2 -6 -8.3 -7.5 -13 -5.9 -15 -3.9 -32 -7.1 -48z" />
			
			<path id="stemB_stem1" style="fill:#98c93c;"		  
			d="m239 142c -7.1 -5.5 -14 -12 -18 -20 -3.5 -3.6 -3.4 4.8 -1.4 6.4 4.3 7.9 12 14 19 19 14 10 32 17 50 17 12 -0.13 26 -5.3 33 -16 4.1 -6 6.3 -14 4 -21 -0.51 4.5 -0.43 9.2 -2.6 13 -5.1 12 -18 19 -30 20 -19 1.2 -38 -6.9 -53 -18z" />
			
			<g id="stemB_leafB2">
				<path id="stemB_leafB2_mid" style="fill:#57b847;"  
				d="m340 124c -1.7 1.3 -4.4 0.49 -4.3 -1.9 0.17 -3.2 -1.8 -6 -3.6 -8.4 -1.5 -1.5 -2.9 -3.6 -4.9 -4.4 -2.3 0.98 -4.1 3.1 -6.1 4.7 -2.1 1.6 -3.5 3.9 -4.6 6.2 -2.3 2 -4.4 -1.3 -6.7 -1.6 -2.8 -0.8 -5.8 -0.67 -8.7 -0.68 1.3 4.4 3.1 9 7 12 3.6 2.5 7.8 4.9 9.4 9.2 1.1 2.6 0.61 5.5 -0.67 7.9 -0.046 2.7 3.5 1.7 3.5 -0.49 2.9 -4.6 8.6 -6.3 14 -6.5 3.4 -0.053 7.1 -0.33 9.8 -2.7 3.7 -3 5.9 -7.3 7.7 -12 -3.5 -1.6 -7.6 -3.1 -11 -1.5z" />
				
				<path id="stemB_leafB2_dark" style="fill:#0bab4b;"
				d="m308 120c2.1 -1.1 2.7 1.8 4.6 2.3 3.8 1.8 7.2 4.9 8.4 9 1.1 2.7 0.84 5.8 0.042 8.5 -0.25 1.1 -1.1 4.6 -1.8 1.9 -0.95 -4.7 -5.1 -7.6 -8.7 -10 -4 -3 -6.5 -7.6 -7.8 -12 1.8 -0.094 3.6 0.2 5.2 0.9zm38 5.8c -1.2 -2.1 -2.3 0.17 -3.6 0.81 -2.7 1.3 -5.8 1.5 -8.4 3.1 -4.5 2.5 -8.2 6.4 -10 11 -0.51 0.95 -2.6 4 -0.23 2.7 4.3 -3 9.7 -2.7 15 -3.5 4.9 -0.95 8.5 -4.9 11 -9 0.64 -1.4 2.4 -3.4 1.9 -4.6 -1.6 -0.72 -3.4 -1 -5.1 -0.54z" />
					
				<path id="stemB_leafB2_lightmid" style="fill:#81c241;"
				d="m334 123c0.038 -0.99 -0.5 -1.9 -1.3 -2.5 -0.12 -0.97 0.17 -2 -0.31 -3 -0.39 -1.1 -1.2 -2 -2.2 -2.5 -0.37 -0.69 -0.13 -1.7 -0.84 -2.2 -0.7 -0.72 -1.6 -1.2 -2.4 -1.9 0.013 2.9 -0.23 5.8 -0.49 8.7 -0.34 2.5 -0.67 5 -1.3 7.4 -0.34 1.7 -0.8 3.4 -1.3 5.1 -0.28 0.97 -0.6 1.9 -0.88 2.9 0.77 -0.52 1 -1.5 1.7 -2.2 1.9 -2.6 4.4 -4.8 7.2 -6.5 1.2 -0.77 2.1 -2.1 2.2 -3.5z" />
				
				<path id="stemB_leafB2_light" style="fill:#98c93c;"
				d="m319 136c0.81 2 0.63 4.1 0.75 6.1 1.1 1.6 1.6  -1.6 1.4  -2.4  -0.17 -2.8 -0.9 -5.6 -2.6 -7.9 -2.1 -3.3 -5.5 -5.4 -8.5 -7.7 -1.5 -1.2 -3 -2.7 -3.4 -4.6 0.66 3.1 3.3 5.2 5.6 7.2 3 2.5 5.7 5.7 6.8 9.4zm6.3 2.3c -1.6 1.5 -3.5 2.9 -4.3 5 0.082 1.9 2 -0.6 2.4 -1.3 2.1 -2.1 4.4 -4.1 7.1 -5.4 3.2 -1.9 7 -2.1 10 -3.3 2.3 -0.95 4.4 -2.8 5.1 -5.2 -1.1 3.2 -4.6 4.7 -7.8 5.1 -4 0.5 -8.1 1.6 -11 4 -0.51 0.34 -1 0.7 -1.5 1.1z"  />
			</g>
			
			<g id="stemB_leafB3">
				<path id="stemB_leafB3_mid" style="fill:#57b847;"
				d="m337 268c -.95 -3.8 3.7 -3.7 5.4 -1.4 4.8 2.9 10 4.3 16 6 1.9 1.1 4.2.61 3.2 -2 -.64 -6.2 -2.1 -13 -6 -18 -1.4 -1.4 -5 -5.2 -1.7 -6.2 2.6 -.085 5.4 -.7 6.9 -3 .87 -1.8 3.7 -5.3 1.2 -6.4 -6.5 -3.7 -14 -7.4 -21 -7.7 -3.8 -.21 -7.3 1.5 -10 3.5 -7.5 4.2 -16 4.2 -24 6 -3.1.08 -2.7 4.1.16 3.1 4.8 -1.8 11 .33 13 4.8 2.3 3.7 1.6 8.1 1.6 12 .45 5.9 4.6 10 7.8 15 .85 2 2 2.6 3.6 1 2.8 -1.7 5.6 -4.1 5.6 -7.6z" />
				
				<path id="stemB_leafB3_dark" style="fill:#0bab4b;"
				d="m358 243c.77 1.4 -.2 2.6 -1.6 1.6 -3.8 -1.2 -7.6 1.1 -11 .99 -8.1.46 -16 -2.2 -24 -4.4 -2.4 -.76 -5 -.92 -7.5 -1.4.99 -1.6 3.6 -1.1 5.3 -1.9 4.2 -.93 8.1 -2.6 12 -4.7 3.8 -2 8.2 -2.2 12 -1.5 6.5 1 13 3.9 18 7.3 2 -1.5 3.7 -3.4 4.1zm -25 29c3.2.047.21 -3.1.96 -5 .45 -2.9.7 -6 -.26 -8.8 -1.9 -6.1 -6.5 -11 -12 -14 -2.6 -1.1 -5.4 -2.5 -8.3 -2.6.98 1.9 4 2.7 4.8 5.1 3.3 5.1.8 12 3.7 17 2.1 4.5 4.9 8.6 7.8 13 1.7 -.72 3 -2.2 3.4 -4z"  />
				
				<path id="stemB_leafB3_lightmid" style="fill:#81c241;"
				d="m341 264c1.1 1.1 2.6.93 3.9 1.2 1.7 1.8 4 3.2 6.5 3.3 1.6 -.44 2.1 1.7 3.6 1.9 1.3.32 2.7.59 4 .85 -1.9 -2.3 -3.8 -4.6 -5.9 -6.7 -2.9 -2.9 -5.9 -5.8 -9.1 -8.3 -3.7 -3 -7.5 -5.7 -12 -8.1 -2 -1.1 -3.9 -2.4 -6 -3.3.97 1.2 2.4 1.9 3.5 3 3.2 2.8 5.8 6.5 7.1 11 .75 2.2 1.9 4.2 3.8 5.7z" />
				
				<path id="stemB_leafB3_light" style="fill:#98c93c;"
				d="m326 240c -3.4 -.062 -6.9 -.48 -10 -.19 -2.2.14 -.33 1.6.88 1.3 7.2.036 14 1.4 22 .38 3.3 -.59 6.6 -1.4 9.9 -1.7 3.8 -.14 7.7.61 11 2.7 1 .47 -1.5 -.97 -1.9 -1.2 -4.1 -2.3 -9.1 -3 -14 -2.1 -5 .69 -10 1.5 -15 1.1 -.76 -.03 -1.5 -.074 -2.3 -.14zm -2.8 6.1c -2.5 -2.5 -5.7 -4.4 -9.2 -4.9 -2.3.29.77 1.7 1.7 1.8 6.1 2.2 11 8 12 14 .42 3.5 -.073 7.2 1.5 10 .33 1.1 1.8 3 2.3 3.3 -2.6 -2.9 -2.9 -7.1 -2.4 -11 .39 -4.1 -.7 -8.4 -3.4 -12 -.66 -.9 -1.4 -1.8 -2.1 -2.6z"  />
			</g>
			
			<g id="stemB_leafB4" >
				<path id="stemB_leafB4_mid" style="fill:#57b847;" 
				d="m263 290c2 2.7 -1 5 -3.6 4.2 -4.4.31 -8.3 2.5 -12 4.1 -2.3.39 -2.8 2.3 -1.2 4 2.5 4.2 5.7 8.2 10 10 2.3.24 5.2 3.1 2.2 4.8 -3.4 2.6 -3.5 7.3 -2.9 11 1.6.88 4.5 -.006 6.6 -.063 5.3 -.69 11 -2.1 14 -6.6 2.1 -3.7 3.8 -7.8 7.1 -11 3 -2.8 7 -4.5 11 -4.7 3.2 -.94.32 -4.2 -1.9 -2.9 -5.7.65 -11 -3.4 -13 -8.5 -1.5 -3.6 -2.4 -7.7 -5.5 -10 -2.7 -2.5 -6 -4.2 -9.2 -6.1 -1.3 3.5 -3.1 7.4 -1.8 11z" />
					
				<path id="stemB_leafB4_dark" style="fill:#0bab4b;" 
				d="m257 323c -2 -2 1.1 -2.1 2.3 -3.1 2.2 -1.8 3.5 -4.4 5.9 -6.1 3.8 -3.1 8.4 -5 13 -6 2.8 -.68 5.7 -.77 8.5 -1.3 2.4 -.36.01 1.5 -.98 1.9 -3.5 2.5 -5.8 6.2 -7.8 9.9 -1.9 3.7 -5.5 6.1 -9.3 7.5 -4 1.4 -8.4 2.1 -13 2.1 -.74 -1.7 -.21 -3.6.9 -5zm6.9 -37c -2.1 1.3.4 2.5.79 4 .91 2.6 1.4 5.3 3 7.6 2.3 3.4 6 5.7 9.9 6.8 3.3.72 6.6 1.1 10 .9 -1.1 -1.9 -4.1 -2.2 -5.3 -4.3 -3.6 -4 -4.1 -9.9 -8.1 -14 -2.8 -2.7 -6 -5 -9.4 -6.7 -.72 1.7 -1.1 3.5 -.8 5.3z" />
					
				<path id="stemB_leafB4_lightmid" style="fill:#81c241;"  	
				d="m262 296c -1.2 -.23 -2.2.75 -3.2 1.2 -1.7 -.52 -3.6 -.42 -5.1.58 -.79 1 -1.9.97 -3.1.77 -1.2.13 -2 1 -3.1 1.5 -.8.31 -.48.44.28.59 2.3.79 4.7 1.6 7.1 2.1 2.2.55 4.4.98 6.6 1.3 2.9.64 5.8.83 8.7 1.2 2.6.15 5.3.48 7.9.42 -.96 -.63 -2.3 -.6 -3.3 -1.1 -3.2 -1.1 -6.2 -3.1 -8.3 -5.7 -1.1 -1.4 -2.7 -2.6 -4.6 -2.9z" />
				
				<path id="stemB_leafB4_light" style="fill:#98c93c;" 
				d="m280 310c2.3 -1.2 4.7 -2.1 7 -3 1.9 -1.2 -.99 -1.5 -1.8 -.82 -3.4 1.2 -6.7 2.6 -9.6 4.7 -2.8 1.7 -5.1 4.2 -7.3 6.6 -1.9 1.9 -3.7 4 -6.2 5.2 -1.6 1 -3.6 1.2 -5.4 1.5 2.8.17 5.5 -.56 7.9 -2 4.7 -2.8 7.8 -7.6 12 -10 .96 -.63 2 -1.2 3 -1.7zm.2 -6.7c2 1.1 4.3 1.7 6.5 2 1.1.53 2.9 -.65 1.1 -1.2 -2.6 -.55 -5.3 -1.1 -7.6 -2.6 -3.6 -1.9 -6.1 -5.3 -7.5 -9.1 -1.2 -3.1 -2.9 -6.5 -6.2 -7.7 1.2.37 2.8 2 3.5 3.4 1.6 3.3 2 7.2 4.3 10 1.5 2.1 3.6 3.8 6 5z" />
			</g>
			
			<g id="stemB_leafB5">
				<path id="stemB_leafB5_mid" style="fill:#57b847;" 
				d="m271 396c1.3 -2.6 4.5 -1.5 4.8 1.1.86 3.2 3.5 5.6 6 7.6 2 1.5 4.2 2.9 6.6 3.8 2.3 -1.5 2.7 -4.9 4.1 -7.3 1.3 -2.6 2.2 -5.4 2.2 -8.3.9 -3.6 4.6 -.57 7 -.89 3 -.026 5.8 -1.2 8.6 -2.1 -2.2 -3.1 -3.9 -6.6 -7 -9 -3.9 -3.1 -9.2 -3.5 -13 -7.1 -3 -2.8 -4.3 -7.4 -2.8 -11 .18 -3.1 -3.7 -1.9 -3.2.68 -1.7 6.1 -7 11 -13 13 -3 1 -6 2.5 -7.7 5.3 -3.2 4.9 -4 11 -4.3 17 3.8.99 8.4 1.2 11 -1.9z"  />
					
				<path id="stemB_leafB5_dark" style="fill:#0bab4b;" 
				d="m303 391c -1.6 1.9 -2.9 -.83 -4.7 -.98 -2.9 -.71 -5.8 -1.6 -8 -3.6 -3.3 -2.9 -5.2 -7.2 -5.2 -12 -.18 -2 .12 -4 .34 -6 1.8 1.3 2 4.4 4.1 5.7 3.9 3.5 9.6 4.4 13 8.5 2.2 2.3 4 4.8 5.7 7.5 -1.7.49 -3.6.8 -5.4.6zm -38 5.8c1.3 1.5 2.2.2 2.5 -1.2 1.6 -2.7 4.8 -3.8 6.7 -6.2 4.4 -4.7 6.9 -11 8 -17 .031 -1.2 1.5 -3.7.29 -3.9 -1.6 1.8 -3.3 3.7 -5.3 5 -3.9 2.7 -9.3 3.4 -12 7.5 -3.7 4.8 -5.1 11 -5.2 17 1.8.51 3.8.18 5.2 -1z" />
				
				<path id="stemB_leafB5_light" style="fill:#90c73e;" 
				d="m288 376c -1.3 -2.1 -1.6 -4.5 -2.2 -6.8 -1.3 -1.7 -1.2 1.9 -.78 2.6.94 4.1 3.1 8 6.6 10 2.7 2.1 6.1 3.1 9 4.7 1.4.45 3.8 3.3 3.8 3.2 -1.4 -2.7 -4.1 -4.3 -6.7 -5.7 -2.4 -1.4 -5 -2.7 -7 -4.7 -1.1 -1.1 -2.1 -2.4 -2.7 -3.9zm -6.7 -.6c1.2 -2.2 2.5 -4.5 3.1 -6.9.085 -2.3 -1.9.071 -1.8 1.1 -1.6 3.4 -3.5 6.7 -6.1 9.5 -2.4 2.9 -6 4.4 -8.8 6.9 -2.2 2 -3.4 5.1 -3.3 8.1.092 -3.7 2.9 -6.9 6.1 -8.6 3.6 -1.8 6.9 -4.4 9.2 -7.7.55 -.74 1.1 -1.5 1.6 -2.3zm -4.7 20c.5 2 2.8 2.4 2.8 4.6.6 2.6 3.8 2.4 4.6 4.7.89 1.1 2.4 1.5 3.6 2.1 -1.7 -5 -2.9 -10 -3.5 -15 -.23 -2.4 -.41 -4.8 -.56 -7.2.034 -2.2 -.087 -4.4.1 -6.6 -.93 2 -1.2 4.4 -2.2 6.4 -.93 2.3 -2.2 4.5 -3.7 6.5 -1 1.3 -1.4 3.1 -1 4.8z" />			
			</g>
			
			<g id="stemB_leafB6">
				<path id="stemB_leafB6mid" style="fill:#57b847;" 
				d="m181 346c1 .9 2.3 1.7 1.7 3.4 -.3.7 -.8 1.1 -1.4 1.5 -3.5 2.1 -5.6 10 -6 12 -.1.2 0 .5.1.7s.3.4.5.5c1.7.9 9.1 4.9 13 4 .6 -.1 1.3 -.1 1.9.2 1.6.8 1.3 2.3 1.2 3.6 -.2 3.8 2.1 7.4 4.2 11 1.6 -1.5 3.2 -3.1 4.6 -5 1.3 -1.9 2.4 -3.9 2.7 -6.4.2 -1.9 0 -3.8 -.1 -5.7 -.1 -3.2.2 -6.6 1.7 -9.2 1.2 -2.1 3.1 -3.7 5.4 -4.2.8 -.2 1.3 -1.1 1 -1.9 -.3 -.9 -1.1 -1.3 -1.9 -1 -2.1.9 -4.7.7 -6.9 -.3 -2.9 -1.3 -5.2 -3.6 -7.2 -6.1 -1.2 -1.5 -2.3 -3.1 -3.8 -4.4 -2 -1.7 -4.4 -2.6 -6.9 -2.9 -2.6 -.3 -5.3 -.2 -7.9 -.1.5 3.7 1.4 7.9 4.4 10z" />
				
				<path id="stemB_leafB6_dark" style="fill:#0bab4b;"
				d="m194 377c -.5 -.3 -.9 -.8 -1.2 -1.3 1.3 -1.9.8 -4.6.8 -7 .1 -2.7.8 -5.3 2 -7.6 1.3 -2.3 3.1 -4.1 5.3 -5.5.4 -.3 5 -2.6 5.1 -2.3.2.4.1.8 -.1 1 -2.5 3.1 -2.8 7 -2.7 11 0 1.9 0 3.8 -.4 5.6s -1.2 3.6 -2.1 5c -1.3 2.3 -3 4.2 -4.8 5.8 -1 -1.3 -1.8 -3 -1.9 -4.8zm -14 -35c -.2.6 -.2 1.2 0 1.8 2.5.4 4.1 2.7 5.8 4.3 2 1.9 4.3 3.2 6.8 4.1s5.2 1.2 7.7.8c.5 -.1 5.6 -1 5.5 -1.2 -.1 -.4 -.3 -.7 -.7 -.8 -4 -1.1 -6.6 -3.9 -9.2 -7.1 -1.2 -1.5 -2.5 -2.9 -4.1 -4s -3.5 -1.9 -5.4 -2.4c -2.8 -.7 -5.7 -.7 -8.6 -.5.3 1.9 1 3.6 2.2 5z" />
				
				<path id="stemB_leafB6_lightmid" style="fill:#81c241;" 
				d="m184 352c -.7.4 -1.2 1.1 -1.2 1.9 0 .3 -.2.6 -.5.7 -1.6.5 -2.8 2.3 -2.7 4.1 0 .3 -.2.6 -.4.7 -.3.1 -.6.4 -.8.7 -.3.5 -.4 1 -.5 1.6l -.3 1.8s1.3 -.6 3.3 -1.5 4.7 -2.1 7.4 -3.1c2.7 -1.1 5.4 -2.2 7.5 -2.9s3.4 -1.2 3.4 -1.2c -.1 -.1 -.3 -.2 -.5 -.1 -3.1.3 -6.4 -.2 -9.3 -1.6 -.9 -.4 -1.7 -.9 -2.7 -1.2 -.8 -.4 -1.9 -.4 -2.7.1z" />
				
				<path id="stemB_leafB6_light" style="fill:#98c93c;"
				d="m202 358c.9 -1.5 2.1 -2.7 3.3 -3.7.7 -.5 1.1 -1.1.9 -1.4l -.2 -.3c -.1 -.2 -.8 0 -1.6.5 -1.3 1.1 -2.5 2.4 -3.6 4 -1.7 2.6 -2.7 5.5 -3 8.2 -.1 1.3 -.3 2.6 -.4 3.8 0 .6 -.1 1.2 -.1 1.7 0 .3 0 .5 -.1.8 0 .3 -.1.5 -.1.8 -.3 1.9 -.9 3.4 -1.5 4.3 -.3.4 -.5.7 -.7.9l -.3.3s.1 -.1.3 -.2.5 -.4.8 -.8c.7 -.8 1.4 -2.2 1.9 -4.2 1.2 -4 1 -9.8 4.4 -15zm -2.2 -6.4c.9.3 1.8.3 2.6.5.4.1.9 0 1.3.1.4 0 .9.1 1.3 0 .9 -.1 1.5 -.4 1.5 -.7l -.1 -.3c -.1 -.3 -.7 -.5 -1.5 -.4 -.4.1 -.8 0 -1.2 0s -.8 0 -1.2 -.1c -.8 -.2 -1.6 -.2 -2.4 -.5 -2.7 -.7 -5.2 -2 -7.2 -3.7 -2 -1.6 -3.5 -3.6 -5.2 -4.9 -1.6 -1.3 -3.3 -1.8 -4.4 -1.8 -.6 0 -1 0 -1.3.1s -.4.1 -.4.1h.4c.3 0 .7 0 1.3.1 1.1.2 2.6.8 4 2.2 1.5 1.3 2.8 3.3 4.9 5.2 2 1.8 4.7 3.4 7.6 4.1z" />
			</g>
			
			<g id="stemB_leafA2">
				<path id="stemB_leafA2_dark" style="fill:#00763d;"  
				d="m319 360c.54 -2.6 3.4 -4.7 5.8 -2.7 1.9 1.9 3.8 4 6.4 4.9 4.9 2.3 10 2.8 16 3 2.9 -1.5 1.8 -6 2.7 -8.9.51 -4.7 1.2 -9.6 -.67 -14 -.53 -3.3 3 -4.3 5.6 -4.3 5.5 -1 9.7 -5.1 14 -8.6 -5.8 -4 -12 -8.2 -20 -7.6 -6.6.58 -14 1.9 -20 -1.7 -3.8 -1.8 -5.4 -5.7 -7 -9.2 -3.4 -2.2 -4.4 2.7 -2.9 4.9 1.1 8.1 -3.7 15 -9.2 21 -3.4 3.2 -6.7 6.8 -7.4 12 -1.3 7.1.52 14 2.7 21 5.4 -1.5 11 -3.7 14 -9.1z" />
				
				<path id="stemB_leafA2_mid" style="fill:#5fae46;" 
				d="m327 356c1.7 2.1 4.8.87 5.9 3.8 2.1 2.8 6 .6 8.1 3.1 1.9.78 4 .37 5.9.47 -4.5 -5.7 -8.7 -12 -12 -18 -2.7 -4.8 -5.3 -9.6 -7.4 -15 .06 2.9.92 5.9.67 8.9.082 4.2 -1.3 8.2 -1.9 12 -.11 1.4.31 2.9 1.2 4zm33 -21c -.87 3.2 -4 .88 -6.3 1.6 -4.3.73 -8.7 1.5 -13 .36 -6.6 -1.4 -12 -6.4 -15 -12 -.35 -1.5 -3.2 -4.5 -1.5 -5.2 2.8 1.8 5.7 3.7 9.1 4.1 6.6 1.1 13 -1 20 1 4.8 1.3 9.2 3.7 13 6.6 -1.8 1.8 -4.1 3.3 -6.6 4zm -47 29c3.4 1.2 2.4 -2.4 3.2 -4.4 1.6 -3.9 4.7 -7 5.9 -11 2.8 -7.3 3.1 -16 .79 -23 -.81 -1.5 -.44 -5.8 -2.3 -5.5 -1.1 3.3 -2.1 6.8 -4.2 9.6 -3.6 5.6 -9.9 9.6 -11 16 -1.9 7.3 -.78 15 1.7 22 2.6 -.31 5 -1.9 6.4 -4.1z" />
				
				<path id="stemB_leafA2_light" style="fill:#98c93c;" 
				d="m324 319c -1.7 1.2.97 3.6 1.6 4.8 3 4.1 7.1 7.9 12 8.9 7.4 1.5 15 -1.3 22 -1.4.68 -.11 3.1 -.11 1 -.45 -4.4 -.77 -8.9.15 -13 .49 -5.4.56 -11 .15 -16 -3.6 -2.6 -2.1 -4.6 -4.8 -6.5 -7.6 -.43 -.46 -.86 -1 -1.5 -1.2zm -3.3 1.1c -1.8 1.1 -.18 3.9 -.54 5.6.29 7 -1.4 14 -4.7 20 -2.3 4.9 -4.9 10 -4.8 16 .39 3 .87 -1.8 1.2 -2.7 2.3 -8.4 8.7 -15 9.7 -24 .76 -4.3 1 -8.9.21 -13 -.23 -.53 -.4 -1.5 -1.1 -1.6zm6.6 12c -1.3 2 2.1 4.1 2.2 6.1 1.2 3.8 2.9 7.5 5.5 11 2.3 1.4 1.8 4.5 3.8 6.2 2.3 2.7 5.8 3.7 8.7 5.6 -.77 -1.3 -3.8 -2.8 -5.5 -4.1 -1.9 -1.2 -3.4 -3.1 -4.2 -5.2 2.4 2 5.5 2.3 8.4 3.2 1.2.12 3.4 3.1 1.8.88 -2.4 -2.5 -6.4 -1.9 -9.1 -4.1 -2.6 -1.9 -5 -4.4 -6.1 -7.6 -.62 -1.3 -2.3 -4.4 -1.9 -4.6 3 3.3 7.6 4.1 12 5.4 2.4.76 4.7 2.1 6.2 4 -2.4 -4 -7.2 -5 -11 -6.4 -2.4 -.79 -4.6 -2.1 -6.2 -4.1 -1.7 -1.6 -2.8 -3.7 -3.9 -5.8z" />
				
				<path id="stemB_leafA2_midCover" style="fill:#5fae46;" 
				d="m362 331c -8.2 -.74 -16 2.6 -24 .59 -5.5 -1.5 -9.5 -6.1 -12 -11 -.36 -.84 -1.8 -2.5 -1.3 -.5 1.6 3.6 4.3 6.5 7.2 9.1 4.7 4 11 4.4 17 3.4 4.5 -.58 8.9 -1.5 13 -1.5.096.023 1.3 -.082.4 -.3zm -51 32c.079 -7.3 4.3 -14 7.2 -20 3 -7.1 3.7 -15 2.4 -23 -1.8.85 -.17 3.9 -.54 5.5.29 7 -1.4 14 -4.7 20 -2.3 4.9 -4.9 10 -4.8 16 .12.16.007 1.6.46 1.1z" />
			</g>
			
			<path id="stemB_stemLight" style="fill:#98c93c;"
			d="m227 123c -11 -21 -23 -43 -21 -68 -1.2 -11 12 -20 12 -27 -17 4.8 -22 25 -20 41 6.6 42 33 77 58 110 22 30 48 61 56 98 5.7 23 -3.6 48 -23 62 -21 16 -52 18 -74 2.9 -18 -11 -29 -29 -35 -49 4.4 40 48 73 88 62 30 -7.1 54 -35 52 -67 -1.6 -34 -22 -64 -41 -91 -18 -25 -38 -49 -53 -75z" />
			
			<path id="stemB_stemDark" style="fill:#5fae46;"
			d="m181 296c7.6 37 47 67 85 58 30 -6.5 55 -36 52 -67 -2.5 -32 -21 -59 -39 -84 -28 -40 -64 -78 -75 -127 -4.5 -17 -.72 -38 16 -47 -9.2 -2.5 -17 11 -20 20 -5.7 24 5.8 48 16 69 26 50 71 89 92 142 9.2 22 9.2 49 -6.6 67 -18 23 -52 32 -79 18 -21 -10 -36 -30 -42 -52l -.28.41z" />
			
			<path id="stemB_spindle" style="fill:#98c93c;"
			d="m257 353c16 1.8 33 -4.6 43 -17 1.1 -1.1 5.1 -7.1 1.5 -5.8 -5.8 5.8 -12 12 -20 15 -13 6.1 -28 5.8 -41 -.54 -9.7 -4.8 -18 -13 -22 -23 -2.1 -5 -.1 -12 5.8 -13 4.5 -1.2 8.6 6.3 3.9 8.5 -4.8 1.9 -9 -2.7 -10 -7 -1.6 -4.8 -2.6 -11 2 -15 2.8 -2.6 7.2 -1.9 7.1 2.5 2.6 3.5 -2.2 2.4 -3.1.21 -2.8 -3.7 -2 -9.2 1.6 -12 3 -2.8 7 -4.3 11 -5.8 -5.7 1.9 -13 4.1 -15 10 -1.6 4.9 1.6 12 7.4 11 .73 -2 -1.5 -5.5 -1.9 -7.9 -.97 -2.1 -4.4 -1.6 -6.2 -.95 -6 2.2 -7.3 9.5 -6 15 .85 5.2 3.6 11 9.5 12 4.3 1.1 9.4 -2.7 8.3 -7.3 -.74 -5.1 -6.7 -8.7 -11 -6.4 -6.2 2.5 -8.4 10 -6.3 16 2.8 8.4 8.9 15 16 21 7.3 5.4 16 8.8 25 9.9z" />
			
			<g id="stemB_leafA1">
				<path id="stemB_leafA1_dark" style="fill:#00763d;"
				d="m279 159c -4.5 -2.5 -3.3 -8.5 1.6 -9.6 8.9 -2.3 15 -10 20 -18 2.1 -3.4 6.1 -9.4 -.22 -11 -7.7 -3.5 -15 -8.4 -24 -9.5 -7.3.94 -6.3 -7.1 -4.4 -12 .86 -6.9 -1.6 -14 -3.4 -20 -7.9 5.2 -16 11 -20 20 -3.2 7.5 -5.8 16 -13 21 -3.3 1.6 -7.8 1.5 -11 -1.6 -.74 -4.1 -8 -5.7 -7.2 -.24 3.6 7.6 8.9 14 14 21 4.8 6.6 7.7 14 10 22 3.6 9.9 14 15 23 17 6 1.6 12 2.5 18 2.8 1.6 -7.6 2.6 -17 -3.6 -23z" />
					
				<path id="stemB_leafA1_mid" style="fill:#5fae46;"
				d="m278 147c4 -.94 4.5 -5.9 9.1 -5.6 5.2 -1.1 4.6 -7.6 9.2 -9 1.5 -1.4 4.2 -6.5 3.3 -7.2 -18 6.3 -37 8.3 -56 6.1 3.8 2 8.3 3.1 12 5.2 5 2.4 9.3 6 14 9 2.4 1.2 5.2 2.3 8 1.6zm -8.1 -54c3.6 3.8 -2.9 7.4 -2.6 12 -1.6 8.2 -6.9 15 -14 19 -7.5 4 -17 4.6 -25 .6 -1.8 -2.4 3.3 -1.7 4.6 -2.4 5.8 -1.9 9.1 -7.7 12 -13 2.8 -6.8 6.7 -13 12 -18 3.5 -2.9 8.4 -7.8 12 -8.3 1.1 3.2 1.5 6.6 1.1 9.9zm9.9 76c4.3 -4.1 -2.9 -4.3 -4.9 -7.2 -3.8 -4.1 -6.3 -9.4 -11 -13 -8 -7.9 -18 -13 -29 -16 -3.7 -1.3 -6.9 -3.4 -10 -5.6 -1.4 2.7 2.2 4.6 2.9 7.1 5.5 7.3 8.7 16 12 24 4.6 10 16 16 26 19 4.9 1.4 10 2.2 15 2.5 1.3 -3.5.59 -7.5 -1.6 -10z" />
				
				<path id="stemB_leafA1_light" style="fill:#98c93c;"
				d="m280 129c -1.6.035 -8.3.6 -3.6 1.6 5.9.36 11 -2.8 15 -6.9 1.1 -1.2 5.5 -3.5 1.7 -1.7 -4.1 2.4 -7.7 5.9 -13 6.8zm -18 2.1c -3.4.33 -6.8 -.75 -10 -.49.12 2.1 5.4 1.3 7.5 1.9 8.6.4 19 -1.6 24 -9.2 1.7 -2.3 3.6 -5.1 6.7 -5.6 -5.4.69 -7.4 6.7 -12 9.2 -4.7 3.1 -10 4.3 -16 4.2zm -8.5 -1.7c -3.2.96 -6.5.5 -9.8.67.41 2.1 5.5 1.2 7.7 1.2 5.8 -.72 11 -3.8 15 -8.2 3.6 -3.8 7.3 -8.2 13 -9.4 -7.4.8 -12 7.7 -17 12 -2.4 1.9 -5.2 3.2 -8.1 3.9zm -15 -6.6c -2.9.54 -5.9.56 -8.8.1 -1.1 -.88 -5.9.35 -2.4 2.1 8.1 3 18 .24 24 -5.6 7.2 -7.4 8.6 -18 12 -28 .67 -1.3 2.1 -5.7.054 -2.3 -5.3 9.2 -6.6 21 -15 28 -2.9 2.6 -6.7 4.2 -10 5zm -2.1 12c -3.5 -2.2 -6.9 -4.5 -10 -6.9 -1.5 -1.9 -4.9 -.92 -2.4 1.4 4.7 4.7 11 7.8 16 12 8.3 5.6 14 14 21 21 3.9 3.6 8.4 7.4 14 8.3 -3.3 -2.3 -6.9 -4.4 -9.7 -7.4 -7 -7.2 -12 -16 -20 -22 -2.6 -2.3 -5.4 -4.3 -8.3 -6.1z" />
				
				<path id="stemB_leafA1_midCover" style="fill:#5fae46;"
				d="m266 88c -5.1 9.2 -6.3 20 -13 29 -5.5 6.1 -14 9.2 -22 7.4 -.73 -.43 -4.6 -1.7 -2.2.5 5.3 2.5 12 1.6 17 -.5 5.7 -2.4 10 -7 13 -13 3.4 -7.2 4.9 -15 7.9 -23 .22.17.4 -1.7 -.1 -.9zm9.8 82c -9.2 -3.4 -15 -12 -21 -19 -5.5 -6.6 -12 -12 -20 -16 -3.7 -2.4 -7.3 -4.9 -10 -7.9 -1.2 1.7 1.7 3.6 2.9 4.5 6.9 5.5 15 9.5 21 16 7.2 7 13 16 22 21 1.5.68 4.7 2.5 5.6 1.8z" />
			</g>
		</g>
		
		
		<g id="stemA">
			<g id="stemA_leafB3">
				<path id="stemA_leafB3_mid" style="fill:#57b847;"
				d="m379 222c -2.7 -3.3 1.9 -5 4.5 -4.2 5.4 -.6 11 -2.3 16 -3.8 1.4 -2.1 -2.1 -4.8 -3.2 -6.8 -3.1 -3.7 -7 -7 -12 -8.2 -3.3 -.7 -3 -4.2 -.015 -5.2 3.1 -2.7 2.6 -7.2 1.5 -11 -7.6.17 -16 .76 -22 4.9 -4.4 2.7 -5.1 8.2 -8.2 12 -3.4 4.9 -8.6 8.3 -14 9.9 -3.6.73 -1.1 4.8 1.5 2.6 5.9 -2.1 13 -.13 17 5.1 2.2 3.2 3.5 7.2 6.8 9.5 3.4 2.7 7.5 4.3 11 6.2 1.3 -3.6 3.1 -7.5 1.5 -11z" />
					
				<path id="stemA_leafB3_dark" style="fill:#0bab4b;"
				d="m384 189c1.2.81 1.1 2.4 -.55 2.2 -3.6.99 -5.3 4.7 -8.2 6.7 -6.4 4.9 -14 7.2 -22 9 -1.6.17 -3.8 1.5 -5.1 1 .7 -1.5 2.6 -2.1 3.7 -3.4 3.3 -3 5.1 -7.1 7.2 -11 2 -3.2 5.3 -5.3 8.7 -6.8 5.4 -2.1 11 -3 17 -3 .81 1.7.47 3.8 -.9 5.2zm -6 38c2.3 -1.4 -.84 -2.6 -1.2 -4.2 -1.1 -2.5 -1.9 -5.3 -3.9 -7.3 -4.4 -4.9 -11 -6.6 -18 -6.1 -2 .36 -5 .086 -6.4 1.2 1.7 1.1 4.1.98 5.8 2.3 4.2 2.3 6 7 9 10 3.8 4 8.8 6.6 14 8.9.84 -1.6 1.1 -3.5.7 -5.2z" />
				
				<path id="stemA_leafB3_lightmid" style="fill:#81c241;"
				d="m380 216c1.3.28 2.4 -.61 3.4 -1.2 1.3.33 2.8.57 4.2.28 1.4 -.059 2.4 -1.1 3.6 -1.5 1.3.5 2.8.33 4.1 -.29.67 -.39 3.1 -.74 1.2 -1.1 -3.2 -1.2 -6.4 -2.3 -9.8 -3.1 -8.2 -1.9 -17 -2.6 -25 -2 -.58.072 -2.4.058 -.9.3 5.3.33 11 2.3 14 6.1 1.4 1.2 2.9 2.4 4.8 2.5z" />
				
				<path id="stemA_leafB3_light" style="fill:#98c93c;" 
				d="m357 203c -2.6 1.6 -5.3 2.8 -8 4.2 -1.9 1.3.64 1.6 1.6.77 6.2 -2.7 12 -6 17 -11 2.3 -2.4 4.6 -4.8 7.2 -6.8 2.8 -1.9 6.1 -2.8 9.4 -3 -2.7 -.11 -5.5.25 -8 1.3 -4.6 1.8 -8 5.7 -12 8.9 -2.4 2.1 -4.9 3.9 -7.7 5.3zm.7 6.8c -2.9 -.84 -6 -1.2 -9 -.73 -1.2 -.18 -1.9 1.5 -.3 1.3 3.3 -.19 6.7.032 9.8 1.2 4.3 1.4 7.7 4.7 9.7 8.7 1.5 2.9 3.8 5.9 7.1 6.7 -1.1 -.26 -3.1 -1.8 -4 -3.1 -2 -2.6 -2.7 -6 -4.8 -8.6 -2 -2.8 -5.3 -4.5 -8.5 -5.4z" />
			</g>
			
			<g id="stemA_leafA2">
				<path id="stemA_leafA2_dark" style="fill:#00763d;"
				d="m192 233c2.6 -1.1 5.4 -3.3 7.9.7.7 1.1.9 2.5.8 3.9 0 2.5.4 5.2 1.3 8.2.5 1.5.9 3 1.4 4.6.5 1.5 1.2 3.1 1.7 4.7.5 1.5 1.1 3.1 1.7 4.5.3.7.6 1.4.8 2.1s.5 1.3.7 2c.9 2.5 1.7 4.5 2.1 5.6.2.6.6 1 1.1 1.2s1 .2 1.5 -.1c1 -.5 2.9 -1.6 5.3 -3.1.6 -.4 1.2 -.8 1.9 -1.2.6 -.4 1.3 -.9 1.9 -1.4 1.3 -1 2.7 -2.1 4.1 -3.4 1.4 -1.2 2.7 -2.6 4 -4s2.6 -2.9 3.6 -4.5c2.1 -3.1 3.8 -6.5 4.5 -9.7.4 -1.8 1.1 -3.6 2 -4.9 3.3 -4.7 5.7 -1.3 7.9 1.2 3.1 3.4 6.7 4.9 11 5.2s8.2 -.7 12 -1.9c -.7 -9.4 -2.1 -19 -4.9 -27 -.6 -2.1 -1.5 -4 -2.4 -5.9 -.9 -1.8 -1.7 -3.6 -2.8 -5.2 -2.1 -3.2 -4.4 -5.8 -6.9 -7.7 -3.9 -2.8 -7.9 -3.8 -12 -5.2 -3.3 -1.2 -6.8 -2.6 -10 -4.4 -3.2 -1.9 -6.6 -4.1 -9.6 -7 -1.1 -1.1 -2.2 -2.2 -3.3 -3.4s -2 -2.5 -3 -3.8c -2 -2.6 -3.5 -5.6 -4.9 -8.5 -.9 -2.1 -3 -3.2 -4.5 -2.5h -.1c -1.5.8 -2 3 -1 5 1.5 2.8 2.1 5.9 2.5 9 .1 1.5.1 3.1 -.1 4.6s -.3 2.9 -.8 4.2c -1.1 3.7 -2.9 6.8 -5.2 9.4s -4.9 4.7 -7.8 6.5c -3.4 2.1 -7 3.9 -9.9 6.3 -2.1 1.6 -3.8 3.5 -5.3 5.4 -.8 1 -1.5 2 -2.2 3s -1.2 2.1 -1.9 3.1c -2.4 4.2 -4.4 8.6 -6.5 12 3.7 1.1 7.6 2.4 12 3.1 4.4.6 8.4.6 12 -1z" />
					
				<path id="stemA_leafA2_mid" style="fill:#5fae46;"
				d="m204 234c -.15 4 4.4 6 2.3 10 -1 5.2 5.2 8.1 3.5 13 .38 2.1 2.7 8.2 3.7 7.7 7.7 -22 9.6 -45 5.5 -68 -.77 5 -.68 10 -2.7 15 -1.8 6 -6.1 11 -9.9 15 -1.4 1.8 -2.4 4.1 -2.4 6.4zm54 4.7c -4.2 5.3 -4.4 -3.2 -7.3 -5.5 -4.2 -4.3 -9.6 -7.2 -13 -12 -9.2 -11 -15 -24 -19 -37 -.31 -2.7 -4.5 -7.7 -2.3 -9 4.3 3.6 8.4 7.9 14 10 8.3 4.8 19 6 25 14 9.4 11 13 26 14 41 -3.5 1.6 -7.7 1 -11 -1.4zm -76 -8.1c4 4.2 7.1 -3.8 12 -3.8 12 -3.6 19 -15 21 -26 1 -7.9 -.67 -16 -2.8 -24 -2.8 -.89 -1.6 6.3 -3.4 8.4 -3.3 8.6 -12 13 -19 18 -8.4 6.8 -13 17 -18 26 3.2 1.5 7 2 10 1.2z" />
   
				<path id="stemA_leafA2_light" style="fill:#98c93c;" 
				d="m220 243c.2 -2 .85 -4 1.2 -6 -1.2 -2.2 -2.1 2.4 -2.3 3.4 -.77 4.2 -1.2 8.5 -.6 13 .41 3.6 1 7.3.33 11 1.2 -4 .9 -8.1.71 -12 -.04 -3 .067 -6 .59 -8.9zm1.6 -22c.002 -3.9.35 -7.9.062 -12 -.87 -2.5 -1.4 1.7 -1.3 2.6 -.08 6.7 -.67 13 -.24 20 .26 6.1 1.3 12 3.9 18 1.3 3.4 2.2 7.3.78 11 1.7 -3.5.96 -7.6 -.23 -11 -2.2 -6.4 -3.1 -13 -3.1 -20 -.085 -2.8.12 -5.6.1 -8.4zm1.3 -10c -.9 -3.3 -1.8 -6.6 -2.1 -10 .27 -1.4 -1.7 -3 -1.3 -.64.38 6.2 2.4 12 4.6 18 1.9 4.2 4.3 8.2 6.7 12 2.7 4.9 4.6 10 4.1 16 -.3 1.3 -.38 2.8 0 .59 1.3 -6.7 -.85 -14 -4.1 -19 -2.5 -4.4 -4.9 -8.8 -6.6 -14 -.48 -1 -.85 -2.1 -1.2 -3.2zm2.1 -21c -2.6 -4.6 -4.6 -9.6 -7.8 -14 -3.3 -2.7 -1.2 3.7 -.16 4.9 5.3 10 10 21 18 28 8.4 8 20 12 27 22 .97 1.8 2.6 2.6 1.1.023 -4 -8.5 -12 -14 -20 -19 -7 -4.8 -13 -11 -17 -19 -.67 -1.2 -1.4 -2.5 -2.1 -3.7zm -12 2.9c.63 -4.5.69 -9.3 -.49 -14 -.019 -2.6 -3.3 -3.3 -2.6 -.12.86 6.7 1 14 -1.4 20 -2.2 6.7 -6.8 12 -12 16 -5.1 4.2 -11 7.6 -15 13 2.6 -.9 5.6 -4.1 8.5 -5.7 7.2 -4.8 15 -9.4 19 -17 2.2 -3.9 3.8 -8.3 4.1 -13z" />
				
				<path id="stemA_leafA2_midCover" style="fill:#5fae46;"
				d="m264 232c -4 -7.8 -11 -13 -19 -18 -6.9 -4.4 -13 -9.8 -17 -17 -4.7 -7.3 -8.3 -15 -12 -23 -1.2 2.9 2.1 6.2 3 9 5 9.5 9.9 19 18 26 8.3 7.1 19 11 26 20 .32.36 2 2.9 1.6 1.5zm -82 -3.8c8.1 -7.9 19 -12 25 -22 5.5 -8.8 6.5 -20 4.1 -30 -2.4 1.9.12 6.1 -.46 8.8.74 11 -4.2 22 -13 29 -5.3 4.6 -12 8.2 -16 14l -.39.59c.31.39 -.33.15.088.11z" />
			</g>
			
			<g id="stemA_leafB2">
				<path id="stemA_leafB2_mid" style="fill:#57b847;"
				d="m168 166c3.9 -1.4 4 3.3 2.1 5.4 -2.3 4.6 -3 9.6 -4.3 15 -.47 2.2 -2.3 7.2 1.9 5.3 6.2 -1.4 12 -3.9 17 -8.3 1.4 -1.7 5.2 -6.3 6.5 -2.4.11 3.1 1.9 6 4.9 7 2.4.97 5.5 1.8 5.8 -1.7 3.2 -7.5 6 -16 5.1 -24 -.4 -5.2 -4.8 -8.5 -7.2 -13 -4 -6.8 -7 -14 -12 -21 -.96 -1.4 -1.9 -2.8 -2.9 -4.2.52 2.9.82 5.8 1.5 8.6 1.4 3.5 4 -.3 2.5 -2.4 -.71.53 -2.6.72 -2.5 1.5 3.1 4.2 2.2 11 -2.2 14 -4.3 3.3 -10 1.7 -15 4.5 -4.3 2.5 -7.5 6.4 -11 9.6 2.2 3.1 5.1 6.7 9.4 6.1z" />
					
				<path id="stemA_leafB2_dark" style="fill:#0bab4b;"
				d="m196 184c -1.4.94 -2.6.14 -1.7 -1.4.9 -3.9 -1.7 -7.4 -2.1 -11 -.69 -5 -.22 -10 .28 -15 .39 -3.7.63 -7.4.72 -11 .26 -2.5 -1.1 -5.6 -.75 -7.7 1.6 1.2 2.1 3.4 3.3 5.1 2.2 4 4.8 7.7 7.5 11 3.2 4.7 3.2 11 2.4 16 -.78 5 -2.3 9.8 -4.3 14 -.41 2.1 -2.3 3.4 -4.1 1.6 -.64 -.54 -1.1 -1.3 -1.4 -2.1zm -32 -21c.24 3.4 3.6 -.57 5.6.27 3.3.086 6.6 -.52 9.5 -2.2 7.1 -3.7 12 -12 11 -20 .31 -2.1 -1.1 -4.9 -1.4 -1.4 -.99 4.6 -5.5 7.2 -9.8 8 -3.3.6 -6.6 1.4 -9.3 3.4 -3.3 2.2 -6.3 4.8 -9.1 7.6 -2.9 1.3.73 3.6 2.5 4l.35.068z" />
				
				<path id="stemA_leafB2_lightmid" style="fill:#81c241;"
				d="m173 170c -1 1.3 -.68 2.9 -.81 4.3 -1.7 2 -3.1 4.6 -2.9 7.3.45 1.7 -1.6 2.5 -1.6 4.2 -.26 1.3 -.39 2.7 -.54 4 1.9 -2.1 4 -4.1 5.7 -6.4 2.8 -3.2 5.3 -6.7 7.6 -10 2.6 -4 5 -8.2 7.1 -12 1.3 -2.7 2.3 -5.5 3.2 -8.4 -.97 1.3 -1.4 3 -2.4 4.3 -2.4 3.8 -5.9 6.9 -10 8.9 -2.1 1.1 -4.2 2.4 -5.4 4.5z"  />
				
				<path id="stemA_leafB2_light" style="fill:#98c93c;"
				d="m196 150c -.56 -3.8 -1.2 -7.7 -2.9 -11 -1.5 -1.6 -.71 2 -.39 2.8.85 2.7 1.3 5.5 1.6 8.3.89 5.7 1.2 12 3 17 1.2 3.8 2.1 7.7 1.7 12 -.17 2.4 -.87 4.7 -1.9 6.9 1.8 -3.4 2.7 -7.2 2.8 -11 .034 -5.2 -1.9 -10 -2.6 -15 -.53 -3.1 -.76 -6.2 -1.2 -9.4zm -6.7 -1.3c1.1 -1.7 1.7 -3.7 2.1 -5.7.17 -1.9.47 -4.1 -.67 -5.7 -.95.066 -.49 1.5 -.6 2.2.19 3.4 -.87 6.9 -3 9.6 -2.6 3.8 -7.2 5.8 -12 6.2 -3.8.39 -7.9 1.9 -10 5.3 2.5 -3.3 6.9 -4.2 11 -4.2 5.3 -.21 10 -3.1 13 -7.8z" />
			</g>
			
			<g id="stemA_leafA1">
				<path id="stemA_leafA1_dark" style="fill:#00763d;"  
				d="m112 88c4.3 -2 9 1.2 5.8 5.8 -2.6 5.3 -6.5 10 -7.6 16 -3.2 12 .055 27 11 34 5 1.3 3.7 -7.8 7.6 -9.8 4.8 -5.5 12 -7.7 17 -13 6.7 -3.4 6.9 5.8 10 9.1 4.2 4.5 9.5 7.8 14 12 .31 -5.3 4.2 -9.6 6.4 -14 3.9 -6.9 7 -15 5.9 -23 -1.4 -11 .69 -22 6.8 -31 3.4 -5.6 8 -11 9.9 -17 1.1 -5.5 -5.7 -7.7 -5.6 -1.2 -3.7 7.5 -13 9.6 -21 9 -8.9 -.46 -16 -5.5 -24 -9.7 -9.6 -4.4 -21 -1.8 -30 2.2 -9.3 3.9 -18 9.5 -25 16 1.7 6.3 5.1 14 12 15 1.8.29 3.6.23 5.4 -.0018z" />
					
				<path id="stemA_leafA1_mid"  style="fill:#5fae46;"
				d="m120 97c -3.6 3.1 -1.3 8.1 -4.2 11 -3.1 5 -4.7 12 -1.1 17 -.17 4 .018 8.5 3.6 11 1.7 1.7 4.4 4.2 2.9.12 -1.7 -12 5.4 -23 13 -31 9.8 -9.9 22 -17 34 -24 -5.7 1.5 -11 4.3 -17 5.5 -7.4 2.2 -15 2.1 -23 4.3 -3.3 1.3 -6.4 3.3 -8.6 6.1zm41 36c -5.3 -1.4 -3.1 -8.9 -5.6 -13 -3 -11 2.4 -22 9.3 -30 7.2 -8.6 17 -15 25 -22 1.1 3.5 -3.2 6.7 -4 10 -3.7 7.8 -3.7 17 -3.6 25 -.15 13 -8.3 23 -13 34 -.35 5.3 -5.7 -2.7 -7.7 -4.5zm -56 -52c -1.5 2.6.23 6.4 2.9 3.1 5.2 -3.1 12 -2.7 17 -1.3 14 1.8 28 -.17 42 -5.1 7.2 -3 14 -6.8 21 -11 -.18 -2.9 -6.4.8 -8.8 -.055 -9.1.54 -17 -3.9 -25 -7.9 -12 -5.2 -25 -2 -36 2.9 -7.3 3.2 -14 7.5 -20 13 .17 4.3 3.9 7.2 8.1 6.9z" />
				
				<path id="stemA_leafA1_light" style="fill:#98c93c;"
				d="m128 113c.51 -2 5.9 -4.9 4.2 -6.2 -6.3 4.4 -9.9 13 -8.7 20 .19 2 1.3 6.5 1.5 7 -.92 -6.3 -1.5 -13 1.8 -19 .38 -.71.79 -1.4 1.2 -2.1zm18 -17c3.8 -2.9 8.2 -4.9 12 -7.7 -1.3 -1.7 -5.7 2.4 -7.9 3.3 -8.3 5 -16 12 -20 21 -2.1 5.5.57 11 .17 17 -.29 2.1.77 -3.6.31 -4.7 -.66 -4.9 -.5 -10 1.8 -14 2.7 -6.1 7.8 -11 13 -15zm11 -5.4c3.2 -3.3 7.2 -5.6 11 -8.4 -1.7 -1.4 -6.1 3 -8.3 4.3 -6.4 4.8 -11 12 -13 19 -1.8 6 -2.6 12 -5.8 18 5.1 -7.2 5.6 -17 9.9 -24 1.4 -3.3 4 -6 6.3 -8.7zm22 -7.8c3.8 -4.4 8.6 -8 12 -13 2.5 -4.1 -2.6 -1.6 -3.7.18 -6.3 6.2 -13 12 -18 19 -5.1 7 -6.8 16 -5.7 24 .94 6.7 2.1 13 3.5 20 .84 -1.2.37 -4.7.26 -6.7 -.25 -10 -2.5 -21 1.6 -30 2.3 -5.4 6 -10 9.9 -14zm -6.8 -9.8c5.4 -1.5 11 -3.2 15 -6.7 3.5 -2.9 -1.2 -2.8 -3 -1.2 -13 6.8 -29 8.2 -44 5.6 -9.9 -1.5 -21 -1.8 -30 3.1 -3.5 2.3 3.2 -.55 4.4 -.52 11 -2.6 22 .63 33 1.7 8.1.64 16 .16 24 -2z" />
				
				<path id="stemA_leafA1_midCover" style="fill:#5fae46;" 
				d="m167 134c -.37 -10 -3.5 -21 -1.8 -31 2 -11 10 -19 18 -27 2.8 -2.7 5.5 -5.4 8.1 -8.3 -3.2.15 -5.5 4.1 -8 6 -7.9 8 -17 16 -19 27 -2.1 9.8.79 20 2.3 29 .29.99.33 2.9.9 3.4zm -58 -59c8.7 -4.2 19 -4.2 28 -2.7 9.7 1.6 20 2.4 29 .39 7.6 -1.4 15 -4.1 21 -8.3 -2.9 -1.1 -6.2 2.5 -9.3 3.1 -12 5.1 -26 5.6 -39 3.3 -10 -1.5 -21 -1.6 -30 3.7 -.69 -.19 -.52 1 -.05.55z" />
			</g>
			
			<path id="stemA_stem2Dark"  style="fill:#5fae46;"
			d="m334 166c -11 12 -27 20 -43 22 -8.6 1 -17 .12 -26 -2.2 -2.8 -.87 -5.6 -2 -8.3 -3.2 -1.5 2.2.52 4.6 2.5 5.5 6 2.5 12 3.8 19 4.3 14 1.1 28 -1.9 39 -9 6.4 -3.9 12 -8.8 16 -15 .22 -.29.92 -2 -.038 -1.6z" />
			
			<path id="stemA_stem2Light" style="fill:#98c93c;"
			d="m275 184c -4.4 -.46 -8.7 -1.9 -13 -3.1 -2 -.5 -4.5.16 -5.1 2.3 -.98 3 2.7 4.9 5.1 5.6 12 4.2 26 4.7 38 1.7 11 -2.8 22 -8.2 29 -16 2 -2.3 4.2 -4.6 5.1 -7.5 -2.4 -.2 -4.5 2.8 -6.8 4 -10 7.1 -22 12 -34 14 -5.4.91 -11 .75 -16 .35 -.93 -.34 -1.9 -.5 -2.9 -.6z" />
			
			<path id="stemA_stem1" style="fill:#98c93c;"
			d="m318 205c -1.7 -.8 -3.3 -1.6 -5 -2.6 -1.7 -.9 -3.4 -1.9 -5.3 -2.5 -.5 -.2 -1 -.3 -1.5 -.3s -.9 0 -1.3.1c -.7.2 -1.1.5 -1.1.8v.7c.1.7 1.3 1.2 2.9 1.7 1.5.5 3.1 1.3 4.7 2.3 1.6.9 3.4 1.9 5.2 2.7 3.1 1.4 6.2 2.3 9.3 3s6.1.9 9 1c5.8.1 11 -.9 15 -2.2 4.1 -1.3 7.2 -2.9 9.3 -4.2 1 -.6 1.8 -1.2 2.3 -1.5.5 -.4.8 -.5.8 -.5s -.3.1 -.9.4 -1.4.7 -2.5 1.2c -2.2.9 -5.4 2.1 -9.5 3s -9.1 1.4 -14 1.1c -2.7 -.2 -5.6 -.6 -8.5 -1.3 -2.7 -.7 -5.6 -1.6 -8.5 -2.9z" />
			
			<path id="stemA_stemLight" style="fill:#98c93c;"
			d="m189 112c -5.8 -25 1.5 -51 16 -72 4.8 -12 -12 3.2 -13 7.5 -21 35 -15 85 17 112 31 28 74 34 111 48 27 9.6 54 26 67 53 7 14 8 30 4.6 45 11 -22 1.4 -49 -14 -67 -24 -29 -62 -39 -96 -50 -31 -10 -65 -23 -83 -52 -4.7 -7.4 -7.9 -16 -9.8 -24z" />
			
			<path id="stemA_stemDark" style="fill:#5fae46;"
			d="m392 305c9.5 -28 -6.6 -59 -29 -77 -44 -34 -106 -32 -150 -68 -27 -22 -37 -60 -26 -93 3 -12 11 -23 18 -31 -11 3.8 -17 17 -21 28 -12 34 -3.1 75 25 98 32 28 76 34 115 49 26 9.5 51 26 63 52 7 14 8 30 4.6 45z" />
			
			<path id="stemA_spindle" style="fill:#98c93c;"
			d="m383 250c -2.3 -11 -11 -20 -21 -26 -2.3 -.95 -5.8 -4.7 -7.9 -2.6 1.6 2.9 4.9 4.5 7.5 6.6 8.1 5.7 16 13 18 24 1.4 6.4 -1.2 13 -5.1 18 -4.7 6.2 -10 13 -9.9 21 .19 6.4 6.7 12 13 10 2.7 -.31 4 -2.8 3.7 -5.3.14 -2.8 -1.3 -5.6 -3 -7.6 -2.8 1.6 -6.2 4.2 -7.9 7.5 -2.8 4.7 -1.2 12 4.6 14 3.3.95 7.7 -1 8.3 -4.5 -1.7 -.058 -4.1 -1.8 -5.4 -.3 -4.5 4.8 -4.8 13 -.75 18 -3.7 -5.2 -3.1 -13 1.6 -18 2.2.069 3.4 1.2.8 2.4 -3.1 1.6 -7.2.027 -8.2 -3.4 -1.9 -5.1 1.8 -11 6.3 -13 .86 1.9 1.3 4.5.31 6.4 -4.6 2.3 -10 -2.3 -10 -7 -.59 -6.7 4.1 -12 7.9 -17 4.4 -5.5 8.7 -12 8 -20 -.078 -1.2 -.25 -2.4 -.5 -3.6z" />
			
			<g id="stemA_leafB1">
				<path id="stemA_leafB1_mid" style="fill:#57b847;"
				d="m193 92c3.1 -2.7 5.1 1.5 4.4 4.2.73 5.3 2.7 10 4.1 15 2.2 1.4 5 -2.3 7 -3.4 3.6 -3.1 6.8 -7.1 7.7 -12 .56 -3.3 4 -3.2 5.2 -.25 2.8 3 7.3 2.3 11 1.1 -.43 -7.8 -1.5 -16 -6.3 -23 -3 -4.3 -8.7 -4.6 -13 -7.2 -5.3 -3 -9.2 -8.1 -12 -14 -.81 -1.5 -1.6 -3 -2.4 -4.6 -.066 2.1 -.56 4.3 -.28 6.4.72 3.2 4.8 -1.8 1.5 -.58 -3 -.17.61 2.9.26 4.6 1.4 5.7 -1.6 12 -6.6 15 -3.3 1.9 -6.5 4.3 -8.2 7.8 -1.6 2.8 -2.7 5.8 -4.2 8.6 3.7 1 7.7 3.1 12 1.3z" />
					
				<path id="stemA_leafB1_dark" style="fill:#0bab4b;"
				d="m226 96c -.73 1.4 -2.3 1.2 -2.2 -.49 -1.2 -3.7 -5.2 -5.3 -7.4 -8.3 -4.6 -5.6 -7.6 -12 -9.9 -19 -.76 -2.2 -1.8 -4.3 -2.5 -6.6 1.7 -.0016 2.5 2.3 3.9 3.1 3.2 2.9 7.4 4.5 11 6.2 4.7 2.2 7.5 7 9.3 12 1.7 4.5 2.5 9.3 2.7 14 -1.7 1 -3.9.84 -5.3 -.5zm -38 -4.3c1.9 2.2 3.1 -1.7 5.3 -1.8 2.9 -1 5.5 -2.7 7.3 -5.2 3.8 -5 4.4 -12 2.9 -18 -.51 -1.4 -.44 -4.1 -1.6 -4.7 -.92 1.9 -.63 4.4 -1.9 6.2 -2.6 5.2 -8.6 7.1 -12 12 -2.4 3.3 -4 7 -5.8 11 1.6 1 3.6 1.3 5.5.9z" />
				
				<path id="stemA_leafB1_lightmid" style="fill:#81c241;"
				d="m199 93c -.2 1.4.79 2.4 1.3 3.4 -.54 2.1 -.39 4.3.69 6.2 1.3.93.27 2.3.52 3.6.35 1.2.92 3 1.4 3.7 1.1 -2.8 2 -5.7 2.7 -8.6 1.3 -5.7 2 -11 1.8 -17 -.073 -3.7 -.33 -7.4 -1.1 -11 -.42 1.3 -.079 2.7 -.37 4.1 -.47 4.1 -2.1 8.1 -4.9 11 -1.1 1.4 -2.1 3 -2.1 4.8z" />
				
				<path id="stemA_leafB1_light" style="fill:#98c93c;"
				d="m210 70c -2 -2.5 -3.4 -5.5 -5.5 -7.9 -1.5 -.36.08 2.4.55 3 3.7 6.2 7.9 12 14 17 2.4 2.3 5.1 4.3 6.7 7.3 1.3 2.3 1.8 4.8 2.1 7.4.18 -5.1 -1.8 -10 -5.5 -14 -2.7 -2.7 -5.5 -5.2 -8.1 -8 -1.5 -1.4 -2.7 -3 -3.8 -4.6zm -6.6 1.4c.64 -2.8.45 -5.8 -.098 -8.7.12 -1.3 -1.7 -2 -1.3 -.26.28 2.3.61 4.6.31 7 -.65 4.4 -2.7 8.8 -6.3 11 -3 2.1 -6.5 3.9 -8 7.4 -.28.56 -.62 2.1 -.12.64 1.4 -3 4.5 -4.8 7.4 -6.2 3.5 -1.7 6.1 -4.8 7.4 -8.4.37 -.94.66 -1.9.86 -2.9z" />
			</g>
		</g>
	</g>
</svg>
