<svg xmlns="http://www.w3.org/2000/svg" viewBox="0 0 160 132">
  <defs id="clipPaths">    
    <clipPath id="topLeaf_clipPath">
      <path d="M 82.677057,85.277493 C 44.309902,98.711955 23.529837,97.236408 14.839113,76.121059 6.1483893,55.005711 16.966549,20.220248 40.27255,11.858427 c 23.306001,-8.3618195 78.91042,-8.3853418 80.53689,-0.940402 2.05171,9.391474 0.23476,60.925009 -38.132383,74.359468 z"/>
    </clipPath>
    <clipPath id="bottomLeaf_clipPath">
      <path d="M 7.8065525,-33.539664 C -22.433078,-48.646358 -56.875422,-30.92497 -57.806632,-8.1100744 -58.737842,14.704821 -45.710925,39.356598 0.49469738,40.220603 46.700317,41.084604 80.553762,-0.47410594 79.531344,-8.0257402 62.467531,-5.4780904 38.046187,-18.432969 7.8065525,-33.539664 Z"/>
    </clipPath>
  </defs>
 
	<g id="bottomLeaf_GRP">
		<path id="bottomLeaf_fill" style="fill:#CDEAC0; fill-opacity:0.75502;"
		d="M 106.6045,79.775223 C 86.342779,69.653154 63.265077,81.527168 62.64113,96.814031 c -0.623947,15.286859 8.104592,31.804509 39.06414,32.383429 30.95956,0.57891 53.64268,-27.26704 52.95761,-32.326917 -11.43341,1.707022 -27.79666,-6.97325 -48.05838,-17.09532 z"/>
		<path id="bottomLeaf_outer" style="fill:#CDEAC0;fill-opacity:1;" 
		d="m 89.487043,74.201152 c -0.875012,-0.0019 -1.750542,0.0289 -2.624646,0.09354 -7.07857,0.498022 -14.100302,3.113743 -19.523355,7.833113 -3.358295,2.90861 -5.986,6.712964 -7.307567,10.902178 -4.004754,-1.247905 -8.448656,-0.006 -11.746052,2.430859 0.522525,-0.0236 1.043432,7.94e-4 1.56683,0.01291 -0.21132,0.482883 0.224266,-0.03168 0.804601,0.04754 2.637393,0.201199 5.396381,0.631658 7.653798,2.102196 0.582599,0.254646 0.650742,0.891199 0.843875,1.440741 0.404672,1.066461 0.962036,2.204721 1.323951,3.379641 1.811613,5.34505 4.06141,10.62055 7.646562,15.04662 4.153524,5.29499 9.99672,9.20158 16.227432,11.5099 10.580476,4.05419 22.447718,4.30171 33.282728,1.34307 7.07295,-1.90972 13.7985,-5.13659 19.77243,-9.34052 9.53992,-6.59264 16.52055,-16.42965 20.30987,-27.345101 -5.3e-4,-0.450421 0.73339,-1.247468 0.0987,-1.422135 -1.02143,1.477634 -2.08276,2.927855 -3.18068,4.349607 -0.63022,0.202433 -1.2865,0.331224 -1.94045,0.404109 -3.71105,0.29813 -7.3855,-0.690089 -10.88874,-1.808676 C 129.6742,90.993357 118.55124,84.48626 107.11594,78.753324 101.71169,75.83475 95.61212,74.214246 89.487043,74.201147 Z m -0.412896,3.680397 c 4.785204,-0.06155 9.592138,0.941818 13.940233,2.942973 5.26066,2.559518 10.4224,5.329166 15.74064,7.773686 7.42126,3.432011 15.07911,6.539243 23.01514,8.386567 3.62049,0.728562 7.36272,1.296574 10.99726,0.536919 0.50557,-0.121532 1.00846,-0.268616 1.49448,-0.455272 -2.87989,3.683438 -6.01297,7.168448 -9.38134,10.410738 -6.01758,5.70531 -12.63433,10.96051 -20.25303,14.36398 -10.52082,4.81539 -22.71433,6.30677 -33.949862,3.26698 -6.756411,-1.80599 -13.349526,-5.15055 -17.844389,-10.63914 -3.379616,-4.01383 -5.291815,-8.96936 -7.00164,-13.86376 -0.527383,-1.238306 -0.823087,-2.568647 -1.436087,-3.767207 4.802664,-0.300125 9.524217,-1.545886 14.341242,-1.896526 3.048998,-0.221456 6.349423,-0.264662 9.080066,1.31 1.22468,0.885415 2.554296,1.983073 2.872693,3.539318 0.441642,2.186855 -2.349262,4.037855 -4.211111,2.877345 -0.345837,-0.29272 -0.688372,-0.70343 -0.23513,-0.0393 1.466069,1.495 4.183885,0.77579 5.168162,-0.93689 1.198271,-1.883744 0.213838,-4.266809 -1.129647,-5.782591 -2.10765,-2.586898 -5.624719,-3.588459 -8.695076,-3.867465 -5.885564,-0.55908 -11.721475,0.708515 -17.567404,1.165304 2.270085,-5.759235 7.199688,-10.137931 12.768212,-12.629202 3.85891,-1.758953 8.064351,-2.642169 12.286588,-2.696477 z" />
	</g>
	<g id="topLeaf_GRP">
		<path id="topLeaf_fill" style="fill:#CDEAC0;fill-opacity:0;"
		d="M 82.677057,85.277493 C 44.309902,98.711955 23.529837,97.236408 14.839113,76.121059 6.1483893,55.005711 16.966549,20.220248 40.27255,11.858427 c 23.306001,-8.3618195 78.91042,-8.3853418 80.53689,-0.940402 2.05171,9.391474 0.23476,60.925009 -38.132383,74.359468 z" />
		<path id="topLeaf_outer" style="fill:#CDEAC0;fill-opacity:1;" 
		d="M 71.381985,0.41773654 C 65.065937,0.42605364 58.765499,0.97878904 52.540806,2.3427339 41.018331,4.7703646 30.248985,10.600393 21.730675,18.705908 11.407334,28.538681 5.6732492,42.592927 5.0409605,56.73936 4.5812862,63.860033 5.5288124,70.99005 7.1523252,77.903557 7.9885389,82.627493 8.1162759,87.577383 6.9830359,92.25962 5.7325237,96.728772 2.656919,100.20255 -0.44966474,103.51563 6.8930025,103.53218 14.27323,99.139145 17.0604,92.220095 c 0.638287,-1.424516 1.064467,-2.888773 1.32639,-4.376967 0.636643,1.131565 1.375131,2.204501 2.218414,3.19503 4.172873,4.611071 10.340136,6.514469 16.3054,7.209053 12.195259,1.677984 24.721801,-0.754435 36.214637,-4.981474 17.487146,-6.622694 33.073929,-19.031608 41.626409,-35.783337 6.2071,-12.105824 8.52034,-26.180026 7.41412,-39.741101 -0.22496,-2.284211 -0.54411,-4.565218 -1.00788,-6.814712 3.7021,-0.402497 7.35136,-1.2221968 10.54368,-3.1653031 1.25704,-0.8824445 2.63761,-2.1070101 2.23644,-3.8273286 -0.3363,0.3322674 -0.6726,0.6644459 -1.00888,0.9967129 -2.20196,2.0012881 -5.50937,1.9160535 -8.32073,1.9993406 -1.53335,-0.089542 -3.06007,-0.23575 -4.58297,-0.4180378 -0.0211,-0.067601 -0.0394,-0.135986 -0.0608,-0.2034913 0.0114,0.066849 0.0237,0.1336122 0.0356,0.2004352 C 114.2402,5.8178428 108.5422,4.5824666 102.81429,3.6754603 92.478729,1.9016728 81.908726,0.40387484 71.381985,0.41773654 Z M 80.496437,11.039378 c 1.493582,-0.0025 2.984475,2.5e-4 4.471054,1.93e-4 9.0821,0.08644 18.168139,0.531778 27.246089,0.353282 0.76494,0.100541 2.11613,-0.114636 3.17382,-0.07741 1.70732,-0.07245 3.44915,-0.157165 5.18408,-0.325706 1.03575,12.100645 -1.12931,24.433377 -5.72184,35.64145 -6.06621,14.545664 -17.672181,26.359649 -31.421936,33.852201 -12.199476,6.679127 -25.989903,10.597211 -39.907264,10.987699 -5.602835,0.05456 -11.38127,-0.65206 -16.47321,-3.105097 -3.262084,-1.800749 -4.849975,-5.517061 -5.887604,-8.922002 -2.387627,-8.592632 2.956999,-18.708309 11.56312,-21.246813 4.505585,-1.206792 9.677334,1.020597 11.696288,5.285212 0.296631,0.327758 0.881234,2.32665 0.711057,1.33757 -1.017535,-6.067425 -7.774618,-9.928582 -13.51577,-8.753858 -6.896906,1.276917 -12.286058,6.891165 -14.713644,13.283316 -0.07495,0.199233 -0.145739,0.399966 -0.214335,0.601409 C 14.290185,56.738151 16.58303,42.307237 24.929325,31.542413 31.097632,23.488146 39.932508,17.751464 49.426835,14.468937 59.462391,11.322554 70.041364,11.056905 80.496437,11.039382 Z" />
	</g>
</svg>
