<svg xmlns="http://www.w3.org/2000/svg"  viewBox="0 0 32 32">
	<g id="treeGRP">
		<path id="treePath" style="fill:#ffffff; fill-opacity:1"
		d="m 6.2904411,7.7345225 c 0,0 -6.04078838,1.7247606 -5.94175895,7.1301105 0.0990292,5.413603 7.31166455,8.706328 12.31264485,7.336422 l -1.477187,8.260695 8.376229,-0.0165 -1.295633,-8.136909 c 4.522339,-0.06602 12.774782,-1.279129 12.774782,-7.740792 0,-6.4534105 -6.469915,-6.8330229 -6.469915,-6.8330229 0,0 -0.305341,-7.40244148 -8.970406,-7.29515965 C 6.9258792,0.538392 6.2904411,7.7345225 6.2904411,7.7345225 Z m 9.3417659,5.0504955 0.561166,2.739811 1.237866,-0.825245 -1.295633,1.460683 0.800487,3.928162 2.789325,-1.823789 h 0.156797 l -2.913113,3.614569 1.221362,7.418947 H 12.57055 l 1.799033,-9.902932 -2.698549,-3.936415 2.970879,2.19515 z" />
	</g>
</svg>
