<svg xmlns="http://www.w3.org/2000/svg" viewBox="0 0 500 107.4">  
	<defs>
		<filter id="shadow">
			<feFlood
				flood-color="rgb(0,0,0)"
				flood-opacity="0.513726"
				result="shadowFlood" />				
			  <feComposite
				operator="in"
				in2="SourceGraphic"
				result="shadowComposite"
				in="shadowFlood" />
			  <feGaussianBlur
				stdDeviation="0.5"
				in="shadowComposite"
				result="shadowBlur" />
			  <feOffset
				dy="0.8"
				dx="0.8"
				result="shadowOffset" />
			  <feComposite
				in="SourceGraphic"
				operator="over"
				result="shadowComposite2"
				in2="shadowOffset" />
		</filter>
	</defs>
	<g transform="scale(2)">
		<path id="vine_repeatPattern" style="fill:#FEC3A6; fill-opacity:1; stroke:none; filter:url(#shadow);"     
		d="m 202.87598,0 -1.50097,0.27350852 C 192.89718,1.8179767 188.80586,5.4303367 187.00377,12.962144 c -0.25869,1.081261 -0.4684,2.031571 -0.46543,2.111607 0.003,0.08006 0.32685,-0.45918 0.71997,-1.198205 2.72246,-5.1178419 5.55035,-7.6403159 10.30762,-9.1940885 0.83248,-0.271904 1.55092,-0.456495 1.59692,-0.410519 0.046,0.045975 -0.007,0.600732 -0.11854,1.2330973 -0.34304,1.9474187 -1.08679,3.1868318 -3.14561,5.2423282 -1.84022,1.837275 -1.85301,1.856946 -0.99858,1.4907 2.47076,-1.0591 4.51248,-3.1199633 6.00847,-6.0638832 0.65002,-1.2791867 1.63089,-4.1535951 1.83498,-5.37779996 z M 77.516274,0.01539453 75.970158,0.28223197 C 73.521659,0.705073 71.199446,1.43339 69.239696,2.3933266 c -1.501562,0.7355079 -2.097692,1.1717543 -3.471452,2.5406002 -1.39535,1.3903537 -1.799203,1.9424829 -2.542138,3.4765843 -0.827711,1.7091479 -1.648773,4.1589579 -1.946376,5.8062819 -0.07149,0.395898 -0.08454,0.719946 -0.02874,0.719946 0.05579,0 0.330262,-0.453561 0.609621,-1.007824 2.51112,-4.9820595 5.726286,-7.8160287 10.582671,-9.3275089 0.650219,-0.2023938 1.215044,-0.3351779 1.255162,-0.2950606 0.184857,0.1848677 -0.25878,2.27221 -0.676845,3.1846028 -0.579636,1.2650269 -2.115804,3.1293437 -3.386781,4.1098097 -0.53085,0.409511 -0.968477,0.813507 -0.973443,0.898012 -0.0045,0.08452 0.678303,-0.203357 1.517381,-0.639897 1.916556,-0.997095 3.998549,-3.1015843 5.046306,-5.1012155 0.720277,-1.3746336 1.932463,-4.760265 2.165491,-6.04797248 z M 37.29669,0.48492566 c -0.994851,0.006901 -1.79688,0.81757744 -1.791914,1.81244194 0.0046,0.9948619 0.813462,1.7983051 1.808332,1.7960215 0.994871,-0.0023 1.800128,-0.8093583 1.800128,-1.8042319 v -0.01642 C 39.103965,1.2779105 38.291542,0.47807484 37.29669,0.48492566 Z m 124.61001,0 c -0.99486,0.006901 -1.79689,0.81758134 -1.79192,1.81244194 0.005,0.9948619 0.81399,1.7983051 1.80883,1.7960215 0.99489,-0.0023 1.80014,-0.8093583 1.80014,-1.8042319 v -0.01642 c -0.009,-0.9948308 -0.82222,-1.79476177 -1.81705,-1.78781154 z M 28.799454,4.2668333 c -1.324097,0.00918 -2.390558,1.0887115 -2.384601,2.4128268 0.0062,1.3241155 1.083061,2.3933252 2.407181,2.3902461 1.324121,-0.00306 2.395893,-1.0774072 2.395893,-2.4015357 V 6.6463038 C 31.205679,5.3222305 30.123556,4.2575984 28.799454,4.2668333 Z m 124.610526,0 c -1.3241,0.00918 -2.39106,1.0887115 -2.38513,2.4128268 0.006,1.3241155 1.08308,2.3933252 2.4072,2.3902461 1.32413,-0.00306 2.39587,-1.0774019 2.39587,-2.4015357 v -0.022067 c -0.0122,-1.3240733 -1.09383,-2.3887054 -2.41794,-2.3794702 z M 35.412919,5.3372612 c -6e-5,-0.00511 -0.0032,-0.00455 -0.0098,0.00205 -0.05244,0.052785 -0.509908,0.5708462 -1.016547,1.1515055 -3.627716,4.1577053 -8.538291,6.6835743 -15.160981,7.7988373 -1.343603,0.226264 -3.013804,0.322125 -5.566639,0.318149 -3.516525,-0.0051 -3.75005,-0.02991 -6.5262395,-0.695826 C 4.1026453,13.185166 2.1915916,12.83877 0,12.672723 v 7.963561 c 3.1042077,0.467361 6.3409559,1.293977 9.8201297,2.500061 1.0557423,0.365982 5.1586253,1.960795 9.1176323,3.54432 7.905492,3.162043 11.892099,4.559324 16.237059,5.690822 l 2.861831,0.745089 -1.343427,0.676332 c -4.509934,2.270205 -9.076872,3.619629 -13.487603,3.985114 -1.239004,0.102684 -2.51176,0.17235 -2.828481,0.154972 -3.369538,-0.184678 -5.375883,-0.462792 -8.06567,-1.119177 C 8.2266325,35.81702 4.6629535,34.497986 0,32.258081 v 3.315454 c 4.9892879,2.030155 9.4858084,3.380059 13.768812,4.154454 3.087041,0.558147 8.331962,0.60572 11.119424,0.100578 4.581083,-0.830161 9.004418,-2.612055 13.820125,-5.566639 l 1.24798,-0.765619 1.631298,0.235021 c 3.580702,0.515361 4.894369,0.621157 9.59794,0.773829 4.519766,0.146708 5.153649,0.212092 8.275039,0.8508 9.723157,1.989603 16.21533,5.902593 20.102095,12.116474 0.904764,1.44647 0.728186,0.778541 -0.35818,-1.355226 C 76.909962,41.610369 73.311917,38.231673 68.094345,35.683862 66.99533,35.147206 65.625909,34.559686 65.050861,34.378411 l -1.045799,-0.329443 2.967028,-0.330979 c 7.720793,-0.861133 12.697818,-2.31698 26.976238,-7.890692 l 2.741242,-1.07043 0.9873,1.18435 c 2.66958,3.202023 4.53361,7.064025 4.92622,10.20602 0.85362,6.831407 -5.227857,11.298832 -11.37753,8.357656 -1.334854,-0.638423 -2.65921,-1.860166 -3.233861,-2.982935 -0.583183,-1.139431 -0.673482,-3.069049 -0.194487,-4.151889 1.163495,-2.630286 4.337513,-4.062709 6.208589,-2.801792 2.047743,1.379934 2.039269,3.967364 -0.01489,4.528026 -0.634271,0.173081 -0.6418,0.184869 -0.134446,0.201155 1.811518,0.05835 2.709149,-1.986332 1.720075,-3.91789 -0.762637,-1.48936 -1.89413,-2.105048 -3.615132,-1.966901 -2.196982,0.176345 -4.365371,1.880748 -4.898009,3.850153 -0.298941,1.105344 -0.113711,3.300582 0.371521,4.404872 0.530898,1.208215 1.996612,2.749707 3.192812,3.357534 3.43627,1.746076 7.474328,1.235265 10.326088,-1.306478 3.08133,-2.74634 3.49718,-7.49009 1.10483,-12.595241 -0.87372,-1.864433 -2.450487,-4.315382 -3.657736,-5.685689 -0.445853,-0.506055 -0.778363,-0.946502 -0.73894,-0.978576 0.03941,-0.03203 0.742264,-0.299077 1.561515,-0.59371 l 1.489681,-0.535731 0.90982,0.558306 c 1.31461,0.807036 2.21063,2.687599 3.36625,7.062985 1.29088,4.887492 2.29388,6.740465 4.27761,7.903006 1.34119,0.78599 4.4048,1.404884 5.62618,1.136624 0.52216,-0.114692 0.54349,-0.160577 0.46644,-1.02168 -0.47483,-5.306422 -1.03645,-6.59387 -3.68696,-8.453103 -1.25749,-0.882076 -1.46912,-0.903996 -0.68558,-0.07082 0.26869,0.285714 0.79889,1.143465 1.1782,1.905833 0.60864,1.223313 0.70126,1.603129 0.78662,3.236432 l 0.097,1.850925 -0.4593,-0.139575 c -0.70663,-0.214438 -2.51467,-1.213789 -3.05272,-1.687233 -0.92075,-0.810253 -1.52334,-1.796016 -2.48005,-4.058495 -1.1537,-2.728266 -2.28958,-4.689717 -3.40934,-5.886844 -0.45481,-0.486214 -0.82668,-0.930929 -0.82668,-0.988325 0,-0.05738 2.05144,1.057697 4.55878,2.477484 12.63446,7.154176 22.25901,11.090256 30.66426,12.540331 5.61973,0.969509 10.19406,0.679236 15.59614,-0.989348 3.16108,-1.01253 6.13788,-2.335997 8.9955,-4.073378 2.0657,-1.220105 2.13087,-1.24372 3.00499,-1.078126 2.61831,0.496035 5.95123,0.802225 10.33584,0.949324 5.08263,0.170521 7.14884,0.437833 11.13329,1.440924 3.93094,0.98963 7.72421,2.607869 10.65297,4.544445 2.59461,1.715634 5.97471,5.245971 6.92546,7.233347 0.16827,0.351684 0.35187,0.593357 0.40846,0.536754 0.0566,-0.05657 -0.29074,-0.911919 -0.77179,-1.900701 -1.62522,-3.340882 -4.43132,-6.502582 -7.70441,-8.680427 -1.66269,-1.106324 -4.94218,-2.751561 -6.62682,-3.32418 l -1.00063,-0.339704 2.46569,-0.243747 c 3.11032,-0.307593 6.93154,-1.004059 10.14343,-1.848361 4.17967,-1.098711 6.95615,-2.076114 17.4378,-6.137261 l 2.84952,-1.103783 0.66507,0.643489 c 0.36563,0.354014 1.16579,1.377935 1.77856,2.275302 4.452,6.520013 4.98742,12.085559 1.50098,15.606908 -2.39085,2.414738 -5.96195,2.893999 -9.30443,1.248496 -3.08774,-1.520084 -4.51209,-4.782167 -3.22,-7.374978 0.86668,-1.739238 2.6631,-2.9542 4.36792,-2.9542 1.26416,0 2.06246,0.410469 2.69401,1.384478 0.99821,1.53946 0.5264,3.218184 -1.01704,3.617701 -0.63525,0.164339 -0.62542,0.169041 0.19396,0.09288 2.58736,-0.240574 2.41677,-4.148569 -0.24015,-5.504035 -1.53346,-0.782318 -3.91681,-0.219185 -5.41527,1.279278 -1.18809,1.188111 -1.53645,2.078631 -1.53943,3.928669 -0.002,1.388258 0.078,1.803373 0.53573,2.78332 1.26338,2.705092 4.04557,4.318661 7.44579,4.318661 3.50599,0 6.44891,-1.84358 7.9112,-4.955992 0.52633,-1.120216 0.61203,-1.532606 0.67787,-3.26465 0.0537,-1.412948 -0.0173,-2.377851 -0.24733,-3.359076 -0.48943,-2.087324 -2.32056,-5.670754 -4.11699,-8.056949 -1.48516,-1.972702 -1.53478,-2.070788 -1.12279,-2.220912 0.23706,-0.08638 0.88938,-0.318964 1.44965,-0.51674 l 1.01912,-0.359717 0.86721,0.460295 c 1.46975,0.779696 2.46056,2.67125 3.42323,6.533926 1.77496,7.121873 3.30078,8.973301 7.92455,9.616409 0.80286,0.111613 1.75064,0.14822 2.10596,0.08159 l 0.64604,-0.121101 -0.11645,-1.189482 c -0.48567,-4.953489 -0.95458,-6.056514 -3.35549,-7.895307 -1.56071,-1.19536 -1.6317,-1.202069 -0.7769,-0.078 0.42895,0.564085 0.95602,1.492129 1.17101,2.062858 0.43884,1.164982 0.7972,3.567673 0.6286,4.212439 -0.1323,0.505794 -0.40582,0.451434 -2.03105,-0.403851 -1.4637,-0.770262 -2.52167,-1.957244 -3.34676,-3.754709 -2.27245,-4.950638 -2.46579,-5.288539 -4.4141,-7.713655 -0.53226,-0.6625 -0.53286,-0.667674 -0.06,-0.366387 0.2637,0.168034 1.38641,0.825666 2.49491,1.461447 7.20197,4.130584 13.37326,7.224718 18.93368,9.469137 V 32.37199 c -0.38932,-0.185823 -0.7725,-0.366731 -1.1782,-0.566004 -2.77546,-1.363254 -4.75332,-2.439343 -14.96545,-8.143671 l -3.06456,-1.711867 0.85698,-0.250929 c 1.65042,-0.483136 6.43258,-1.21312 9.35214,-1.427582 2.93625,-0.215689 5.90061,-0.08795 8.99909,0.396668 v -7.978443 c -0.81896,-0.06796 -1.66713,-0.112437 -2.62579,-0.137525 -6.9565,-0.182064 -14.29394,1.331944 -22.86386,4.71738 l -1.46969,0.580374 -3.13736,-1.341371 c -5.10985,-2.184957 -9.5688,-3.527056 -13.59894,-4.092362 -2.53513,-0.355597 -7.13284,-0.303432 -9.50148,0.107248 -4.76992,0.827001 -9.91552,3.101955 -13.96895,6.176769 l -1.1079,0.84054 -0.19395,-0.529569 c -1.79093,-4.878741 -7.47257,-7.450924 -11.79063,-5.338289 -3.76001,1.839598 -5.01041,6.132963 -2.53751,8.712756 0.78399,0.817894 1.72799,1.302782 2.87156,1.474279 1.45755,0.218568 1.7336,-0.03726 0.60451,-0.560362 -1.57864,-0.731377 -2.46471,-2.176208 -2.09059,-3.409361 0.43936,-1.448128 1.92878,-2.725708 3.44222,-2.952657 1.6111,-0.24161 3.55629,0.661659 4.46591,2.073634 0.74552,1.157196 0.75123,2.934588 0.0128,4.17344 -1.52535,2.559239 -5.50291,4.764247 -9.19872,5.09916 -2.67955,0.242809 -6.195,-0.637401 -9.66466,-2.42001 -1.62689,-0.838056 -3.63626,-1.830381 -5.30286,-2.95266 -2.8546,-1.805378 -6.71729,-3.911994 -9.02168,-4.920071 -1.00293,-0.438748 -1.88985,-0.857566 -1.97051,-0.930852 -0.0806,-0.07325 0.43797,-0.246318 1.15202,-0.384862 2.01868,-0.391639 5.62558,-1.629546 7.78346,-2.67094 2.76383,-1.333811 5.31073,-3.071004 5.3157,-3.626937 0.002,-0.237536 -0.049,-0.4320697 -0.1139,-0.4320697 -0.0648,0 -0.73425,0.3832177 -1.48762,0.8518257 -5.7012,3.546167 -15.46631,4.911374 -22.18086,3.100961 -3.75532,-1.012527 -6.31423,-1.334021 -10.57291,-1.329055 -4.46503,0.0053 -7.16901,0.35276 -11.805,1.516866 -2.70055,0.678114 -7.88033,2.362343 -10.345613,3.364205 -1.187459,0.482559 -1.37562,0.511477 -1.828867,0.2771 C 96.99046,17.584039 95.556241,16.950459 94.081175,16.320178 80.038006,10.319697 69.163622,10.7647 58.78987,17.763667 c -1.148886,0.775129 -2.109178,1.384702 -2.134699,1.354713 -0.02546,-0.03001 -0.291657,-0.559754 -0.591148,-1.177165 -1.017292,-2.097165 -2.443114,-3.369959 -4.892876,-4.366897 -1.759441,-0.716016 -4.125232,-0.806038 -5.67799,-0.216036 -4.307422,1.636687 -5.850514,5.935528 -3.239511,9.024752 0.706057,0.835373 1.751336,1.348341 3.062984,1.5025 1.209243,0.142126 1.434495,-0.113788 0.456704,-0.518795 -2.19702,-0.91004 -2.873918,-3.149317 -1.467604,-4.855414 0.88719,-1.076308 1.937375,-1.547491 3.437584,-1.542526 1.062493,0.0035 1.409916,0.09565 2.207565,0.58499 0.520622,0.31939 1.205795,0.948401 1.522515,1.397816 0.503054,0.713782 0.575553,0.978846 0.569592,2.096217 -0.0078,1.542849 -0.324671,2.211317 -1.69698,3.58229 -1.248227,1.247004 -3.357816,2.503409 -5.153555,3.069141 -4.86015,1.531167 -9.30176,0.363067 -17.150978,-4.510576 -3.58379,-2.225201 -7.483075,-4.359877 -9.648738,-5.281841 -0.914437,-0.389289 -1.733764,-0.773978 -1.820653,-0.854906 -0.08689,-0.08089 0.431184,-0.255526 1.151506,-0.387942 3.368099,-0.619138 8.161003,-2.575127 11.29133,-4.608591 1.766628,-1.147595 5.326196,-4.6714885 6.024887,-5.9643202 0.220554,-0.4081205 0.373472,-0.7180445 0.373057,-0.7538156 z M 208.03211,5.6292435 c -1.84727,-0.00702 -2.11158,0.039552 -3.16717,0.5552268 -1.09116,0.5330653 -3.72975,2.8739571 -3.49915,3.1045516 0.0561,0.056125 0.52116,-0.1928137 1.03296,-0.5531747 1.98839,-1.3999767 3.79692,-1.6143687 7.64849,-0.9067336 1.14925,0.2111424 2.13481,0.3838362 2.1896,0.3838362 0.0548,0 -0.19943,0.263715 -0.56499,0.5860137 -1.01342,0.8936341 -2.80106,1.6772335 -4.50389,1.9745975 -1.32287,0.231004 -1.44237,0.282048 -0.8636,0.368442 0.36949,0.0552 1.58243,0.08762 2.69503,0.07184 1.86244,-0.02645 2.12122,-0.07766 3.26312,-0.64554 1.14591,-0.5698755 3.85057,-2.5588578 3.98665,-2.9316198 0.0325,-0.088895 -0.65884,-0.3796821 -1.53586,-0.6460558 -4.11235,-1.2490107 -4.62609,-1.3534389 -6.68119,-1.3613829 z M 83.049561,5.6430973 c -1.81562,-0.014408 -2.127104,0.036588 -3.141499,0.5116108 -0.723561,0.3388429 -1.569618,0.9795655 -2.366643,1.7924301 -1.295819,1.3215876 -1.49868,1.8084802 -0.405901,0.9749811 1.348956,-1.028899 2.631517,-1.4676724 4.293517,-1.4696585 1.276873,-0.00155 5.559433,0.6101114 5.773949,0.8246324 0.09201,0.092002 -1.668171,1.3861153 -2.368179,1.7411128 -0.729384,0.369882 -2.759467,0.869562 -3.704935,0.911867 l -0.671713,0.03027 0.76767,0.14522 c 0.422287,0.07998 1.674791,0.132273 2.78332,0.116488 1.784011,-0.02534 2.140627,-0.09009 3.105581,-0.563952 1.056871,-0.518997 4.035747,-2.6704954 4.148294,-2.9962701 0.0306,-0.088599 -0.695025,-0.3953101 -1.612827,-0.6814648 C 85.973069,5.8339043 85.113228,5.659487 83.049561,5.6431003 Z M 36.862564,6.7217366 c -1.232635,0.00854 -2.226352,1.0133977 -2.220391,2.2460533 0.0057,1.2326581 1.008253,2.2278941 2.240918,2.2250121 1.232665,-0.0029 2.230145,-1.002608 2.230145,-2.2352742 V 8.936488 C 39.101838,7.7038745 38.095199,6.7131978 36.862564,6.7217366 Z m 124.609996,0 c -1.23263,0.00855 -2.22584,1.0134003 -2.21988,2.2460533 0.006,1.2326551 1.00776,2.2278941 2.24042,2.2250121 1.23265,-0.0029 2.23065,-1.002608 2.23065,-2.2352742 V 8.9364868 C 163.71238,7.703868 162.70521,6.7131966 161.47256,6.7217366 Z M 20.070794,7.0537462 c -1.63505,0.011343 -2.952904,1.3437518 -2.944963,2.9788298 0.0076,1.635073 1.337072,2.955402 2.972159,2.951632 1.635092,-0.0038 2.958815,-1.329877 2.958815,-2.964972 V 9.9915234 C 23.041682,8.3564987 21.705844,7.0424038 20.070794,7.0537462 Z m 124.609996,0 c -1.63504,0.011343 -2.95292,1.3437518 -2.94495,2.9788298 0.008,1.635073 1.33757,2.955402 2.97267,2.951632 1.63509,-0.0038 2.9583,-1.329877 2.9583,-2.964972 V 9.991523 c -0.0151,-1.6350237 -1.35096,-2.9491186 -2.98602,-2.9377768 z M 30.722225,13.157651 c -1.433849,0.01 -2.589115,1.178576 -2.582164,2.612442 0.0067,1.43387 1.172406,2.592111 2.606283,2.588836 1.433877,-0.0033 2.59448,-1.166759 2.59448,-2.60064 v -0.02412 c -0.01327,-1.433823 -1.184752,-2.586468 -2.618599,-2.576518 z m 124.610525,0 c -1.43388,0.01 -2.58964,1.178576 -2.58269,2.612442 0.007,1.43387 1.17291,2.592111 2.60681,2.588836 1.43387,-0.0033 2.59446,-1.166759 2.59446,-2.60064 l -5.1e-4,-0.02412 c -0.0132,-1.433822 -1.18422,-2.586472 -2.61807,-2.576522 z m 44.89743,1.422962 c 4.69211,-0.01878 9.60479,1.078532 14.97678,3.308784 2.66053,1.104558 3.68958,1.66627 3.36933,1.838614 -0.53659,0.288814 -1.10805,0.399486 -1.21003,0.234508 -0.18846,-0.305012 -3.72823,-1.970955 -5.36031,-2.522639 -3.60212,-1.217593 -7.00731,-1.742968 -11.26313,-1.73701 -4.96331,0.0067 -9.81201,0.917583 -14.64117,2.750479 -0.71259,0.270475 -1.29568,0.446958 -1.29568,0.392044 0,-0.199206 4.04082,-1.985307 6.02641,-2.663756 3.08039,-1.052521 6.18741,-1.588174 9.3978,-1.601024 z m -125.267335,0.01384 c 4.02898,-0.02153 8.140324,0.76778 12.416151,2.36459 2.972179,1.10997 6.264034,2.624732 6.087488,2.801279 -0.263534,0.263553 -1.285183,0.398166 -1.491212,0.196533 -0.394094,-0.38567 -3.327302,-1.766361 -5.147399,-2.423086 -3.125981,-1.127895 -6.048205,-1.644478 -10.016664,-1.770879 -2.186904,-0.06966 -4.194999,-0.02492 -5.470682,0.121618 -3.651909,0.419485 -7.917432,1.464568 -10.893124,2.669402 -1.713329,0.693711 -1.112768,0.244721 1.015009,-0.758949 4.473817,-2.110293 8.934255,-3.176116 13.500433,-3.200508 z M 200.53039,16.49002 c 5.41257,-0.03359 10.49081,1.024431 14.59602,3.125593 l 1.6236,0.830788 -0.56804,0.290954 c -1.18043,0.604777 -10.67495,4.651955 -13.62053,5.805765 -8.79652,3.445673 -17.76457,5.643462 -24.28221,5.951503 -1.21408,0.05738 -2.85518,0.137017 -3.64696,0.177034 -1.18163,0.0597 -3.06606,-0.182798 -4.12674,-0.53162 -0.10557,-0.03471 0.6577,-0.170971 1.69595,-0.302244 3.2711,-0.413596 5.33644,-1.342324 7.24308,-3.256959 0.75266,-0.755783 1.46622,-1.699741 1.76473,-2.334826 0.61774,-1.314201 0.99414,-3.37312 0.8457,-4.626551 l -0.11187,-0.941628 1.09557,-0.486978 c 1.59951,-0.710622 5.21105,-1.886536 7.52585,-2.450802 3.35057,-0.816741 6.7183,-1.22987 9.96585,-1.250029 z m -124.487878,9.93e-4 c 2.869282,0.03493 5.618488,0.379834 8.122122,1.041692 3.209604,0.848483 7.679026,2.856387 7.090689,3.185628 -0.645859,0.361441 -10.525155,4.579076 -13.17715,5.62565 -9.441322,3.725899 -17.944246,5.822282 -24.972905,6.15625 h -5.12e-4 c -1.214096,0.05768 -2.768808,0.135279 -3.455034,0.172418 -1.214592,0.06568 -2.573221,-0.09059 -3.742908,-0.430532 -0.510165,-0.148266 -0.422712,-0.184338 0.767671,-0.314562 4.119486,-0.450633 6.888039,-1.868407 8.840018,-4.527512 1.050101,-1.430543 1.473173,-2.842607 1.516867,-5.061188 l 0.03743,-1.906862 0.84926,-0.362796 c 0.46717,-0.199624 1.980826,-0.74224 3.363695,-1.205385 4.863476,-1.628876 9.978588,-2.431021 14.760727,-2.372801 z m 43.009558,3.682355 c 0.85202,0.0056 1.67201,0.03967 2.45131,0.103143 6.11721,0.498339 10.32348,1.643811 19.32364,5.26183 4.73771,1.901865 9.40716,3.84925 15.71368,5.857594 0.39591,0.107592 1.92588,0.510617 3.39961,0.895444 1.47372,0.384819 2.70597,0.72575 2.73817,0.75792 -2.50005,1.657679 -5.48583,2.510735 -8.27093,3.416034 -7.15894,2.006217 -14.60226,1.798582 -23.19845,-1.275685 -4.10981,-1.469797 -9.61726,-4.147124 -16.58344,-8.061059 -2.21704,-1.245652 -5.13209,-2.87906 -6.47745,-3.629502 -1.34541,-0.750444 -2.44723,-1.413372 -2.44723,-1.47325 -0.002,-0.152328 2.35909,-0.683454 5.07708,-1.14227 2.87629,-0.485516 5.718,-0.726933 8.27401,-0.710199 z M 9.7087764,27.425246 c -2.7049705,-0.01343 -5.4089058,0.987855 -8.232447,3.033221 -0.92945221,0.673286 -0.83460329,0.744186 0.4012814,0.300191 1.7756835,-0.637916 4.1080656,-1.033132 6.1187895,-1.038098 2.0698467,-0.0047 5.3747227,0.477501 5.3747227,0.784091 0,0.09456 -0.06602,0.171906 -0.146249,0.171906 -0.08027,0 -0.383997,0.220967 -0.675305,0.491084 -0.823488,0.763588 -3.1670171,1.777047 -4.643483,2.007948 -0.735976,0.115101 -1.3840892,0.257199 -1.4398961,0.315588 -0.055827,0.05839 1.107729,0.07336 2.5857555,0.03284 2.5216456,-0.06904 2.7645806,-0.109882 3.9353416,-0.661962 0.686225,-0.323601 1.542922,-0.838186 1.903781,-1.143296 0.60347,-0.510224 1.743167,-2.083803 1.743167,-2.406668 0,-0.206307 -2.373844,-1.071256 -4.216033,-1.536368 C 11.511844,27.546885 10.610433,27.429717 9.7087764,27.42525 Z M 133.644,27.433021 c -1.92668,0.03225 -3.73087,0.563501 -5.55689,1.604102 -1.67296,0.953386 -3.27044,2.115216 -2.71251,1.973061 0.21114,-0.0538 1.16145,-0.332954 2.11161,-0.620399 2.34092,-0.708183 5.78769,-0.868363 8.4331,-0.392045 1.01005,0.181868 1.8328,0.387289 1.82886,0.4567 -0.015,0.254639 -1.79356,1.431551 -2.96861,1.964333 -0.6648,0.301458 -1.79795,0.641866 -2.51798,0.756896 -0.72007,0.11503 -1.34768,0.247992 -1.39475,0.29506 -0.20831,0.208323 4.39367,0.05512 5.2572,-0.174983 1.92473,-0.512875 3.60172,-1.694427 4.44286,-3.129694 0.61327,-1.046499 0.71847,-0.952281 -2.13832,-1.907885 -1.71376,-0.573277 -3.28604,-0.850232 -4.78457,-0.825146 z m 68.85071,7.192806 c -1.53049,0.01061 -2.76357,1.257925 -2.75661,2.788455 0.007,1.530521 1.25176,2.766879 2.78225,2.763304 1.53057,-0.0036 2.76949,-1.245589 2.76949,-2.776133 v -0.02566 c -0.0142,-1.530475 -1.26462,-2.76058 -2.79513,-2.749967 z M 77.166307,34.818726 c -1.530508,0.01062 -2.763586,1.257924 -2.756636,2.788452 0.0071,1.530529 1.251747,2.766883 2.782292,2.763306 1.530539,-0.0036 2.769466,-1.245595 2.769466,-2.776135 l -5.15e-4,-0.02566 c -0.01417,-1.530478 -1.2641,-2.760582 -2.794607,-2.749967 z m 113.691213,3.466319 c -1.68572,0.0117 -3.04424,1.385973 -3.03629,3.071714 0.008,1.685735 1.37878,3.046844 3.06453,3.042971 1.68573,-0.0039 3.05015,-1.371586 3.05015,-3.057342 v -0.02822 c -0.0156,-1.685683 -1.39267,-3.04081 -3.07839,-3.029123 z M 65.528604,38.478472 c -1.685715,0.01169 -3.043734,1.385461 -3.035792,3.071196 0.0079,1.685734 1.378776,3.046846 3.064525,3.042973 1.685754,-0.0039 3.05016,-1.371588 3.05016,-3.057343 v -0.02822 c -0.01559,-1.685685 -1.39318,-3.040302 -3.078893,-3.028604 z m 68.505376,2.446693 c -0.085,0.0138 0.10166,0.541499 0.5573,1.556894 1.48243,3.303804 4.79035,6.046444 7.96765,6.606279 v -5.12e-4 c 2.44515,0.430824 5.85754,-0.304822 8.08057,-1.741629 l 1.13557,-0.733802 -0.28067,-0.671712 c -0.78514,-1.87908 -2.26282,-3.261551 -4.2222,-3.950219 -1.26267,-0.443793 -3.14793,-0.755124 -4.52545,-0.748173 l -1.05605,0.0057 0.95955,0.347403 c 2.2179,0.802118 4.07074,2.05699 4.6281,3.134826 0.25065,0.484765 0.25863,0.614629 0.0452,0.751762 -0.96288,0.618675 -4.29542,0.922325 -6.15417,0.560873 -2.49543,-0.485251 -5.1552,-2.307362 -6.68789,-4.581907 -0.24732,-0.367052 -0.39638,-0.543989 -0.44746,-0.535727 z M 9.6697791,40.926158 c -0.1554696,-0.06347 0.151848,0.700013 0.8821029,2.131109 1.530831,3.000012 4.738142,5.54092 7.617693,6.034631 2.313126,0.396596 5.311562,-0.170158 7.600764,-1.43733 1.646457,-0.911378 1.681333,-0.976469 1.143295,-2.137779 -1.216697,-2.626117 -3.690952,-3.961802 -7.783956,-4.201663 l -1.823731,-0.106735 1.252085,0.458757 c 2.256101,0.827043 4.7193,2.753234 4.562406,3.567922 -0.158822,0.824679 -4.53332,1.273649 -6.781776,0.695831 -2.374261,-0.61016 -4.706267,-2.270577 -6.166508,-4.390503 C 9.9064585,41.154675 9.7404462,40.955015 9.6697791,40.926158 Z M 207.23777,42.976704 c -1.19426,0.0083 -2.15708,0.982029 -2.15112,2.176263 0.006,1.19423 0.97688,2.158519 2.17114,2.155738 1.19423,-0.0028 2.16083,-0.971755 2.16083,-2.166001 l -5.3e-4,-0.02001 c -0.0111,-1.194193 -0.9861,-2.154231 -2.18032,-2.145988 z M 81.908829,43.169679 c -1.194216,0.0083 -2.156564,0.98203 -2.150607,2.176264 0.0056,1.194235 0.976375,2.158519 2.170619,2.155739 1.194246,-0.0028 2.160872,-0.971756 2.160872,-2.165999 v -0.02003 c -0.01105,-1.194197 -0.986667,-2.154228 -2.180884,-2.145988 z m 116.789101,0.745606 c -1.24596,0.0087 -2.24997,1.0242 -2.24398,2.27017 0.006,1.245966 1.01904,2.252011 2.26502,2.249132 1.246,-0.0029 2.25425,-1.013923 2.25425,-2.259907 v -0.02052 c -0.0115,-1.24593 -1.02934,-2.247508 -2.27529,-2.238866 z M 73.369518,44.108228 c -1.245952,0.0087 -2.249958,1.024203 -2.244,2.270172 0.0058,1.245966 1.019059,2.252009 2.26504,2.24913 1.24598,-0.0029 2.254264,-1.01341 2.254264,-2.259394 v -0.02104 c -0.01153,-1.24593 -1.029351,-2.247507 -2.275304,-2.238867 z M 206.44237,49.82676 c -1.01312,0.0071 -1.82973,0.832644 -1.82479,1.845796 0.005,1.013155 0.82857,1.831248 1.84173,1.828864 1.01316,-0.0024 1.83296,-0.82391 1.83296,-1.837075 v -0.01745 c -0.009,-1.01312 -0.83675,-1.827188 -1.8499,-1.820138 z M 81.113449,50.019702 c -1.013132,0.0071 -1.829723,0.832646 -1.824757,1.845798 0.0047,1.01315 0.828529,1.831245 1.841689,1.828863 1.013162,-0.0024 1.833482,-0.823907 1.833482,-1.837075 v -0.01694 c -0.0094,-1.013126 -0.837272,-1.827704 -1.850414,-1.820654 z"/>
	</g>
</svg>
